<?xml version="1.0" encoding="utf-8"?>
<!-- Generator: Adobe Illustrator 15.0.0, SVG Export Plug-In . SVG Version: 6.00 Build 0)  -->
<!DOCTYPE svg PUBLIC "-//W3C//DTD SVG 1.1//EN" "http://www.w3.org/Graphics/SVG/1.1/DTD/svg11.dtd">
<svg version="1.1" id="Layer_1" xmlns="http://www.w3.org/2000/svg" xmlns:xlink="http://www.w3.org/1999/xlink" x="0px" y="0px"
	 width="760.458px" height="757.875px" viewBox="0 0 760.458 757.875" enable-background="new 0 0 760.458 757.875"
	 xml:space="preserve">
<g>
	<path fill="#52439B" d="M86.471,159.271c0-57.484,46.768-104.252,104.252-104.252s104.252,46.768,104.252,104.252
		c0,5.936-0.506,11.756-1.463,17.424h15.008c1.934-8.564,2.96-17.469,2.96-26.611c0-66.585-54.171-120.756-120.757-120.756
		S69.967,83.499,69.967,150.084c0,9.143,1.027,18.047,2.961,26.611h15.008C86.977,171.027,86.471,165.207,86.471,159.271z"/>
	<path fill="#F49AC1" d="M190.723,58.675c-55.469,0-100.596,45.127-100.596,100.596c0,5.94,0.521,11.764,1.514,17.424h10.568
		c-0.572-4.074-0.873-8.234-0.873-12.465c0-49.289,40.098-89.387,89.387-89.387s89.389,40.098,89.389,89.387
		c0,4.23-0.303,8.391-0.874,12.465h10.567c0.992-5.66,1.515-11.483,1.515-17.424C291.32,103.803,246.192,58.675,190.723,58.675z"/>
	<path fill="#0099D8" d="M116.75,172.441c0-40.789,33.184-73.973,73.973-73.973s73.974,33.184,73.974,73.973
		c0,1.43-0.052,2.846-0.132,4.254h11.498c0.593-4.072,0.913-8.23,0.913-12.465c0-47.561-38.692-86.252-86.253-86.252
		s-86.252,38.692-86.252,86.252c0,4.234,0.32,8.393,0.912,12.465h11.498C116.801,175.287,116.75,173.871,116.75,172.441z"/>
	<path fill="#62BB46" d="M190.723,101.062c-39.357,0-71.379,32.021-71.379,71.379c0,1.43,0.055,2.846,0.139,4.254h12.02
		c1.764-31.139,27.648-55.935,59.221-55.935c31.573,0,57.457,24.796,59.222,55.935h12.019c0.084-1.408,0.139-2.824,0.139-4.254
		C262.102,133.084,230.083,101.062,190.723,101.062z"/>
	<path fill="#EC008C" d="M190.723,136.936c22.689,0,41.274,17.516,43.004,39.76h14.131c-1.761-29.99-26.709-53.854-57.135-53.854
		s-55.373,23.864-57.135,53.854h14.131C149.45,154.451,168.034,136.936,190.723,136.936z"/>
</g>
<g>
	<g>
		<path fill="#62BB46" d="M105.671,690.897c0-57.484,46.768-104.252,104.252-104.252s104.252,46.768,104.252,104.252
			c0,5.936-0.506,11.756-1.464,17.424h15.008c1.934-8.564,2.961-17.469,2.961-26.611c0-66.586-54.171-120.756-120.757-120.756
			S89.167,615.124,89.167,681.709c0,9.143,1.026,18.047,2.961,26.611h15.008C106.177,702.653,105.671,696.833,105.671,690.897z"/>
		<path fill="#62BB46" d="M209.923,590.301c-55.469,0-100.596,45.127-100.596,100.596c0,5.941,0.521,11.764,1.514,17.424h10.568
			c-0.572-4.074-0.874-8.234-0.874-12.465c0-49.289,40.099-89.387,89.388-89.387s89.388,40.098,89.388,89.387
			c0,4.23-0.302,8.391-0.874,12.465h10.567c0.993-5.66,1.515-11.482,1.515-17.424C310.519,635.428,265.392,590.301,209.923,590.301z
			"/>
		<path fill="#62BB46" d="M135.95,704.067c0-40.789,33.184-73.973,73.973-73.973s73.973,33.184,73.973,73.973
			c0,1.43-0.051,2.846-0.131,4.254h11.498c0.593-4.072,0.913-8.23,0.913-12.465c0-47.561-38.692-86.252-86.253-86.252
			s-86.253,38.691-86.253,86.252c0,4.234,0.32,8.393,0.913,12.465h11.498C136.001,706.913,135.95,705.497,135.95,704.067z"/>
		<path fill="#62BB46" d="M209.923,632.688c-39.358,0-71.379,32.021-71.379,71.379c0,1.43,0.055,2.846,0.139,4.254h12.02
			c1.764-31.139,27.647-55.934,59.221-55.934s57.457,24.795,59.221,55.934h12.02c0.084-1.408,0.139-2.824,0.139-4.254
			C281.302,664.709,249.281,632.688,209.923,632.688z"/>
		<path fill="#62BB46" d="M209.923,668.561c22.689,0,41.274,17.516,43.004,39.76h14.131c-1.761-29.99-26.709-53.854-57.135-53.854
			s-55.374,23.863-57.135,53.854h14.131C168.648,686.077,187.233,668.561,209.923,668.561z"/>
	</g>
	<path fill="#FFFFFF" stroke="#62BB46" stroke-width="1.44" stroke-miterlimit="10" d="M129.122,680.141
		c4.593-8.297,9.937-15.898,20.641-17.039c16.979-1.809,25.859,13.035,25.92,28.08c0.069,17.436-15.229,23.688-26.4,31.199
		c-7.916,5.324-15.518,12.436-19.92,21.121c-4.757-8.859-12.385-16.178-21.12-21.6c-5.599-3.477-11.776-6.529-16.319-10.801
		c-5.113-4.809-9.008-10.709-9.12-19.92c-0.18-14.787,8.229-27.914,22.319-28.561C118.463,662.01,124.418,671.42,129.122,680.141z"
		/>
	<path fill="#FFFFFF" stroke="#62BB46" stroke-width="1.0049" stroke-miterlimit="10" d="M172.194,596.968
		c3.205-5.79,6.934-11.096,14.404-11.892c11.85-1.262,18.047,9.097,18.09,19.596c0.047,12.168-10.629,16.531-18.424,21.773
		c-5.525,3.715-10.83,8.678-13.902,14.738c-3.32-6.182-8.643-11.289-14.738-15.072c-3.906-2.427-8.219-4.557-11.389-7.538
		c-3.568-3.354-6.287-7.473-6.365-13.901c-0.125-10.318,5.743-19.479,15.576-19.93C164.755,584.315,168.911,590.881,172.194,596.968
		z"/>
	<path fill="#62BB46" d="M172.216,601.174c2.377-4.294,5.143-8.229,10.684-8.818c8.787-0.937,13.383,6.746,13.414,14.531
		c0.035,9.024-7.881,12.26-13.664,16.147c-4.096,2.755-8.029,6.436-10.309,10.931c-2.463-4.585-6.408-8.373-10.93-11.179
		c-2.898-1.8-6.096-3.378-8.447-5.59c-2.646-2.487-4.661-5.542-4.719-10.31c-0.094-7.652,4.258-14.445,11.551-14.779
		C166.7,591.791,169.782,596.661,172.216,601.174z"/>
	<path fill="#62BB46" d="M83.55,575.84c2.377-4.293,5.143-8.229,10.684-8.818c8.787-0.936,13.383,6.746,13.414,14.532
		c0.035,9.024-7.881,12.259-13.664,16.147c-4.097,2.754-8.03,6.436-10.309,10.93c-2.463-4.584-6.409-8.372-10.931-11.178
		c-2.897-1.8-6.095-3.379-8.446-5.59c-2.646-2.488-4.662-5.542-4.72-10.31c-0.093-7.653,4.259-14.446,11.552-14.78
		C78.033,566.458,81.115,571.327,83.55,575.84z"/>
	<path fill="#62BB46" d="M125.697,529.452c2.782-5.025,6.019-9.631,12.503-10.32c10.283-1.096,15.662,7.895,15.699,17.007
		c0.041,10.562-9.224,14.348-15.992,18.897c-4.793,3.225-9.397,7.531-12.063,12.793c-2.883-5.366-7.501-9.799-12.793-13.084
		c-3.391-2.105-7.133-3.953-9.885-6.541c-3.097-2.912-5.456-6.486-5.523-12.065c-0.108-8.956,4.983-16.907,13.519-17.298
		C119.241,518.469,122.849,524.169,125.697,529.452z"/>
	<path fill="#62BB46" d="M65.574,624.225c1.468-2.651,3.177-5.082,6.599-5.446c5.426-0.578,8.265,4.167,8.284,8.976
		c0.021,5.573-4.868,7.571-8.439,9.973c-2.53,1.701-4.959,3.975-6.366,6.75c-1.521-2.831-3.959-5.17-6.751-6.903
		c-1.79-1.111-3.765-2.087-5.216-3.452c-1.635-1.537-2.879-3.423-2.916-6.367c-0.057-4.727,2.631-8.922,7.135-9.129
		C62.167,618.43,64.071,621.438,65.574,624.225z"/>
	<path fill="#FFFFFF" stroke="#62BB46" stroke-width="0.7193" stroke-miterlimit="10" d="M293.777,633.5
		c2.295-4.145,4.963-7.941,10.311-8.512c8.481-0.903,12.917,6.512,12.947,14.026c0.034,8.71-7.606,11.832-13.187,15.585
		c-3.955,2.658-7.752,6.211-9.95,10.549c-2.377-4.424-6.187-8.08-10.551-10.789c-2.796-1.736-5.882-3.26-8.151-5.395
		c-2.554-2.401-4.499-5.349-4.556-9.95c-0.09-7.386,4.111-13.942,11.149-14.266C288.453,624.444,291.428,629.144,293.777,633.5z"/>
	<path fill="#FFFFFF" stroke="#62BB46" stroke-width="0.403" stroke-miterlimit="10" d="M271.675,668.352
		c1.286-2.322,2.781-4.449,5.777-4.77c4.753-0.506,7.238,3.648,7.255,7.859c0.02,4.881-4.262,6.631-7.389,8.733
		c-2.217,1.489-4.344,3.479-5.575,5.911c-1.332-2.479-3.467-4.527-5.912-6.045c-1.567-0.974-3.296-1.828-4.567-3.023
		c-1.432-1.346-2.521-2.997-2.553-5.576c-0.051-4.139,2.304-7.812,6.247-7.993C268.691,663.278,270.358,665.911,271.675,668.352z"/>
</g>
<g>
	<g>
		<path fill="#52439B" d="M497.085,665.634c0-57.484,46.768-104.252,104.252-104.252s104.252,46.768,104.252,104.252
			c0,5.937-0.506,11.757-1.465,17.425h15.008c1.934-8.565,2.961-17.47,2.961-26.611c0-66.586-54.17-120.757-120.756-120.757
			s-120.756,54.171-120.756,120.757c0,9.142,1.025,18.046,2.961,26.611h15.008C497.591,677.391,497.085,671.571,497.085,665.634z"/>
		<path fill="#52439B" d="M601.337,565.039c-55.469,0-100.596,45.127-100.596,100.596c0,5.941,0.521,11.764,1.514,17.425h10.568
			c-0.572-4.075-0.875-8.235-0.875-12.466c0-49.288,40.1-89.387,89.389-89.387s89.387,40.099,89.387,89.387
			c0,4.23-0.301,8.391-0.873,12.466h10.566c0.994-5.661,1.516-11.483,1.516-17.425C701.933,610.166,656.806,565.039,601.337,565.039
			z"/>
		<path fill="#52439B" d="M527.364,678.805c0-40.789,33.184-73.973,73.973-73.973s73.973,33.184,73.973,73.973
			c0,1.429-0.051,2.845-0.131,4.254h11.498c0.592-4.072,0.912-8.231,0.912-12.466c0-47.56-38.691-86.252-86.252-86.252
			s-86.254,38.692-86.254,86.252c0,4.234,0.32,8.394,0.914,12.466h11.498C527.415,681.65,527.364,680.234,527.364,678.805z"/>
		<path fill="#52439B" d="M601.337,607.426c-39.359,0-71.379,32.021-71.379,71.379c0,1.429,0.055,2.846,0.139,4.254h12.02
			c1.764-31.14,27.646-55.935,59.221-55.935c31.572,0,57.457,24.795,59.221,55.935h12.02c0.084-1.408,0.139-2.825,0.139-4.254
			C672.716,639.447,640.694,607.426,601.337,607.426z"/>
		<path fill="#52439B" d="M601.337,643.298c22.689,0,41.273,17.516,43.004,39.761h14.131c-1.762-29.991-26.709-53.854-57.135-53.854
			s-55.375,23.863-57.135,53.854h14.131C560.062,660.814,578.647,643.298,601.337,643.298z"/>
	</g>
	
		<polygon fill="#FFFFFF" stroke="#52439B" stroke-width="1.1658" stroke-linecap="square" stroke-linejoin="bevel" stroke-miterlimit="10" points="
		567.622,550.153 571.239,561.284 582.942,561.284 573.474,568.165 577.091,579.295 567.622,572.417 558.151,579.295 
		561.769,568.165 552.3,561.284 564.005,561.284 	"/>
	
		<polygon fill="#FFFFFF" stroke="#52439B" stroke-width="1.1658" stroke-linecap="square" stroke-linejoin="bevel" stroke-miterlimit="10" points="
		647.876,596.012 651.493,607.143 663.198,607.143 653.728,614.024 657.345,625.155 647.876,618.276 638.407,625.155 
		642.024,614.024 632.554,607.143 644.259,607.143 	"/>
	
		<polygon fill="#FFFFFF" stroke="#52439B" stroke-width="1.5566" stroke-linecap="square" stroke-linejoin="bevel" stroke-miterlimit="10" points="
		690.235,637.735 695.065,652.596 710.692,652.596 698.048,661.783 702.878,676.644 690.235,667.459 677.593,676.644 
		682.421,661.783 669.778,652.596 685.405,652.596 	"/>
	
		<polygon fill="#FFFFFF" stroke="#52439B" stroke-width="1.6124" stroke-linecap="square" stroke-linejoin="bevel" stroke-miterlimit="10" points="
		514.386,617.1 519.388,632.495 535.575,632.495 522.479,642.011 527.481,657.405 514.386,647.891 501.288,657.405 506.292,642.011 
		493.194,632.495 509.382,632.495 	"/>
	<polygon fill="#52439B" points="629.62,663.836 638.427,690.935 666.923,690.935 643.868,707.687 652.675,734.786 629.62,718.039 
		606.565,734.786 615.372,707.687 592.317,690.935 620.813,690.935 	"/>
	<polygon fill="#52439B" points="567.991,704.657 571.608,715.788 583.313,715.788 573.843,722.668 577.46,733.799 567.991,726.92 
		558.521,733.799 562.138,722.668 552.669,715.788 564.374,715.788 	"/>
	<polygon fill="#52439B" points="513.438,729.134 516.313,737.983 525.618,737.983 518.091,743.452 520.966,752.299 
		513.438,746.833 505.911,752.299 508.786,743.452 501.259,737.983 510.563,737.983 	"/>
	<polygon fill="#52439B" points="723.278,510.026 728.944,527.458 747.274,527.458 732.442,538.235 738.108,555.668 
		723.278,544.895 708.446,555.668 714.11,538.235 699.282,527.458 717.614,527.458 	"/>
	<polygon fill="#52439B" points="462.485,561.977 467.163,576.377 482.306,576.377 470.054,585.278 474.733,599.678 462.485,590.78 
		450.233,599.678 454.911,585.278 442.663,576.377 457.806,576.377 	"/>
	
		<polygon fill="#FFFFFF" stroke="#52439B" stroke-width="1.5566" stroke-linecap="square" stroke-linejoin="bevel" stroke-miterlimit="10" points="
		628.292,681.241 633.122,696.102 648.749,696.102 636.104,705.289 640.935,720.15 628.292,710.965 615.649,720.15 620.478,705.289 
		607.835,696.102 623.462,696.102 	"/>
</g>
<g>
	<g>
		<path fill="#F49AC1" d="M503.273,401.695c0-57.484,46.768-104.254,104.252-104.254s104.252,46.77,104.252,104.254
			c0,5.938-0.506,11.758-1.464,17.425h15.008c1.934-8.565,2.961-17.47,2.961-26.61c0-66.586-54.171-120.763-120.757-120.763
			S486.77,325.923,486.77,392.509c0,9.141,1.026,18.045,2.961,26.61h15.008C503.779,413.453,503.273,407.632,503.273,401.695z"/>
		<path fill="#F49AC1" d="M607.525,301.099c-55.469,0-100.596,45.127-100.596,100.596c0,5.941,0.521,11.764,1.514,17.425h10.568
			c-0.572-4.075-0.874-8.235-0.874-12.466c0-49.287,40.099-89.387,89.388-89.387s89.388,40.1,89.388,89.387
			c0,4.23-0.302,8.391-0.874,12.466h10.567c0.993-5.661,1.515-11.483,1.515-17.425C708.121,346.226,662.994,301.099,607.525,301.099
			z"/>
		<path fill="#F49AC1" d="M533.553,414.867c0-40.789,33.184-73.973,73.973-73.973s73.973,33.184,73.973,73.973
			c0,1.428-0.051,2.844-0.131,4.253h11.498c0.593-4.071,0.913-8.231,0.913-12.466c0-47.56-38.692-86.252-86.253-86.252
			s-86.253,38.692-86.253,86.252c0,4.234,0.32,8.395,0.913,12.466h11.498C533.604,417.71,533.553,416.294,533.553,414.867z"/>
		<path fill="#F49AC1" d="M607.525,343.487c-39.358,0-71.379,32.021-71.379,71.38c0,1.428,0.055,2.845,0.139,4.253h12.02
			c1.764-31.14,27.647-55.935,59.221-55.935s57.457,24.795,59.221,55.935h12.02c0.084-1.408,0.139-2.825,0.139-4.253
			C678.904,375.507,646.884,343.487,607.525,343.487z"/>
		<path fill="#F49AC1" d="M607.525,379.359c22.689,0,41.274,17.516,43.004,39.761h14.131c-1.761-29.991-26.709-53.854-57.135-53.854
			s-55.374,23.863-57.135,53.854h14.131C566.251,396.875,584.836,379.359,607.525,379.359z"/>
	</g>
	<g>
		<circle fill="#FFFFFF" cx="581.217" cy="417.242" r="32.398"/>
		<g>
			<g>
				<path fill="#F49AC1" stroke="#FFFFFF" stroke-width="1.44" stroke-miterlimit="10" d="M595.312,423.076
					c6.037,0.379,12.58-1.566,18.297-5.824c5.719,4.221,10.598,10.756,13.379,18.965c-7.775,3.824-15.834,4.984-22.867,3.93
					C603.086,433.101,599.842,427.085,595.312,423.076z"/>
			</g>
			<g>
				<path fill="#F49AC1" stroke="#FFFFFF" stroke-width="1.44" stroke-miterlimit="10" d="M587.046,431.339
					c4.009,4.53,10.022,7.777,17.068,8.813c1.053,7.033-0.112,15.093-3.937,22.866c-8.209-2.783-14.742-7.664-18.961-13.386
					C585.477,443.919,587.424,437.376,587.046,431.339z"/>
			</g>
			<g>
				<path fill="#F49AC1" stroke="#FFFFFF" stroke-width="1.44" stroke-miterlimit="10" d="M575.383,431.338
					c-0.378,6.036,1.566,12.58,5.824,18.295c-4.221,5.72-10.754,10.599-18.965,13.381c-3.822-7.777-4.984-15.835-3.93-22.868
					C565.359,439.111,571.373,435.867,575.383,431.338z"/>
			</g>
			<g>
				<path fill="#F49AC1" stroke="#FFFFFF" stroke-width="1.44" stroke-miterlimit="10" d="M567.119,423.072
					c-4.529,4.008-7.777,10.021-8.814,17.067c-7.033,1.052-15.091-0.111-22.865-3.938c2.783-8.208,7.665-14.741,13.386-18.96
					C554.539,421.501,561.082,423.449,567.119,423.072z"/>
			</g>
			<g>
				<path fill="#F49AC1" stroke="#FFFFFF" stroke-width="1.44" stroke-miterlimit="10" d="M567.121,411.408
					c-6.037-0.379-12.581,1.566-18.296,5.824c-5.72-4.22-10.599-10.755-13.38-18.965c7.775-3.823,15.834-4.984,22.867-3.93
					C559.348,401.383,562.592,407.398,567.121,411.408z"/>
			</g>
			<g>
				<path fill="#F49AC1" stroke="#FFFFFF" stroke-width="1.44" stroke-miterlimit="10" d="M575.387,403.144
					c-4.008-4.53-10.021-7.776-17.067-8.813c-1.052-7.034,0.112-15.091,3.938-22.866c8.21,2.783,14.741,7.664,18.96,13.387
					C576.957,390.564,575.01,397.107,575.387,403.144z"/>
			</g>
			<g>
				<path fill="#F49AC1" stroke="#FFFFFF" stroke-width="1.44" stroke-miterlimit="10" d="M587.051,403.146
					c0.379-6.037-1.566-12.581-5.823-18.295c4.22-5.721,10.754-10.6,18.964-13.381c3.823,7.775,4.984,15.834,3.93,22.867
					C597.075,395.373,591.061,398.618,587.051,403.146z"/>
			</g>
			<g>
				<path fill="#F49AC1" stroke="#FFFFFF" stroke-width="1.44" stroke-miterlimit="10" d="M595.314,411.413
					c4.53-4.01,7.777-10.022,8.814-17.068c7.033-1.052,15.092,0.112,22.866,3.938c-2.784,8.209-7.665,14.742-13.386,18.96
					C607.895,412.982,601.352,411.036,595.314,411.413z"/>
			</g>
		</g>
	</g>
	<g>
		<circle fill="#FFFFFF" cx="716.495" cy="444.074" r="7.403"/>
		<g>
			<g>
				<path fill="#F49AC1" stroke="#FFFFFF" stroke-width="0.329" stroke-miterlimit="10" d="M719.717,445.407
					c1.379,0.087,2.874-0.358,4.18-1.33c1.307,0.964,2.422,2.456,3.058,4.333c-1.776,0.873-3.618,1.139-5.226,0.897
					C721.492,447.697,720.751,446.324,719.717,445.407z"/>
			</g>
			<g>
				<path fill="#F49AC1" stroke="#FFFFFF" stroke-width="0.329" stroke-miterlimit="10" d="M717.827,447.294
					c0.916,1.035,2.29,1.777,3.9,2.014c0.24,1.607-0.026,3.449-0.899,5.226c-1.876-0.636-3.369-1.751-4.333-3.059
					C717.469,450.169,717.914,448.674,717.827,447.294z"/>
			</g>
			<g>
				<path fill="#F49AC1" stroke="#FFFFFF" stroke-width="0.329" stroke-miterlimit="10" d="M715.162,447.294
					c-0.086,1.379,0.357,2.875,1.331,4.181c-0.964,1.307-2.458,2.421-4.333,3.058c-0.874-1.777-1.139-3.619-0.898-5.226
					C712.872,449.071,714.246,448.329,715.162,447.294z"/>
			</g>
			<g>
				<path fill="#F49AC1" stroke="#FFFFFF" stroke-width="0.329" stroke-miterlimit="10" d="M713.273,445.406
					c-1.034,0.916-1.776,2.29-2.014,3.9c-1.607,0.239-3.448-0.025-5.225-0.9c0.637-1.875,1.752-3.368,3.059-4.332
					C710.399,445.046,711.895,445.492,713.273,445.406z"/>
			</g>
			<g>
				<path fill="#F49AC1" stroke="#FFFFFF" stroke-width="0.329" stroke-miterlimit="10" d="M713.274,442.741
					c-1.38-0.087-2.874,0.357-4.181,1.331c-1.307-0.965-2.422-2.458-3.057-4.334c1.776-0.873,3.617-1.139,5.225-0.897
					C711.498,440.451,712.24,441.824,713.274,442.741z"/>
			</g>
			<g>
				<path fill="#F49AC1" stroke="#FFFFFF" stroke-width="0.329" stroke-miterlimit="10" d="M715.163,440.853
					c-0.915-1.035-2.29-1.777-3.899-2.015c-0.24-1.606,0.025-3.448,0.899-5.225c1.876,0.636,3.368,1.751,4.332,3.059
					C715.521,437.978,715.077,439.473,715.163,440.853z"/>
			</g>
			<g>
				<path fill="#F49AC1" stroke="#FFFFFF" stroke-width="0.329" stroke-miterlimit="10" d="M717.828,440.853
					c0.087-1.38-0.357-2.875-1.33-4.181c0.964-1.308,2.457-2.422,4.333-3.058c0.874,1.776,1.139,3.618,0.897,5.226
					C720.119,439.077,718.744,439.818,717.828,440.853z"/>
			</g>
			<g>
				<path fill="#F49AC1" stroke="#FFFFFF" stroke-width="0.329" stroke-miterlimit="10" d="M719.717,442.742
					c1.035-0.916,1.777-2.29,2.014-3.9c1.607-0.24,3.448,0.026,5.225,0.9c-0.636,1.876-1.751,3.368-3.059,4.332
					C722.592,443.101,721.096,442.656,719.717,442.742z"/>
			</g>
		</g>
	</g>
	<g>
		<circle fill="#FFFFFF" cx="715.162" cy="447.294" r="7.402"/>
		<g>
			<g>
				<path fill="#F49AC1" stroke="#FFFFFF" stroke-width="0.329" stroke-miterlimit="10" d="M718.383,448.627
					c1.38,0.087,2.875-0.357,4.182-1.33c1.307,0.964,2.421,2.457,3.057,4.333c-1.777,0.874-3.618,1.139-5.225,0.897
					C720.159,450.918,719.418,449.544,718.383,448.627z"/>
			</g>
			<g>
				<path fill="#F49AC1" stroke="#FFFFFF" stroke-width="0.329" stroke-miterlimit="10" d="M716.494,450.516
					c0.916,1.035,2.29,1.776,3.9,2.014c0.24,1.607-0.025,3.448-0.9,5.226c-1.875-0.637-3.368-1.752-4.332-3.059
					C716.136,453.39,716.58,451.895,716.494,450.516z"/>
			</g>
			<g>
				<path fill="#F49AC1" stroke="#FFFFFF" stroke-width="0.329" stroke-miterlimit="10" d="M713.829,450.515
					c-0.087,1.38,0.358,2.875,1.331,4.182c-0.965,1.306-2.457,2.421-4.334,3.057c-0.873-1.777-1.139-3.618-0.897-5.226
					C711.539,452.292,712.913,451.55,713.829,450.515z"/>
			</g>
			<g>
				<path fill="#F49AC1" stroke="#FFFFFF" stroke-width="0.329" stroke-miterlimit="10" d="M711.941,448.626
					c-1.035,0.916-1.777,2.291-2.014,3.9c-1.607,0.24-3.449-0.025-5.226-0.9c0.636-1.875,1.751-3.367,3.059-4.332
					C709.066,448.268,710.562,448.712,711.941,448.626z"/>
			</g>
			<g>
				<path fill="#F49AC1" stroke="#FFFFFF" stroke-width="0.329" stroke-miterlimit="10" d="M711.941,445.961
					c-1.379-0.086-2.875,0.358-4.181,1.331c-1.307-0.964-2.421-2.457-3.058-4.334c1.777-0.873,3.619-1.139,5.226-0.897
					C710.165,443.671,710.906,445.045,711.941,445.961z"/>
			</g>
			<g>
				<path fill="#F49AC1" stroke="#FFFFFF" stroke-width="0.329" stroke-miterlimit="10" d="M713.83,444.074
					c-0.916-1.035-2.29-1.777-3.9-2.014c-0.24-1.607,0.026-3.449,0.9-5.225c1.876,0.635,3.368,1.751,4.332,3.059
					C714.189,441.199,713.744,442.695,713.83,444.074z"/>
			</g>
			<g>
				<path fill="#F49AC1" stroke="#FFFFFF" stroke-width="0.329" stroke-miterlimit="10" d="M716.495,444.074
					c0.087-1.379-0.357-2.875-1.331-4.18c0.965-1.308,2.458-2.422,4.334-3.058c0.873,1.776,1.139,3.617,0.898,5.225
					C718.786,442.298,717.412,443.039,716.495,444.074z"/>
			</g>
			<g>
				<path fill="#F49AC1" stroke="#FFFFFF" stroke-width="0.329" stroke-miterlimit="10" d="M718.384,445.962
					c1.035-0.916,1.776-2.289,2.014-3.899c1.607-0.24,3.448,0.025,5.226,0.899c-0.637,1.876-1.752,3.369-3.059,4.332
					C721.258,446.322,719.764,445.876,718.384,445.962z"/>
			</g>
		</g>
	</g>
	<g>
		<circle fill="#FFFFFF" cx="547.049" cy="265.957" r="7.402"/>
		<g>
			<g>
				<path fill="#F49AC1" stroke="#FFFFFF" stroke-width="0.329" stroke-miterlimit="10" d="M550.27,267.29
					c1.38,0.087,2.875-0.357,4.182-1.33c1.307,0.964,2.421,2.457,3.057,4.333c-1.777,0.874-3.618,1.139-5.225,0.898
					C552.046,269.581,551.305,268.207,550.27,267.29z"/>
			</g>
			<g>
				<path fill="#F49AC1" stroke="#FFFFFF" stroke-width="0.329" stroke-miterlimit="10" d="M548.381,269.179
					c0.916,1.035,2.29,1.776,3.9,2.014c0.24,1.607-0.025,3.448-0.9,5.226c-1.875-0.637-3.368-1.752-4.332-3.059
					C548.022,272.053,548.467,270.559,548.381,269.179z"/>
			</g>
			<g>
				<path fill="#F49AC1" stroke="#FFFFFF" stroke-width="0.329" stroke-miterlimit="10" d="M545.716,269.178
					c-0.087,1.38,0.358,2.875,1.331,4.182c-0.965,1.306-2.457,2.421-4.334,3.057c-0.873-1.777-1.139-3.618-0.897-5.225
					C543.426,270.955,544.8,270.213,545.716,269.178z"/>
			</g>
			<g>
				<path fill="#F49AC1" stroke="#FFFFFF" stroke-width="0.329" stroke-miterlimit="10" d="M543.828,267.289
					c-1.035,0.916-1.777,2.291-2.014,3.9c-1.607,0.24-3.449-0.025-5.226-0.9c0.636-1.875,1.751-3.367,3.059-4.332
					C540.953,266.931,542.448,267.375,543.828,267.289z"/>
			</g>
			<g>
				<path fill="#F49AC1" stroke="#FFFFFF" stroke-width="0.329" stroke-miterlimit="10" d="M543.828,264.625
					c-1.379-0.087-2.875,0.357-4.181,1.33c-1.307-0.964-2.421-2.458-3.058-4.334c1.777-0.873,3.619-1.139,5.226-0.896
					C542.052,262.334,542.793,263.708,543.828,264.625z"/>
			</g>
			<g>
				<path fill="#F49AC1" stroke="#FFFFFF" stroke-width="0.329" stroke-miterlimit="10" d="M545.717,262.736
					c-0.916-1.035-2.29-1.777-3.9-2.014c-0.24-1.607,0.026-3.449,0.9-5.226c1.876,0.636,3.368,1.752,4.332,3.059
					C546.076,259.861,545.631,261.356,545.717,262.736z"/>
			</g>
			<g>
				<path fill="#F49AC1" stroke="#FFFFFF" stroke-width="0.329" stroke-miterlimit="10" d="M548.382,262.736
					c0.087-1.38-0.357-2.875-1.331-4.181c0.965-1.307,2.458-2.421,4.334-3.057c0.873,1.776,1.139,3.618,0.898,5.226
					C550.673,260.96,549.299,261.701,548.382,262.736z"/>
			</g>
			<g>
				<path fill="#F49AC1" stroke="#FFFFFF" stroke-width="0.329" stroke-miterlimit="10" d="M550.271,264.625
					c1.035-0.916,1.776-2.29,2.014-3.899c1.607-0.24,3.448,0.025,5.226,0.899c-0.637,1.876-1.752,3.368-3.059,4.332
					C553.145,264.984,551.65,264.539,550.271,264.625z"/>
			</g>
		</g>
	</g>
	<g>
		<circle fill="#FFFFFF" cx="483.886" cy="344.894" r="15.734"/>
		<g>
			<g>
				<path fill="#F49AC1" stroke="#FFFFFF" stroke-width="0.6994" stroke-miterlimit="10" d="M490.731,347.728
					c2.933,0.184,6.11-0.76,8.886-2.828c2.778,2.049,5.147,5.223,6.498,9.21c-3.775,1.857-7.689,2.421-11.105,1.909
					C494.507,352.597,492.932,349.675,490.731,347.728z"/>
			</g>
			<g>
				<path fill="#F49AC1" stroke="#FFFFFF" stroke-width="0.6994" stroke-miterlimit="10" d="M486.717,351.742
					c1.947,2.2,4.867,3.777,8.289,4.28c0.512,3.416-0.054,7.33-1.912,11.105c-3.986-1.353-7.159-3.722-9.208-6.501
					C485.955,357.851,486.9,354.673,486.717,351.742z"/>
			</g>
			<g>
				<path fill="#F49AC1" stroke="#FFFFFF" stroke-width="0.6994" stroke-miterlimit="10" d="M481.053,351.742
					c-0.184,2.932,0.76,6.109,2.828,8.885c-2.049,2.777-5.223,5.146-9.211,6.498c-1.855-3.777-2.42-7.689-1.908-11.105
					C476.184,355.516,479.105,353.94,481.053,351.742z"/>
			</g>
			<g>
				<path fill="#F49AC1" stroke="#FFFFFF" stroke-width="0.6994" stroke-miterlimit="10" d="M477.039,347.726
					c-2.199,1.947-3.777,4.867-4.28,8.289c-3.416,0.512-7.329-0.055-11.105-1.912c1.353-3.986,3.723-7.16,6.501-9.209
					C470.93,346.963,474.107,347.91,477.039,347.726z"/>
			</g>
			<g>
				<path fill="#F49AC1" stroke="#FFFFFF" stroke-width="0.6994" stroke-miterlimit="10" d="M477.04,342.061
					c-2.932-0.184-6.11,0.761-8.886,2.829c-2.777-2.05-5.146-5.223-6.498-9.211c3.776-1.856,7.689-2.42,11.105-1.908
					C473.265,337.193,474.84,340.115,477.04,342.061z"/>
			</g>
			<g>
				<path fill="#F49AC1" stroke="#FFFFFF" stroke-width="0.6994" stroke-miterlimit="10" d="M481.055,338.048
					c-1.947-2.201-4.867-3.777-8.289-4.281c-0.512-3.416,0.055-7.328,1.912-11.105c3.986,1.353,7.16,3.723,9.208,6.502
					C481.816,331.938,480.871,335.117,481.055,338.048z"/>
			</g>
			<g>
				<path fill="#F49AC1" stroke="#FFFFFF" stroke-width="0.6994" stroke-miterlimit="10" d="M486.719,338.048
					c0.184-2.932-0.76-6.109-2.828-8.885c2.05-2.777,5.223-5.147,9.211-6.498c1.856,3.775,2.42,7.689,1.908,11.105
					C491.588,334.274,488.666,335.849,486.719,338.048z"/>
			</g>
			<g>
				<path fill="#F49AC1" stroke="#FFFFFF" stroke-width="0.6994" stroke-miterlimit="10" d="M490.732,342.064
					c2.2-1.947,3.777-4.867,4.281-8.29c3.416-0.511,7.329,0.055,11.105,1.912c-1.353,3.987-3.723,7.16-6.502,9.208
					C496.843,342.827,493.665,341.88,490.732,342.064z"/>
			</g>
		</g>
	</g>
	<g>
		<circle fill="#FFFFFF" cx="675.717" cy="457.742" r="11.222"/>
		<g>
			<g>
				<path fill="#F49AC1" stroke="#FFFFFF" stroke-width="0.4988" stroke-miterlimit="10" d="M680.6,459.762
					c2.09,0.131,4.357-0.543,6.337-2.018c1.981,1.462,3.671,3.726,4.634,6.569c-2.693,1.324-5.484,1.727-7.92,1.36
					C683.291,463.234,682.168,461.152,680.6,459.762z"/>
			</g>
			<g>
				<path fill="#F49AC1" stroke="#FFFFFF" stroke-width="0.4988" stroke-miterlimit="10" d="M677.736,462.625
					c1.389,1.569,3.471,2.693,5.912,3.053c0.364,2.436-0.039,5.228-1.364,7.92c-2.843-0.964-5.106-2.654-6.567-4.637
					C677.192,466.982,677.867,464.715,677.736,462.625z"/>
			</g>
			<g>
				<path fill="#F49AC1" stroke="#FFFFFF" stroke-width="0.4988" stroke-miterlimit="10" d="M673.696,462.624
					c-0.132,2.091,0.542,4.358,2.017,6.337c-1.461,1.981-3.725,3.672-6.568,4.635c-1.324-2.693-1.727-5.484-1.361-7.921
					C670.225,465.316,672.307,464.193,673.696,462.624z"/>
			</g>
			<g>
				<path fill="#F49AC1" stroke="#FFFFFF" stroke-width="0.4988" stroke-miterlimit="10" d="M670.834,459.761
					c-1.568,1.388-2.693,3.471-3.053,5.911c-2.437,0.364-5.228-0.038-7.921-1.364c0.965-2.843,2.655-5.105,4.637-6.566
					C666.477,459.216,668.742,459.891,670.834,459.761z"/>
			</g>
			<g>
				<path fill="#F49AC1" stroke="#FFFFFF" stroke-width="0.4988" stroke-miterlimit="10" d="M670.834,455.72
					c-2.09-0.131-4.357,0.543-6.337,2.018c-1.981-1.461-3.671-3.726-4.635-6.568c2.694-1.325,5.485-1.727,7.921-1.361
					C668.143,452.249,669.266,454.332,670.834,455.72z"/>
			</g>
			<g>
				<path fill="#F49AC1" stroke="#FFFFFF" stroke-width="0.4988" stroke-miterlimit="10" d="M673.697,452.858
					c-1.389-1.569-3.471-2.693-5.911-3.052c-0.364-2.437,0.038-5.228,1.364-7.921c2.843,0.964,5.105,2.655,6.566,4.637
					C674.241,448.5,673.567,450.767,673.697,452.858z"/>
			</g>
			<g>
				<path fill="#F49AC1" stroke="#FFFFFF" stroke-width="0.4988" stroke-miterlimit="10" d="M677.737,452.859
					c0.132-2.091-0.542-4.357-2.017-6.337c1.461-1.981,3.725-3.671,6.568-4.635c1.324,2.693,1.727,5.485,1.361,7.921
					C681.21,450.167,679.127,451.291,677.737,452.859z"/>
			</g>
			<g>
				<path fill="#F49AC1" stroke="#FFFFFF" stroke-width="0.4988" stroke-miterlimit="10" d="M680.6,455.722
					c1.569-1.389,2.693-3.471,3.053-5.912c2.437-0.364,5.228,0.039,7.92,1.364c-0.963,2.843-2.654,5.106-4.636,6.567
					C684.957,456.266,682.691,455.591,680.6,455.722z"/>
			</g>
		</g>
	</g>
	<g>
		<circle fill="#FFFFFF" cx="667.601" cy="260.717" r="11.222"/>
		<g>
			<g>
				<path fill="#F49AC1" stroke="#FFFFFF" stroke-width="0.4988" stroke-miterlimit="10" d="M672.482,262.738
					c2.091,0.13,4.357-0.543,6.338-2.018c1.98,1.461,3.67,3.726,4.634,6.568c-2.693,1.325-5.484,1.727-7.921,1.361
					C675.175,266.21,674.051,264.127,672.482,262.738z"/>
			</g>
			<g>
				<path fill="#F49AC1" stroke="#FFFFFF" stroke-width="0.4988" stroke-miterlimit="10" d="M669.619,265.6
					c1.389,1.569,3.472,2.693,5.912,3.053c0.365,2.437-0.039,5.229-1.363,7.921c-2.844-0.964-5.107-2.655-6.568-4.637
					C669.076,269.957,669.75,267.691,669.619,265.6z"/>
			</g>
			<g>
				<path fill="#F49AC1" stroke="#FFFFFF" stroke-width="0.4988" stroke-miterlimit="10" d="M665.58,265.6
					c-0.132,2.091,0.541,4.357,2.017,6.337c-1.462,1.981-3.726,3.671-6.569,4.635c-1.324-2.694-1.726-5.485-1.36-7.921
					C662.107,268.292,664.19,267.168,665.58,265.6z"/>
			</g>
			<g>
				<path fill="#F49AC1" stroke="#FFFFFF" stroke-width="0.4988" stroke-miterlimit="10" d="M662.717,262.736
					c-1.568,1.389-2.693,3.471-3.053,5.911c-2.436,0.365-5.227-0.038-7.92-1.363c0.965-2.843,2.654-5.106,4.637-6.567
					C658.359,262.192,660.626,262.867,662.717,262.736z"/>
			</g>
			<g>
				<path fill="#F49AC1" stroke="#FFFFFF" stroke-width="0.4988" stroke-miterlimit="10" d="M662.718,258.696
					c-2.091-0.131-4.357,0.543-6.337,2.017c-1.981-1.461-3.672-3.725-4.635-6.568c2.693-1.324,5.484-1.727,7.921-1.361
					C660.025,255.225,661.148,257.307,662.718,258.696z"/>
			</g>
			<g>
				<path fill="#F49AC1" stroke="#FFFFFF" stroke-width="0.4988" stroke-miterlimit="10" d="M665.581,255.834
					c-1.389-1.569-3.472-2.694-5.911-3.053c-0.365-2.437,0.037-5.227,1.363-7.92c2.844,0.963,5.105,2.654,6.566,4.636
					C666.125,251.477,665.451,253.743,665.581,255.834z"/>
			</g>
			<g>
				<path fill="#F49AC1" stroke="#FFFFFF" stroke-width="0.4988" stroke-miterlimit="10" d="M669.621,255.835
					c0.131-2.092-0.543-4.358-2.018-6.338c1.462-1.98,3.725-3.671,6.568-4.634c1.324,2.692,1.727,5.484,1.361,7.92
					C673.094,253.143,671.01,254.266,669.621,255.835z"/>
			</g>
			<g>
				<path fill="#F49AC1" stroke="#FFFFFF" stroke-width="0.4988" stroke-miterlimit="10" d="M672.482,258.697
					c1.57-1.388,2.694-3.471,3.054-5.911c2.437-0.364,5.228,0.038,7.92,1.364c-0.964,2.843-2.655,5.105-4.636,6.566
					C676.84,259.242,674.574,258.567,672.482,258.697z"/>
			</g>
		</g>
	</g>
	<g>
		<circle fill="#FFFFFF" cx="495.717" cy="261.736" r="11.222"/>
		<g>
			<g>
				<path fill="#F49AC1" stroke="#FFFFFF" stroke-width="0.4988" stroke-miterlimit="10" d="M500.6,263.757
					c2.09,0.131,4.357-0.543,6.337-2.018c1.981,1.462,3.671,3.726,4.634,6.569c-2.693,1.324-5.484,1.727-7.92,1.36
					C503.291,267.229,502.168,265.146,500.6,263.757z"/>
			</g>
			<g>
				<path fill="#F49AC1" stroke="#FFFFFF" stroke-width="0.4988" stroke-miterlimit="10" d="M497.736,266.619
					c1.389,1.569,3.471,2.693,5.912,3.053c0.364,2.436-0.039,5.228-1.364,7.92c-2.843-0.964-5.106-2.654-6.567-4.637
					C497.192,270.977,497.867,268.71,497.736,266.619z"/>
			</g>
			<g>
				<path fill="#F49AC1" stroke="#FFFFFF" stroke-width="0.4988" stroke-miterlimit="10" d="M493.696,266.618
					c-0.132,2.091,0.542,4.358,2.017,6.337c-1.461,1.981-3.725,3.672-6.568,4.635c-1.324-2.693-1.727-5.484-1.361-7.921
					C490.225,269.311,492.307,268.188,493.696,266.618z"/>
			</g>
			<g>
				<path fill="#F49AC1" stroke="#FFFFFF" stroke-width="0.4988" stroke-miterlimit="10" d="M490.834,263.756
					c-1.568,1.388-2.693,3.471-3.053,5.911c-2.437,0.364-5.228-0.038-7.921-1.364c0.965-2.843,2.655-5.105,4.637-6.566
					C486.477,263.211,488.742,263.886,490.834,263.756z"/>
			</g>
			<g>
				<path fill="#F49AC1" stroke="#FFFFFF" stroke-width="0.4988" stroke-miterlimit="10" d="M490.834,259.715
					c-2.09-0.131-4.357,0.543-6.337,2.018c-1.981-1.461-3.671-3.725-4.635-6.568c2.694-1.325,5.485-1.727,7.921-1.361
					C488.143,256.243,489.266,258.326,490.834,259.715z"/>
			</g>
			<g>
				<path fill="#F49AC1" stroke="#FFFFFF" stroke-width="0.4988" stroke-miterlimit="10" d="M493.697,256.853
					c-1.389-1.569-3.471-2.693-5.911-3.052c-0.364-2.437,0.038-5.228,1.364-7.921c2.843,0.964,5.105,2.655,6.566,4.637
					C494.241,252.495,493.567,254.762,493.697,256.853z"/>
			</g>
			<g>
				<path fill="#F49AC1" stroke="#FFFFFF" stroke-width="0.4988" stroke-miterlimit="10" d="M497.737,256.854
					c0.132-2.091-0.542-4.357-2.017-6.337c1.461-1.981,3.725-3.671,6.568-4.635c1.324,2.693,1.727,5.485,1.361,7.921
					C501.21,254.161,499.127,255.285,497.737,256.854z"/>
			</g>
			<g>
				<path fill="#F49AC1" stroke="#FFFFFF" stroke-width="0.4988" stroke-miterlimit="10" d="M500.6,259.717
					c1.569-1.389,2.693-3.471,3.053-5.912c2.437-0.364,5.228,0.039,7.92,1.364c-0.963,2.843-2.654,5.106-4.636,6.567
					C504.957,260.261,502.691,259.586,500.6,259.717z"/>
			</g>
		</g>
	</g>
	<g>
		<circle fill="#F49AC1" cx="656.37" cy="374.074" r="7.403"/>
		<g>
			<g>
				<path fill="#FFFFFF" stroke="#F49AC1" stroke-width="0.329" stroke-miterlimit="10" d="M659.592,375.406
					c1.379,0.087,2.874-0.357,4.18-1.33c1.307,0.964,2.422,2.457,3.058,4.333c-1.776,0.874-3.618,1.139-5.226,0.897
					C661.367,377.697,660.626,376.323,659.592,375.406z"/>
			</g>
			<g>
				<path fill="#FFFFFF" stroke="#F49AC1" stroke-width="0.329" stroke-miterlimit="10" d="M657.702,377.294
					c0.916,1.035,2.29,1.777,3.9,2.014c0.24,1.607-0.026,3.449-0.899,5.225c-1.876-0.636-3.369-1.751-4.333-3.059
					C657.344,380.169,657.789,378.673,657.702,377.294z"/>
			</g>
			<g>
				<path fill="#FFFFFF" stroke="#F49AC1" stroke-width="0.329" stroke-miterlimit="10" d="M655.037,377.294
					c-0.086,1.379,0.357,2.874,1.331,4.18c-0.964,1.307-2.458,2.422-4.333,3.058c-0.874-1.776-1.139-3.618-0.898-5.226
					C652.747,379.07,654.121,378.329,655.037,377.294z"/>
			</g>
			<g>
				<path fill="#FFFFFF" stroke="#F49AC1" stroke-width="0.329" stroke-miterlimit="10" d="M653.148,375.406
					c-1.034,0.915-1.776,2.289-2.014,3.899c-1.607,0.24-3.448-0.025-5.225-0.899c0.637-1.876,1.752-3.369,3.059-4.332
					C650.274,375.046,651.77,375.492,653.148,375.406z"/>
			</g>
			<g>
				<path fill="#FFFFFF" stroke="#F49AC1" stroke-width="0.329" stroke-miterlimit="10" d="M653.149,372.741
					c-1.38-0.087-2.874,0.357-4.181,1.33c-1.307-0.964-2.422-2.458-3.057-4.334c1.776-0.873,3.617-1.139,5.225-0.897
					C651.373,370.45,652.115,371.824,653.149,372.741z"/>
			</g>
			<g>
				<path fill="#FFFFFF" stroke="#F49AC1" stroke-width="0.329" stroke-miterlimit="10" d="M655.038,370.852
					c-0.915-1.035-2.29-1.776-3.899-2.015c-0.24-1.606,0.025-3.447,0.899-5.225c1.876,0.636,3.368,1.752,4.332,3.059
					C655.396,367.977,654.952,369.472,655.038,370.852z"/>
			</g>
			<g>
				<path fill="#FFFFFF" stroke="#F49AC1" stroke-width="0.329" stroke-miterlimit="10" d="M657.703,370.852
					c0.087-1.38-0.357-2.874-1.33-4.181c0.964-1.307,2.457-2.422,4.333-3.057c0.874,1.776,1.139,3.617,0.897,5.225
					C659.994,369.077,658.619,369.818,657.703,370.852z"/>
			</g>
			<g>
				<path fill="#FFFFFF" stroke="#F49AC1" stroke-width="0.329" stroke-miterlimit="10" d="M659.592,372.742
					c1.035-0.916,1.777-2.29,2.014-3.9c1.607-0.24,3.448,0.025,5.225,0.899c-0.636,1.876-1.751,3.368-3.059,4.333
					C662.467,373.1,660.971,372.656,659.592,372.742z"/>
			</g>
		</g>
	</g>
	<g>
		<circle fill="#F49AC1" cx="683.717" cy="341.742" r="15.734"/>
		<g>
			<g>
				<path fill="#FFFFFF" stroke="#F49AC1" stroke-width="0.6994" stroke-miterlimit="10" d="M690.562,344.575
					c2.932,0.185,6.11-0.761,8.887-2.828c2.777,2.049,5.146,5.223,6.497,9.21c-3.776,1.857-7.689,2.421-11.105,1.909
					C694.338,349.443,692.762,346.523,690.562,344.575z"/>
			</g>
			<g>
				<path fill="#FFFFFF" stroke="#F49AC1" stroke-width="0.6994" stroke-miterlimit="10" d="M686.548,348.588
					c1.947,2.2,4.868,3.777,8.29,4.28c0.511,3.416-0.055,7.33-1.912,11.105c-3.987-1.352-7.16-3.723-9.209-6.502
					C685.786,354.698,686.731,351.52,686.548,348.588z"/>
			</g>
			<g>
				<path fill="#FFFFFF" stroke="#F49AC1" stroke-width="0.6994" stroke-miterlimit="10" d="M680.884,348.587
					c-0.184,2.932,0.761,6.109,2.828,8.885c-2.05,2.779-5.223,5.147-9.21,6.5c-1.857-3.777-2.421-7.691-1.908-11.106
					C676.016,352.363,678.936,350.787,680.884,348.587z"/>
			</g>
			<g>
				<path fill="#FFFFFF" stroke="#F49AC1" stroke-width="0.6994" stroke-miterlimit="10" d="M676.87,344.573
					c-2.2,1.946-3.776,4.867-4.28,8.289c-3.416,0.511-7.33-0.055-11.105-1.912c1.352-3.987,3.723-7.159,6.501-9.208
					C670.761,343.81,673.938,344.755,676.87,344.573z"/>
			</g>
			<g>
				<path fill="#FFFFFF" stroke="#F49AC1" stroke-width="0.6994" stroke-miterlimit="10" d="M676.871,338.908
					c-2.932-0.184-6.11,0.762-8.886,2.829c-2.778-2.05-5.147-5.224-6.498-9.21c3.776-1.857,7.69-2.422,11.106-1.908
					C673.096,334.04,674.672,336.96,676.871,338.908z"/>
			</g>
			<g>
				<path fill="#FFFFFF" stroke="#F49AC1" stroke-width="0.6994" stroke-miterlimit="10" d="M680.886,334.894
					c-1.946-2.199-4.867-3.775-8.289-4.279c-0.511-3.416,0.054-7.329,1.912-11.105c3.987,1.352,7.159,3.723,9.208,6.501
					C681.648,328.785,680.703,331.962,680.886,334.894z"/>
			</g>
			<g>
				<path fill="#FFFFFF" stroke="#F49AC1" stroke-width="0.6994" stroke-miterlimit="10" d="M686.551,334.895
					c0.184-2.931-0.761-6.109-2.828-8.885c2.049-2.778,5.223-5.147,9.209-6.499c1.857,3.777,2.422,7.691,1.909,11.107
					C691.419,331.121,688.498,332.697,686.551,334.895z"/>
			</g>
			<g>
				<path fill="#FFFFFF" stroke="#F49AC1" stroke-width="0.6994" stroke-miterlimit="10" d="M690.564,338.911
					c2.199-1.947,3.776-4.868,4.28-8.29c3.415-0.51,7.329,0.055,11.104,1.912c-1.352,3.987-3.723,7.16-6.5,9.209
					C696.674,339.673,693.496,338.728,690.564,338.911z"/>
			</g>
		</g>
	</g>
	<g>
		<circle fill="#F49AC1" cx="680.37" cy="382.074" r="11.222"/>
		<g>
			<g>
				<path fill="#FFFFFF" stroke="#F49AC1" stroke-width="0.4988" stroke-miterlimit="10" d="M685.252,384.094
					c2.092,0.131,4.357-0.542,6.338-2.017c1.981,1.461,3.671,3.725,4.635,6.567c-2.693,1.325-5.484,1.728-7.921,1.362
					C687.945,387.566,686.821,385.483,685.252,384.094z"/>
			</g>
			<g>
				<path fill="#FFFFFF" stroke="#F49AC1" stroke-width="0.4988" stroke-miterlimit="10" d="M682.389,386.957
					c1.389,1.569,3.473,2.693,5.912,3.053c0.365,2.436-0.039,5.228-1.363,7.92c-2.844-0.964-5.106-2.654-6.567-4.637
					C681.846,391.314,682.52,389.047,682.389,386.957z"/>
			</g>
			<g>
				<path fill="#FFFFFF" stroke="#F49AC1" stroke-width="0.4988" stroke-miterlimit="10" d="M678.35,386.957
					c-0.131,2.09,0.542,4.357,2.018,6.336c-1.463,1.981-3.726,3.672-6.569,4.635c-1.324-2.693-1.726-5.484-1.36-7.92
					C674.877,389.648,676.961,388.524,678.35,386.957z"/>
			</g>
			<g>
				<path fill="#FFFFFF" stroke="#F49AC1" stroke-width="0.4988" stroke-miterlimit="10" d="M675.486,384.093
					c-1.568,1.388-2.693,3.471-3.053,5.911c-2.436,0.365-5.227-0.039-7.92-1.364c0.965-2.843,2.655-5.105,4.637-6.566
					C671.13,383.548,673.396,384.223,675.486,384.093z"/>
			</g>
			<g>
				<path fill="#FFFFFF" stroke="#F49AC1" stroke-width="0.4988" stroke-miterlimit="10" d="M675.488,380.052
					c-2.092-0.131-4.357,0.543-6.338,2.018c-1.98-1.462-3.671-3.726-4.635-6.568c2.693-1.324,5.484-1.728,7.922-1.361
					C672.795,376.581,673.919,378.664,675.488,380.052z"/>
			</g>
			<g>
				<path fill="#FFFFFF" stroke="#F49AC1" stroke-width="0.4988" stroke-miterlimit="10" d="M678.352,377.19
					c-1.389-1.569-3.472-2.693-5.912-3.052c-0.364-2.437,0.038-5.228,1.363-7.921c2.844,0.964,5.106,2.655,6.567,4.637
					C678.895,372.833,678.221,375.099,678.352,377.19z"/>
			</g>
			<g>
				<path fill="#FFFFFF" stroke="#F49AC1" stroke-width="0.4988" stroke-miterlimit="10" d="M682.391,377.191
					c0.131-2.091-0.542-4.357-2.017-6.337c1.462-1.981,3.725-3.671,6.567-4.635c1.325,2.693,1.728,5.484,1.362,7.921
					C685.863,374.499,683.779,375.623,682.391,377.191z"/>
			</g>
			<g>
				<path fill="#FFFFFF" stroke="#F49AC1" stroke-width="0.4988" stroke-miterlimit="10" d="M685.253,380.054
					c1.569-1.389,2.694-3.472,3.054-5.912c2.436-0.364,5.227,0.039,7.92,1.364c-0.965,2.843-2.655,5.106-4.637,6.567
					C689.61,380.598,687.345,379.923,685.253,380.054z"/>
			</g>
		</g>
	</g>
	<g>
		<circle fill="#F49AC1" cx="556.121" cy="326.046" r="11.222"/>
		<g>
			<g>
				<path fill="#FFFFFF" stroke="#F49AC1" stroke-width="0.4988" stroke-miterlimit="10" d="M561.004,328.068
					c2.09,0.131,4.357-0.543,6.337-2.018c1.981,1.461,3.671,3.725,4.634,6.568c-2.693,1.324-5.484,1.727-7.92,1.361
					C563.695,331.54,562.572,329.457,561.004,328.068z"/>
			</g>
			<g>
				<path fill="#FFFFFF" stroke="#F49AC1" stroke-width="0.4988" stroke-miterlimit="10" d="M558.141,330.929
					c1.389,1.569,3.471,2.693,5.912,3.053c0.364,2.437-0.039,5.229-1.364,7.921c-2.843-0.964-5.106-2.655-6.567-4.637
					C557.597,335.287,558.271,333.02,558.141,330.929z"/>
			</g>
			<g>
				<path fill="#FFFFFF" stroke="#F49AC1" stroke-width="0.4988" stroke-miterlimit="10" d="M554.101,330.929
					c-0.132,2.091,0.542,4.357,2.017,6.337c-1.461,1.981-3.725,3.671-6.568,4.635c-1.324-2.694-1.727-5.485-1.361-7.921
					C550.629,333.622,552.711,332.498,554.101,330.929z"/>
			</g>
			<g>
				<path fill="#FFFFFF" stroke="#F49AC1" stroke-width="0.4988" stroke-miterlimit="10" d="M551.238,328.066
					c-1.568,1.388-2.693,3.471-3.053,5.912c-2.437,0.364-5.228-0.039-7.921-1.364c0.965-2.844,2.655-5.106,4.637-6.567
					C546.881,327.522,549.146,328.197,551.238,328.066z"/>
			</g>
			<g>
				<path fill="#FFFFFF" stroke="#F49AC1" stroke-width="0.4988" stroke-miterlimit="10" d="M551.238,324.026
					c-2.09-0.131-4.357,0.542-6.337,2.017c-1.981-1.461-3.671-3.725-4.635-6.568c2.694-1.324,5.485-1.727,7.921-1.361
					C548.547,320.553,549.67,322.636,551.238,324.026z"/>
			</g>
			<g>
				<path fill="#FFFFFF" stroke="#F49AC1" stroke-width="0.4988" stroke-miterlimit="10" d="M554.102,321.164
					c-1.389-1.569-3.471-2.694-5.911-3.053c-0.364-2.437,0.038-5.227,1.364-7.921c2.843,0.964,5.105,2.655,6.566,4.638
					C554.646,316.806,553.972,319.073,554.102,321.164z"/>
			</g>
			<g>
				<path fill="#FFFFFF" stroke="#F49AC1" stroke-width="0.4988" stroke-miterlimit="10" d="M558.142,321.165
					c0.132-2.091-0.542-4.358-2.017-6.337c1.461-1.981,3.725-3.672,6.568-4.635c1.324,2.693,1.727,5.484,1.361,7.92
					C561.614,318.472,559.531,319.595,558.142,321.165z"/>
			</g>
			<g>
				<path fill="#FFFFFF" stroke="#F49AC1" stroke-width="0.4988" stroke-miterlimit="10" d="M561.004,324.027
					c1.569-1.388,2.693-3.471,3.053-5.911c2.437-0.364,5.228,0.038,7.92,1.364c-0.963,2.843-2.654,5.105-4.636,6.566
					C565.361,324.572,563.096,323.897,561.004,324.027z"/>
			</g>
		</g>
	</g>
</g>
<g>
	<g>
		<path fill="#0099D8" d="M500.698,150.059c0-57.484,46.767-104.252,104.252-104.252c57.484,0,104.252,46.768,104.252,104.252
			c0,5.938-0.507,11.758-1.465,17.426h15.008c1.934-8.566,2.962-17.471,2.962-26.611c0-66.586-54.172-120.758-120.757-120.758
			c-66.586,0-120.757,54.172-120.757,120.758c0,9.141,1.026,18.045,2.961,26.611h15.008
			C501.204,161.817,500.698,155.997,500.698,150.059z"/>
		<path fill="#0099D8" d="M604.95,49.463c-55.469,0-100.596,45.127-100.596,100.596c0,5.941,0.521,11.764,1.514,17.426h10.567
			c-0.571-4.076-0.874-8.236-0.874-12.467c0-49.287,40.1-89.387,89.389-89.387c49.288,0,89.387,40.1,89.387,89.387
			c0,4.23-0.302,8.391-0.873,12.467h10.566c0.993-5.662,1.515-11.484,1.515-17.426C705.545,94.59,660.419,49.463,604.95,49.463z"/>
		<path fill="#0099D8" d="M530.977,163.231c0-40.789,33.185-73.973,73.974-73.973c40.788,0,73.973,33.184,73.973,73.973
			c0,1.428-0.051,2.844-0.131,4.254h11.498c0.592-4.072,0.913-8.232,0.913-12.467c0-47.559-38.693-86.252-86.253-86.252
			c-47.561,0-86.254,38.693-86.254,86.252c0,4.234,0.32,8.395,0.913,12.467h11.498C531.027,166.075,530.977,164.659,530.977,163.231
			z"/>
		<path fill="#0099D8" d="M604.95,91.852c-39.359,0-71.379,32.02-71.379,71.379c0,1.428,0.055,2.846,0.138,4.254h12.021
			c1.764-31.141,27.646-55.936,59.221-55.936c31.572,0,57.457,24.795,59.22,55.936h12.021c0.083-1.408,0.138-2.826,0.138-4.254
			C676.328,123.872,644.308,91.852,604.95,91.852z"/>
		<path fill="#0099D8" d="M604.95,127.723c22.689,0,41.273,17.516,43.004,39.762h14.131c-1.762-29.992-26.709-53.855-57.135-53.855
			s-55.375,23.863-57.135,53.855h14.13C563.675,145.239,582.261,127.723,604.95,127.723z"/>
	</g>
	<path fill="#FFFFFF" stroke="#0099D8" stroke-width="4.0113" stroke-miterlimit="10" d="M580.769,157.459
		c-5.713,0-10.638,3.846-12.996,9.416c-3.078-8.357-10.229-14.216-18.56-14.216c-4.573,0-8.79,1.768-12.173,4.743
		c-1.771-13.554-11.857-23.941-24.037-23.941c-10.74,0-19.848,8.08-23.064,19.281c-3.396-2.337-7.359-3.683-11.595-3.683
		c-12.57,0-22.761,11.818-22.761,26.397s10.19,26.398,22.761,26.398c9.627,0,21.179,0,21.179,0h13.48h16.723h19.487h19.247
		c0,0,7.104,0,12.309,0c7.999,0,14.483-18.32,14.483-27.598S588.768,157.459,580.769,157.459z"/>
	<path fill="#FFFFFF" stroke="#0099D8" stroke-width="4.0113" stroke-miterlimit="10" d="M533.708,23.188
		c-4.526,0-8.43,3.047-10.3,7.461c-2.438-6.623-8.106-11.267-14.711-11.267c-3.624,0-6.965,1.401-9.646,3.759
		c-1.402-10.742-9.397-18.975-19.052-18.975c-8.512,0-15.73,6.404-18.28,15.282c-2.692-1.853-5.831-2.919-9.188-2.919
		c-9.963,0-18.04,9.367-18.04,20.922s8.077,20.922,18.04,20.922c7.629,0,16.785,0,16.785,0h10.684h13.255h15.443h15.256
		c0,0,5.63,0,9.755,0c6.34,0,11.48-14.52,11.48-21.873C545.188,29.149,540.048,23.188,533.708,23.188z"/>
	<path fill="#FFFFFF" stroke="#0099D8" stroke-width="4.0113" stroke-miterlimit="10" d="M750.004,141.475
		c0.472-1.519,0.727-3.133,0.727-4.807c0-5.957-3.22-11.155-8.01-13.956c0.044-0.479,0.069-0.963,0.069-1.454
		c0-8.922-7.224-16.153-16.132-16.153c-5.921,0-11.094,3.198-13.899,7.96c-4.841,0.074-9.163,2.281-12.071,5.728
		c-1.296-0.336-2.655-0.515-4.056-0.515c-3.077,0-5.952,0.862-8.399,2.359c-2.958-3.424-7.323-5.592-12.199-5.592
		c-8.907,0-16.13,7.232-16.13,16.154c0,0.82,0.062,1.625,0.18,2.412c-5.923,2.391-10.105,8.197-10.105,14.985
		c0,8.922,7.223,16.153,16.131,16.153c4.996,0,9.461-2.275,12.42-5.848c1.235,0.855,2.596,1.543,4.049,2.029
		c2.141,6.406,8.177,11.025,15.295,11.025c6.387,0,11.904-3.717,14.52-9.109c1.67,0.586,3.463,0.908,5.333,0.908
		c2.793,0,5.419-0.711,7.71-1.961c2.81,4.744,7.973,7.926,13.88,7.926c8.909,0,16.131-7.232,16.131-16.154
		C755.445,148.753,753.34,144.434,750.004,141.475z"/>
	<path fill="#FFFFFF" stroke="#0099D8" stroke-width="4.0113" stroke-miterlimit="10" d="M650.296,153.776
		c3.686,0,6.862,2.479,8.383,6.072c1.986-5.391,6.599-9.17,11.974-9.17c2.949,0,5.669,1.141,7.852,3.061
		c1.142-8.744,7.648-15.444,15.506-15.444c6.928,0,12.803,5.212,14.878,12.438c2.191-1.508,4.746-2.376,7.479-2.376
		c8.108,0,14.683,7.624,14.683,17.028s-6.574,17.027-14.683,17.027c-6.209,0-13.661,0-13.661,0h-8.695h-10.788h-12.569h-12.417
		c0,0-4.582,0-7.939,0c-5.159,0-9.342-11.816-9.342-17.801S645.137,153.776,650.296,153.776z"/>
	<path fill="#FFFFFF" stroke="#0099D8" stroke-width="4.0113" stroke-miterlimit="10" d="M564.53,57.752
		c0-9.999-8.191-18.106-18.296-18.106c-4.312,0-8.271,1.479-11.398,3.948c-3.356-4.039-8.444-6.616-14.141-6.616
		c-5.296,0-10.063,2.229-13.405,5.788c-3.742-1.733-8.16-2.738-12.896-2.738c-4.994,0-9.638,1.116-13.506,3.028
		c-2.633-1.903-5.867-3.028-9.365-3.028c-7.109,0-13.135,4.637-15.223,11.051c-5.371,3.321-8.791,8.322-8.791,13.916
		c0,7.126,5.549,13.288,13.613,16.242c3.834,6.269,12.337,10.631,22.218,10.631c4.866,0,9.395-1.061,13.2-2.883
		c3.207,2.744,7.385,4.408,11.957,4.408c3.503,0,6.774-0.976,9.556-2.665c4.229,2.615,9.668,4.189,15.603,4.189
		c13.473,0,24.396-8.105,24.396-18.106c0-1.591-0.279-3.134-0.799-4.604C561.673,68.902,564.53,63.658,564.53,57.752z"/>
</g>
<g>
	<g>
		<path fill="#EC008C" d="M84.374,391.268c0-57.484,46.767-104.257,104.252-104.257c57.484,0,104.252,46.773,104.252,104.257
			c0,5.938-0.507,11.758-1.465,17.426h15.008c1.934-8.566,2.962-17.471,2.962-26.611c0-66.586-54.172-120.763-120.757-120.763
			c-66.586,0-120.757,54.177-120.757,120.763c0,9.141,1.026,18.045,2.961,26.611h15.008
			C84.879,403.026,84.374,397.206,84.374,391.268z"/>
		<path fill="#EC008C" d="M188.625,290.667c-55.469,0-100.596,45.132-100.596,100.601c0,5.941,0.521,11.764,1.514,17.426h10.567
			c-0.571-4.076-0.874-8.236-0.874-12.467c0-49.287,40.1-89.387,89.389-89.387c49.288,0,89.387,40.1,89.387,89.387
			c0,4.23-0.302,8.391-0.873,12.467h10.566c0.993-5.662,1.515-11.484,1.515-17.426C289.22,335.799,244.094,290.667,188.625,290.667z
			"/>
		<path fill="#EC008C" d="M114.652,404.44c0-40.789,33.185-73.973,73.974-73.973c40.788,0,73.973,33.184,73.973,73.973
			c0,1.428-0.051,2.844-0.131,4.254h11.498c0.592-4.072,0.913-8.232,0.913-12.467c0-47.559-38.693-86.252-86.253-86.252
			c-47.561,0-86.254,38.693-86.254,86.252c0,4.234,0.32,8.395,0.913,12.467h11.498C114.703,407.284,114.652,405.868,114.652,404.44z
			"/>
		<path fill="#EC008C" d="M188.625,333.061c-39.359,0-71.379,32.02-71.379,71.379c0,1.428,0.055,2.846,0.138,4.254h12.021
			c1.764-31.141,27.646-55.936,59.221-55.936c31.572,0,57.457,24.795,59.22,55.936h12.021c0.083-1.408,0.138-2.826,0.138-4.254
			C260.003,365.081,227.983,333.061,188.625,333.061z"/>
		<path fill="#EC008C" d="M188.625,368.932c22.689,0,41.273,17.516,43.004,39.762h14.131c-1.762-29.992-26.709-53.855-57.135-53.855
			s-55.375,23.863-57.135,53.855h14.13C147.35,386.448,165.936,368.932,188.625,368.932z"/>
	</g>
	<g>
		<g>
			<path fill="#EC008C" d="M130.759,374.128c-9.712,0-17.613-7.901-17.613-17.613s7.901-17.613,17.613-17.613
				s17.613,7.901,17.613,17.613S140.471,374.128,130.759,374.128z"/>
			<path fill="#FFFFFF" d="M130.759,340.402c8.898,0,16.113,7.215,16.113,16.113c0,8.899-7.215,16.113-16.113,16.113
				c-8.899,0-16.113-7.214-16.113-16.113C114.646,347.617,121.86,340.402,130.759,340.402 M130.759,337.402
				c-10.539,0-19.113,8.574-19.113,19.113s8.574,19.113,19.113,19.113s19.113-8.574,19.113-19.113S141.298,337.402,130.759,337.402
				L130.759,337.402z"/>
		</g>
		<g>
			<path fill="#EC008C" d="M24.759,360.128c-11.917,0-21.613-9.695-21.613-21.613c0-11.917,9.696-21.612,21.613-21.612
				s21.613,9.695,21.613,21.612C46.373,350.433,36.677,360.128,24.759,360.128z"/>
			<path fill="#FFFFFF" d="M24.759,318.403c11.107,0,20.113,9.005,20.113,20.112c0,11.108-9.006,20.113-20.113,20.113
				c-11.108,0-20.113-9.005-20.113-20.113C4.646,327.408,13.651,318.403,24.759,318.403 M24.759,315.403
				c-12.745,0-23.113,10.367-23.113,23.112s10.369,23.113,23.113,23.113s23.113-10.368,23.113-23.113S37.504,315.403,24.759,315.403
				L24.759,315.403z"/>
		</g>
		<g>
			<path fill="#EC008C" d="M93.162,485.131c-3.196,0-5.797-2.601-5.797-5.797v-51.959c-4.239-2.753-7.541-6.705-9.49-11.332
				c-1.656,1.267-3.468,2.289-5.414,3.055v11.538c0,2.012-1.637,3.648-3.648,3.648s-3.648-1.637-3.648-3.648v-9.981
				c-0.339,0.016-0.673,0.023-1.006,0.023c-1.051,0-2.106-0.075-3.155-0.223v20.564c0,2.999-2.44,5.439-5.439,5.439
				s-5.438-2.44-5.438-5.439v-25.222c-5.395-4.275-8.594-10.853-8.594-17.746c0-12.477,10.15-22.627,22.626-22.627
				c0.616,0,1.233,0.025,1.848,0.074c1.053-9.399,8.915-16.545,18.562-16.545c10.304,0,18.688,8.383,18.688,18.688
				c0,1.206-0.116,2.405-0.345,3.583c6.386,0.472,12.26,3.313,16.588,8.013c4.402-6.358,11.693-10.231,19.496-10.231
				c5.198,0,10.139,1.661,14.218,4.734c-0.452-1.748-0.679-3.549-0.679-5.383c0-11.884,9.668-21.552,21.552-21.552
				s21.552,9.668,21.552,21.552c0,3.625-0.909,7.171-2.639,10.332c6.7,6.061,10.517,14.62,10.517,23.685
				c0,17.61-14.327,31.937-31.937,31.937c-12.357,0-23.546-7.105-28.835-18.202c-1.241,0.198-2.498,0.298-3.749,0.298
				c-6.258,0-12.21-2.463-16.631-6.821c-4.576,7.35-12.567,11.835-21.324,11.835c-0.693,0-1.388-0.028-2.081-0.086v48
				C98.958,482.531,96.358,485.131,93.162,485.131z"/>
			<path fill="#FFFFFF" d="M174.085,358.306c11.074,0,20.052,8.978,20.052,20.052c0,3.913-1.125,7.562-3.062,10.647
				c6.685,5.584,10.94,13.979,10.94,23.369c0,16.81-13.627,30.437-30.437,30.437c-12.529,0-23.286-7.574-27.954-18.391
				c-1.493,0.316-3.042,0.486-4.63,0.486c-6.784,0-12.854-3.047-16.926-7.842c-3.919,7.631-11.861,12.855-21.03,12.855
				c-1.217,0-2.413-0.093-3.581-0.271v49.685c0,2.373-1.924,4.297-4.297,4.297s-4.297-1.924-4.297-4.297v-52.79
				c-4.85-2.921-8.562-7.534-10.326-13.022c-2.155,2.004-4.73,3.561-7.578,4.529v12.585c0,1.187-0.962,2.148-2.148,2.148
				s-2.148-0.962-2.148-2.148v-11.611c-0.823,0.097-1.658,0.153-2.506,0.153c-1.601,0-3.157-0.184-4.655-0.521v22.363
				c0,2.176-1.763,3.939-3.939,3.939c-2.175,0-3.938-1.764-3.938-3.939v-25.963c-5.212-3.848-8.594-10.03-8.594-17.005
				c0-11.668,9.458-21.127,21.126-21.127c1.1,0,2.18,0.084,3.234,0.246c0.25-9.273,7.841-16.717,17.175-16.717
				c9.492,0,17.188,7.695,17.188,17.188c0,1.744-0.262,3.427-0.745,5.014c0.01,0,0.019-0.001,0.029-0.001
				c7.577,0,14.315,3.569,18.64,9.113c3.815-6.723,11.033-11.262,19.315-11.262c6.145,0,11.705,2.497,15.725,6.53
				c0.328-0.219,0.659-0.434,0.996-0.64c-1.079-2.462-1.682-5.179-1.682-8.039C154.034,367.284,163.011,358.306,174.085,358.306
				 M174.085,355.306c-12.711,0-23.052,10.341-23.052,23.052c0,0.758,0.037,1.511,0.109,2.257c-3.678-2.03-7.83-3.108-12.148-3.108
				c-7.689,0-14.911,3.536-19.652,9.436c-4.052-3.852-9.171-6.306-14.712-7.048c0.083-0.746,0.125-1.498,0.125-2.252
				c0-11.132-9.056-20.188-20.188-20.188c-9.938,0-18.122,7.02-19.847,16.478c-0.188-0.005-0.375-0.007-0.562-0.007
				c-13.303,0-24.126,10.823-24.126,24.127c0,7.105,3.187,13.895,8.594,18.456v24.512c0,3.826,3.113,6.939,6.938,6.939
				c3.826,0,6.939-3.113,6.939-6.939v-18.899c0.387,0.027,0.774,0.044,1.162,0.053v8.463c0,2.839,2.31,5.148,5.148,5.148
				s5.148-2.31,5.148-5.148v-10.54c1.151-0.511,2.255-1.108,3.308-1.792c1.992,3.938,4.941,7.335,8.595,9.87v51.16
				c0,4.023,3.273,7.297,7.297,7.297s7.297-3.273,7.297-7.297v-46.42c0.194,0.004,0.387,0.006,0.581,0.006
				c8.672,0,16.635-4.15,21.598-11.05c4.532,3.873,10.311,6.036,16.358,6.036c0.962,0,1.926-0.056,2.885-0.166
				c5.717,11.052,17.13,18.07,29.699,18.07c18.437,0,33.437-15,33.437-33.437c0-9.102-3.676-17.719-10.166-24.005
				c1.502-3.111,2.288-6.527,2.288-10.012C197.137,365.647,186.796,355.306,174.085,355.306L174.085,355.306z"/>
		</g>
	</g>
	<g>
		<path fill="#EC008C" stroke="#FFFFFF" stroke-width="3" stroke-miterlimit="10" d="M335.383,362.89
			c0.33-1.199,0.509-2.459,0.509-3.762c0-7.821-6.34-14.162-14.161-14.162c-6.113,0-11.322,3.875-13.305,9.302
			c-2.596-1.89-5.791-3.007-9.248-3.007c-8.689,0-15.733,7.044-15.733,15.734c0,8.689,7.044,15.733,15.733,15.733
			c1.844,0,3.611-0.319,5.255-0.901c-0.002,0.125-0.009,0.25-0.009,0.377c0,10.988,8.242,20.045,18.881,21.339v24.291
			c0,2.896,2.348,5.244,5.244,5.244s5.245-2.348,5.245-5.244v-25.618c7.983-3.141,13.636-10.914,13.636-20.012
			C347.43,373.722,342.517,366.39,335.383,362.89z"/>
		<circle fill="#EC008C" stroke="#FFFFFF" stroke-width="3" stroke-miterlimit="10" cx="276.102" cy="341.82" r="10.49"/>
		<circle fill="#EC008C" stroke="#FFFFFF" stroke-width="3" stroke-miterlimit="10" cx="361.591" cy="358.079" r="13.112"/>
		<circle fill="#EC008C" stroke="#FFFFFF" stroke-width="3" stroke-miterlimit="10" cx="35.591" cy="278.073" r="13.112"/>
		<circle fill="#EC008C" stroke="#FFFFFF" stroke-width="3" stroke-miterlimit="10" cx="370.507" cy="396.366" r="6.294"/>
		<path fill="#EC008C" stroke="#FFFFFF" stroke-width="3" stroke-miterlimit="10" d="M282.395,395.316
			c-1.399,0-2.756,0.186-4.049,0.529c0.586-2.176,0.902-4.462,0.902-6.822c0-14.482-11.74-26.224-26.224-26.224
			s-26.224,11.741-26.224,26.224c0,7.35,3.027,13.989,7.898,18.75c-1.595,1.026-2.654,2.813-2.654,4.852v14.685
			c0,3.188,2.584,5.77,5.77,5.77c3.187,0,5.77-2.582,5.77-5.77v-13.82c2.93,1.131,6.111,1.758,9.44,1.758
			c0.706,0,1.405-0.031,2.099-0.086v28.932c0,2.028,1.643,3.672,3.671,3.672c2.027,0,3.671-1.644,3.671-3.672v-30.419
			c0-0.061-0.006-0.119-0.009-0.179c1.473-0.568,2.884-1.262,4.214-2.075c0.197,8.519,7.159,15.366,15.725,15.366
			c8.69,0,15.734-7.045,15.734-15.734C298.129,402.361,291.085,395.316,282.395,395.316z"/>
	</g>
	<circle fill="#FFFFFF" stroke="#EC008C" stroke-width="3" stroke-miterlimit="10" cx="160.325" cy="295.354" r="16.931"/>
	<path fill="#FFFFFF" stroke="#EC008C" stroke-width="3" stroke-miterlimit="10" d="M137.394,302.426c0,6.627-5.372,12-12,12
		c-6.627,0-11.999-5.373-11.999-12c0-6.632,5.372-12.004,11.999-12.004C132.021,290.422,137.394,295.794,137.394,302.426z"/>
	<circle fill="#FFFFFF" stroke="#EC008C" stroke-width="3" stroke-miterlimit="10" cx="70.802" cy="304.331" r="11.999"/>
	<circle fill="#FFFFFF" stroke="#EC008C" stroke-width="3" stroke-miterlimit="10" cx="302.802" cy="444.331" r="14.25"/>
	<circle fill="#EC008C" stroke="#FFFFFF" stroke-width="3" stroke-miterlimit="10" cx="268.801" cy="266.326" r="31.498"/>
	<circle fill="#FFFFFF" stroke="#EC008C" stroke-width="3" stroke-miterlimit="10" cx="268.801" cy="266.325" r="15"/>
</g>
</svg>
