<?xml version="1.0" encoding="UTF-8" standalone="no"?>
<!-- Created with Inkscape (http://www.inkscape.org/) -->

<svg
   xmlns:dc="http://purl.org/dc/elements/1.1/"
   xmlns:cc="http://creativecommons.org/ns#"
   xmlns:rdf="http://www.w3.org/1999/02/22-rdf-syntax-ns#"
   xmlns:svg="http://www.w3.org/2000/svg"
   xmlns="http://www.w3.org/2000/svg"
   xmlns:sodipodi="http://sodipodi.sourceforge.net/DTD/sodipodi-0.dtd"
   xmlns:inkscape="http://www.inkscape.org/namespaces/inkscape"
   width="427.11423"
   height="424.45221"
   id="svg3003"
   version="1.1"
   inkscape:version="0.48.1 "
   sodipodi:docname="1307773731[1].svg">
  <defs
     id="defs3" />
  <sodipodi:namedview
     inkscape:document-units="mm"
     id="base"
     pagecolor="#ffffff"
     bordercolor="#666666"
     borderopacity="1.0"
     inkscape:pageopacity="0.0"
     inkscape:pageshadow="2"
     inkscape:zoom="0.87698619"
     inkscape:cx="156.91071"
     inkscape:cy="209.87252"
     inkscape:current-layer="layer1"
     showgrid="false"
     units="mm"
     fit-margin-top="0"
     fit-margin-left="0"
     fit-margin-right="0"
     fit-margin-bottom="0"
     inkscape:window-width="1024"
     inkscape:window-height="551"
     inkscape:window-x="-4"
     inkscape:window-y="-4"
     inkscape:window-maximized="1" />
  <metadata
     id="metadata4">
    <rdf:RDF>
      <cc:Work
         rdf:about="">
        <dc:format>image/svg+xml</dc:format>
        <dc:type
           rdf:resource="http://purl.org/dc/dcmitype/StillImage" />
        <dc:title></dc:title>
      </cc:Work>
    </rdf:RDF>
  </metadata>
  <g
     inkscape:label="Layer 1"
     inkscape:groupmode="layer"
     id="layer1"
     transform="translate(-102.15614,-161.58639)">
    <g
       id="g3988"
       transform="matrix(1.331,0,0,1.331,-78.699487,-56.953172)">
      <g
         id="g3882">
        <g
           style="fill:#6c5353;stroke:#6c5353"
           id="g3848"
           transform="translate(4,2)">
          <path
             style="fill:#6c5353;stroke:#6c5353;stroke-width:1px;stroke-linecap:butt;stroke-linejoin:miter;stroke-opacity:1"
             d="m 297.61478,304.98038 c -5.77367,-37.94433 -29.39395,-73.33914 -15.96377,-114.02688 12.66016,-49.42913 18.20244,-17.00262 25.08592,0 12.63904,56.82467 -6.07892,76.02094 -9.12215,114.02688 z"
             id="path3850"
             inkscape:connector-curvature="0"
             sodipodi:nodetypes="cccc"
             inkscape:transform-center-y="-87.800698" />
          <path
             inkscape:transform-center-y="-81.745761"
             sodipodi:nodetypes="cccc"
             inkscape:connector-curvature="0"
             id="path3852"
             d="m 290.60625,305.06629 c -19.85485,-32.8465 -55.22215,-56.50795 -58.3848,-99.23803 -7.21925,-50.5114 10.31024,-22.67415 23.17637,-9.59997 33.42281,47.6624 23.47576,72.56049 35.20843,108.838 z"
             style="fill:#6c5353;stroke:#6c5353;stroke-width:1px;stroke-linecap:butt;stroke-linejoin:miter;stroke-opacity:1"
             inkscape:transform-center-x="33.755164" />
          <path
             inkscape:transform-center-x="61.534315"
             style="fill:#6c5353;stroke:#6c5353;stroke-width:1px;stroke-linecap:butt;stroke-linejoin:miter;stroke-opacity:1"
             d="m 284.16408,307.82771 c -30.9133,-22.74809 -72.64327,-31.07394 -91.91727,-69.34109 -25.99959,-43.90376 0.8484,-24.89374 17.73843,-17.73843 49.11826,31.24396 49.45647,58.05337 74.17884,87.07952 z"
             id="path3854"
             inkscape:connector-curvature="0"
             sodipodi:nodetypes="cccc"
             inkscape:transform-center-y="-63.492969" />
          <path
             inkscape:transform-center-y="-36.258369"
             sodipodi:nodetypes="cccc"
             inkscape:connector-curvature="0"
             id="path3856"
             d="m 279.26905,312.84424 c -37.26549,-9.18649 -79.00512,-0.9092 -111.45618,-28.8876 -40.82173,-30.61217 -8.7426,-23.32348 9.59997,-23.17637 57.3359,10.06891 67.90789,34.70814 101.85621,52.06397 z"
             style="fill:#6c5353;stroke:#6c5353;stroke-width:1px;stroke-linecap:butt;stroke-linejoin:miter;stroke-opacity:1"
             inkscape:transform-center-x="80.680106" />
          <path
             inkscape:transform-center-x="87.800695"
             style="fill:#6c5353;stroke:#6c5353;stroke-width:1px;stroke-linecap:butt;stroke-linejoin:miter;stroke-opacity:1"
             d="m 276.66637,319.35215 c -37.94434,5.77368 -73.33915,29.39396 -114.02689,15.96378 -49.42913,-12.66016 -17.00262,-18.20244 0,-25.08593 56.82467,-12.63904 76.02094,6.07892 114.02689,9.12215 z"
             id="path3858"
             inkscape:connector-curvature="0"
             sodipodi:nodetypes="cccc" />
          <path
             sodipodi:nodetypes="cccc"
             inkscape:connector-curvature="0"
             id="path3860"
             d="m 276.75228,326.36068 c -32.84651,19.85486 -56.50796,55.22216 -99.23804,58.38481 -50.5114,7.21925 -22.67414,-10.31024 -9.59997,-23.17637 47.6624,-33.42281 72.56049,-23.47577 108.83801,-35.20844 z"
             style="fill:#6c5353;stroke:#6c5353;stroke-width:1px;stroke-linecap:butt;stroke-linejoin:miter;stroke-opacity:1"
             inkscape:transform-center-x="81.745757"
             inkscape:transform-center-y="33.755164" />
          <path
             inkscape:transform-center-y="61.53431"
             inkscape:transform-center-x="63.492969"
             style="fill:#6c5353;stroke:#6c5353;stroke-width:1px;stroke-linecap:butt;stroke-linejoin:miter;stroke-opacity:1"
             d="m 279.51369,332.80284 c -22.74809,30.91332 -31.07394,72.64329 -69.34109,91.91729 -43.90376,25.99959 -24.89373,-0.8484 -17.73843,-17.73843 31.24396,-49.11826 58.05336,-49.45648 87.07952,-74.17886 z"
             id="path3862"
             inkscape:connector-curvature="0"
             sodipodi:nodetypes="cccc" />
          <path
             sodipodi:nodetypes="cccc"
             inkscape:connector-curvature="0"
             id="path3864"
             d="m 284.53021,337.69788 c -9.18648,37.2655 -0.90919,79.00513 -28.88759,111.45619 -30.61217,40.82173 -23.32347,8.74259 -23.17637,-9.59997 10.06891,-57.3359 34.70813,-67.90789 52.06396,-101.85622 z"
             style="fill:#6c5353;stroke:#6c5353;stroke-width:1px;stroke-linecap:butt;stroke-linejoin:miter;stroke-opacity:1"
             inkscape:transform-center-x="36.258373"
             inkscape:transform-center-y="80.680105" />
          <path
             inkscape:transform-center-y="87.800694"
             style="fill:#6c5353;stroke:#6c5353;stroke-width:1px;stroke-linecap:butt;stroke-linejoin:miter;stroke-opacity:1"
             d="m 291.03812,340.30056 c 5.77369,37.94435 29.39398,73.33916 15.96379,114.0269 -12.66016,49.42913 -18.20243,17.00261 -25.08593,0 -12.63903,-56.82467 6.07891,-76.02094 9.12214,-114.0269 z"
             id="path3866"
             inkscape:connector-curvature="0"
             sodipodi:nodetypes="cccc" />
          <path
             sodipodi:nodetypes="cccc"
             inkscape:connector-curvature="0"
             id="path3868"
             d="m 298.04665,340.21466 c 19.85487,32.84651 55.22218,56.50796 58.38483,99.23804 7.21924,50.5114 -10.31024,22.67413 -23.17638,9.59997 -33.4228,-47.6624 -23.47578,-72.56049 -35.20845,-108.83801 z"
             style="fill:#6c5353;stroke:#6c5353;stroke-width:1px;stroke-linecap:butt;stroke-linejoin:miter;stroke-opacity:1"
             inkscape:transform-center-y="81.745761"
             inkscape:transform-center-x="-33.755159" />
          <path
             inkscape:transform-center-x="-61.534309"
             inkscape:transform-center-y="63.492973"
             style="fill:#6c5353;stroke:#6c5353;stroke-width:1px;stroke-linecap:butt;stroke-linejoin:miter;stroke-opacity:1"
             d="m 304.48882,337.45325 c 30.91332,22.74809 72.6433,31.07393 91.9173,69.34109 25.99958,43.90376 -0.84841,24.89372 -17.73843,17.73843 -49.11826,-31.24396 -49.45649,-58.05336 -74.17887,-87.07952 z"
             id="path3870"
             inkscape:connector-curvature="0"
             sodipodi:nodetypes="cccc" />
          <path
             sodipodi:nodetypes="cccc"
             inkscape:connector-curvature="0"
             id="path3872"
             d="m 309.38386,332.43673 c 37.2655,9.18648 79.00514,0.90918 111.4562,28.88758 40.82172,30.61218 8.74258,23.32347 -9.59997,23.17638 -57.3359,-10.06891 -67.9079,-34.70813 -101.85623,-52.06396 z"
             style="fill:#6c5353;stroke:#6c5353;stroke-width:1px;stroke-linecap:butt;stroke-linejoin:miter;stroke-opacity:1"
             inkscape:transform-center-y="36.258377"
             inkscape:transform-center-x="-80.680104" />
          <path
             inkscape:transform-center-x="-87.800696"
             style="fill:#6c5353;stroke:#6c5353;stroke-width:1px;stroke-linecap:butt;stroke-linejoin:miter;stroke-opacity:1"
             d="m 311.98655,325.92882 c 37.94434,-5.77369 73.33916,-29.39399 114.0269,-15.9638 49.42912,12.66017 17.00259,18.20244 0,25.08593 -56.82467,12.63904 -76.02095,-6.0789 -114.0269,-9.12213 z"
             id="path3874"
             inkscape:connector-curvature="0"
             sodipodi:nodetypes="cccc" />
          <path
             sodipodi:nodetypes="cccc"
             inkscape:connector-curvature="0"
             id="path3876"
             d="m 311.90065,318.92029 c 32.84651,-19.85487 56.50796,-55.22219 99.23804,-58.38484 50.51139,-7.21923 22.67412,10.31025 9.59997,23.17638 -47.6624,33.42281 -72.5605,23.47579 -108.83801,35.20846 z"
             style="fill:#6c5353;stroke:#6c5353;stroke-width:1px;stroke-linecap:butt;stroke-linejoin:miter;stroke-opacity:1"
             inkscape:transform-center-x="-81.745764"
             inkscape:transform-center-y="-33.755155" />
          <path
             inkscape:transform-center-y="-61.534303"
             inkscape:transform-center-x="-63.492976"
             style="fill:#6c5353;stroke:#6c5353;stroke-width:1px;stroke-linecap:butt;stroke-linejoin:miter;stroke-opacity:1"
             d="m 309.13924,312.47812 c 22.74809,-30.91332 31.07393,-72.64331 69.34109,-91.91731 43.90375,-25.99957 24.89371,0.84842 17.73843,17.73843 -31.24396,49.11826 -58.05337,49.4565 -87.07952,74.17888 z"
             id="path3878"
             inkscape:connector-curvature="0"
             sodipodi:nodetypes="cccc" />
          <path
             sodipodi:nodetypes="cccc"
             inkscape:connector-curvature="0"
             id="path3880"
             d="m 304.12272,307.58308 c 9.18648,-37.2655 0.90918,-79.00515 28.88758,-111.45621 30.61217,-40.82171 23.32347,-8.74257 23.17638,9.59997 -10.06891,57.3359 -34.70814,67.90791 -52.06396,101.85624 z"
             style="fill:#6c5353;stroke:#6c5353;stroke-width:1px;stroke-linecap:butt;stroke-linejoin:miter;stroke-opacity:1"
             inkscape:transform-center-x="-36.258383"
             inkscape:transform-center-y="-80.680098" />
        </g>
        <g
           id="g3060"
           style="fill:#008000">
          <path
             inkscape:transform-center-y="-87.800698"
             sodipodi:nodetypes="cccc"
             inkscape:connector-curvature="0"
             id="path3028"
             d="m 297.61478,304.98038 c -5.77367,-37.94433 -29.39395,-73.33914 -15.96377,-114.02688 12.66016,-49.42913 18.20244,-17.00262 25.08592,0 12.63904,56.82467 -6.07892,76.02094 -9.12215,114.02688 z"
             style="fill:#008000;stroke:#000000;stroke-width:1px;stroke-linecap:butt;stroke-linejoin:miter;stroke-opacity:1" />
          <path
             inkscape:transform-center-x="33.755164"
             style="fill:#008000;stroke:#000000;stroke-width:1px;stroke-linecap:butt;stroke-linejoin:miter;stroke-opacity:1"
             d="m 290.60625,305.06629 c -19.85485,-32.8465 -55.22215,-56.50795 -58.3848,-99.23803 -7.21925,-50.5114 10.31024,-22.67415 23.17637,-9.59997 33.42281,47.6624 23.47576,72.56049 35.20843,108.838 z"
             id="path3030"
             inkscape:connector-curvature="0"
             sodipodi:nodetypes="cccc"
             inkscape:transform-center-y="-81.745761" />
          <path
             inkscape:transform-center-y="-63.492969"
             sodipodi:nodetypes="cccc"
             inkscape:connector-curvature="0"
             id="path3032"
             d="m 284.16408,307.82771 c -30.9133,-22.74809 -72.64327,-31.07394 -91.91727,-69.34109 -25.99959,-43.90376 0.8484,-24.89374 17.73843,-17.73843 49.11826,31.24396 49.45647,58.05337 74.17884,87.07952 z"
             style="fill:#008000;stroke:#000000;stroke-width:1px;stroke-linecap:butt;stroke-linejoin:miter;stroke-opacity:1"
             inkscape:transform-center-x="61.534315" />
          <path
             inkscape:transform-center-x="80.680106"
             style="fill:#008000;stroke:#000000;stroke-width:1px;stroke-linecap:butt;stroke-linejoin:miter;stroke-opacity:1"
             d="m 279.26905,312.84424 c -37.26549,-9.18649 -79.00512,-0.9092 -111.45618,-28.8876 -40.82173,-30.61217 -8.7426,-23.32348 9.59997,-23.17637 57.3359,10.06891 67.90789,34.70814 101.85621,52.06397 z"
             id="path3034"
             inkscape:connector-curvature="0"
             sodipodi:nodetypes="cccc"
             inkscape:transform-center-y="-36.258369" />
          <path
             sodipodi:nodetypes="cccc"
             inkscape:connector-curvature="0"
             id="path3036"
             d="m 276.66637,319.35215 c -37.94434,5.77368 -73.33915,29.39396 -114.02689,15.96378 -49.42913,-12.66016 -17.00262,-18.20244 0,-25.08593 56.82467,-12.63904 76.02094,6.07892 114.02689,9.12215 z"
             style="fill:#008000;stroke:#000000;stroke-width:1px;stroke-linecap:butt;stroke-linejoin:miter;stroke-opacity:1"
             inkscape:transform-center-x="87.800695" />
          <path
             inkscape:transform-center-y="33.755164"
             inkscape:transform-center-x="81.745757"
             style="fill:#008000;stroke:#000000;stroke-width:1px;stroke-linecap:butt;stroke-linejoin:miter;stroke-opacity:1"
             d="m 276.75228,326.36068 c -32.84651,19.85486 -56.50796,55.22216 -99.23804,58.38481 -50.5114,7.21925 -22.67414,-10.31024 -9.59997,-23.17637 47.6624,-33.42281 72.56049,-23.47577 108.83801,-35.20844 z"
             id="path3038"
             inkscape:connector-curvature="0"
             sodipodi:nodetypes="cccc" />
          <path
             sodipodi:nodetypes="cccc"
             inkscape:connector-curvature="0"
             id="path3040"
             d="m 279.51369,332.80284 c -22.74809,30.91332 -31.07394,72.64329 -69.34109,91.91729 -43.90376,25.99959 -24.89373,-0.8484 -17.73843,-17.73843 31.24396,-49.11826 58.05336,-49.45648 87.07952,-74.17886 z"
             style="fill:#008000;stroke:#000000;stroke-width:1px;stroke-linecap:butt;stroke-linejoin:miter;stroke-opacity:1"
             inkscape:transform-center-x="63.492969"
             inkscape:transform-center-y="61.53431" />
          <path
             inkscape:transform-center-y="80.680105"
             inkscape:transform-center-x="36.258373"
             style="fill:#008000;stroke:#000000;stroke-width:1px;stroke-linecap:butt;stroke-linejoin:miter;stroke-opacity:1"
             d="m 284.53021,337.69788 c -9.18648,37.2655 -0.90919,79.00513 -28.88759,111.45619 -30.61217,40.82173 -23.32347,8.74259 -23.17637,-9.59997 10.06891,-57.3359 34.70813,-67.90789 52.06396,-101.85622 z"
             id="path3042"
             inkscape:connector-curvature="0"
             sodipodi:nodetypes="cccc" />
          <path
             sodipodi:nodetypes="cccc"
             inkscape:connector-curvature="0"
             id="path3044"
             d="m 291.03812,340.30056 c 5.77369,37.94435 29.39398,73.33916 15.96379,114.0269 -12.66016,49.42913 -18.20243,17.00261 -25.08593,0 -12.63903,-56.82467 6.07891,-76.02094 9.12214,-114.0269 z"
             style="fill:#008000;stroke:#000000;stroke-width:1px;stroke-linecap:butt;stroke-linejoin:miter;stroke-opacity:1"
             inkscape:transform-center-y="87.800694" />
          <path
             inkscape:transform-center-x="-33.755159"
             inkscape:transform-center-y="81.745761"
             style="fill:#008000;stroke:#000000;stroke-width:1px;stroke-linecap:butt;stroke-linejoin:miter;stroke-opacity:1"
             d="m 298.04665,340.21466 c 19.85487,32.84651 55.22218,56.50796 58.38483,99.23804 7.21924,50.5114 -10.31024,22.67413 -23.17638,9.59997 -33.4228,-47.6624 -23.47578,-72.56049 -35.20845,-108.83801 z"
             id="path3046"
             inkscape:connector-curvature="0"
             sodipodi:nodetypes="cccc" />
          <path
             sodipodi:nodetypes="cccc"
             inkscape:connector-curvature="0"
             id="path3048"
             d="m 304.48882,337.45325 c 30.91332,22.74809 72.6433,31.07393 91.9173,69.34109 25.99958,43.90376 -0.84841,24.89372 -17.73843,17.73843 -49.11826,-31.24396 -49.45649,-58.05336 -74.17887,-87.07952 z"
             style="fill:#008000;stroke:#000000;stroke-width:1px;stroke-linecap:butt;stroke-linejoin:miter;stroke-opacity:1"
             inkscape:transform-center-y="63.492973"
             inkscape:transform-center-x="-61.534309" />
          <path
             inkscape:transform-center-x="-80.680104"
             inkscape:transform-center-y="36.258377"
             style="fill:#008000;stroke:#000000;stroke-width:1px;stroke-linecap:butt;stroke-linejoin:miter;stroke-opacity:1"
             d="m 309.38386,332.43673 c 37.2655,9.18648 79.00514,0.90918 111.4562,28.88758 40.82172,30.61218 8.74258,23.32347 -9.59997,23.17638 -57.3359,-10.06891 -67.9079,-34.70813 -101.85623,-52.06396 z"
             id="path3050"
             inkscape:connector-curvature="0"
             sodipodi:nodetypes="cccc" />
          <path
             sodipodi:nodetypes="cccc"
             inkscape:connector-curvature="0"
             id="path3052"
             d="m 311.98655,325.92882 c 37.94434,-5.77369 73.33916,-29.39399 114.0269,-15.9638 49.42912,12.66017 17.00259,18.20244 0,25.08593 -56.82467,12.63904 -76.02095,-6.0789 -114.0269,-9.12213 z"
             style="fill:#008000;stroke:#000000;stroke-width:1px;stroke-linecap:butt;stroke-linejoin:miter;stroke-opacity:1"
             inkscape:transform-center-x="-87.800696" />
          <path
             inkscape:transform-center-y="-33.755155"
             inkscape:transform-center-x="-81.745764"
             style="fill:#008000;stroke:#000000;stroke-width:1px;stroke-linecap:butt;stroke-linejoin:miter;stroke-opacity:1"
             d="m 311.90065,318.92029 c 32.84651,-19.85487 56.50796,-55.22219 99.23804,-58.38484 50.51139,-7.21923 22.67412,10.31025 9.59997,23.17638 -47.6624,33.42281 -72.5605,23.47579 -108.83801,35.20846 z"
             id="path3054"
             inkscape:connector-curvature="0"
             sodipodi:nodetypes="cccc" />
          <path
             sodipodi:nodetypes="cccc"
             inkscape:connector-curvature="0"
             id="path3056"
             d="m 309.13924,312.47812 c 22.74809,-30.91332 31.07393,-72.64331 69.34109,-91.91731 43.90375,-25.99957 24.89371,0.84842 17.73843,17.73843 -31.24396,49.11826 -58.05337,49.4565 -87.07952,74.17888 z"
             style="fill:#008000;stroke:#000000;stroke-width:1px;stroke-linecap:butt;stroke-linejoin:miter;stroke-opacity:1"
             inkscape:transform-center-x="-63.492976"
             inkscape:transform-center-y="-61.534303" />
          <path
             inkscape:transform-center-y="-80.680098"
             inkscape:transform-center-x="-36.258383"
             style="fill:#008000;stroke:#000000;stroke-width:1px;stroke-linecap:butt;stroke-linejoin:miter;stroke-opacity:1"
             d="m 304.12272,307.58308 c 9.18648,-37.2655 0.90918,-79.00515 28.88758,-111.45621 30.61217,-40.82171 23.32347,-8.74257 23.17638,9.59997 -10.06891,57.3359 -34.70814,67.90791 -52.06396,101.85624 z"
             id="path3058"
             inkscape:connector-curvature="0"
             sodipodi:nodetypes="cccc" />
        </g>
      </g>
      <g
         transform="matrix(0.85493675,-0.15074842,0.15074842,0.85493675,-5.8022107,91.619081)"
         id="g3918">
        <g
           transform="translate(4,2)"
           id="g3920"
           style="fill:#6c5353;stroke:#6c5353">
          <path
             inkscape:transform-center-y="-87.800698"
             sodipodi:nodetypes="cccc"
             inkscape:connector-curvature="0"
             id="path3922"
             d="m 297.61478,304.98038 c -5.77367,-37.94433 -29.39395,-73.33914 -15.96377,-114.02688 12.66016,-49.42913 18.20244,-17.00262 25.08592,0 12.63904,56.82467 -6.07892,76.02094 -9.12215,114.02688 z"
             style="fill:#6c5353;stroke:#6c5353;stroke-width:1px;stroke-linecap:butt;stroke-linejoin:miter;stroke-opacity:1" />
          <path
             inkscape:transform-center-x="33.755164"
             style="fill:#6c5353;stroke:#6c5353;stroke-width:1px;stroke-linecap:butt;stroke-linejoin:miter;stroke-opacity:1"
             d="m 290.60625,305.06629 c -19.85485,-32.8465 -55.22215,-56.50795 -58.3848,-99.23803 -7.21925,-50.5114 10.31024,-22.67415 23.17637,-9.59997 33.42281,47.6624 23.47576,72.56049 35.20843,108.838 z"
             id="path3924"
             inkscape:connector-curvature="0"
             sodipodi:nodetypes="cccc"
             inkscape:transform-center-y="-81.745761" />
          <path
             inkscape:transform-center-y="-63.492969"
             sodipodi:nodetypes="cccc"
             inkscape:connector-curvature="0"
             id="path3926"
             d="m 284.16408,307.82771 c -30.9133,-22.74809 -72.64327,-31.07394 -91.91727,-69.34109 -25.99959,-43.90376 0.8484,-24.89374 17.73843,-17.73843 49.11826,31.24396 49.45647,58.05337 74.17884,87.07952 z"
             style="fill:#6c5353;stroke:#6c5353;stroke-width:1px;stroke-linecap:butt;stroke-linejoin:miter;stroke-opacity:1"
             inkscape:transform-center-x="61.534315" />
          <path
             inkscape:transform-center-x="80.680106"
             style="fill:#6c5353;stroke:#6c5353;stroke-width:1px;stroke-linecap:butt;stroke-linejoin:miter;stroke-opacity:1"
             d="m 279.26905,312.84424 c -37.26549,-9.18649 -79.00512,-0.9092 -111.45618,-28.8876 -40.82173,-30.61217 -8.7426,-23.32348 9.59997,-23.17637 57.3359,10.06891 67.90789,34.70814 101.85621,52.06397 z"
             id="path3928"
             inkscape:connector-curvature="0"
             sodipodi:nodetypes="cccc"
             inkscape:transform-center-y="-36.258369" />
          <path
             sodipodi:nodetypes="cccc"
             inkscape:connector-curvature="0"
             id="path3930"
             d="m 276.66637,319.35215 c -37.94434,5.77368 -73.33915,29.39396 -114.02689,15.96378 -49.42913,-12.66016 -17.00262,-18.20244 0,-25.08593 56.82467,-12.63904 76.02094,6.07892 114.02689,9.12215 z"
             style="fill:#6c5353;stroke:#6c5353;stroke-width:1px;stroke-linecap:butt;stroke-linejoin:miter;stroke-opacity:1"
             inkscape:transform-center-x="87.800695" />
          <path
             inkscape:transform-center-y="33.755164"
             inkscape:transform-center-x="81.745757"
             style="fill:#6c5353;stroke:#6c5353;stroke-width:1px;stroke-linecap:butt;stroke-linejoin:miter;stroke-opacity:1"
             d="m 276.75228,326.36068 c -32.84651,19.85486 -56.50796,55.22216 -99.23804,58.38481 -50.5114,7.21925 -22.67414,-10.31024 -9.59997,-23.17637 47.6624,-33.42281 72.56049,-23.47577 108.83801,-35.20844 z"
             id="path3932"
             inkscape:connector-curvature="0"
             sodipodi:nodetypes="cccc" />
          <path
             sodipodi:nodetypes="cccc"
             inkscape:connector-curvature="0"
             id="path3934"
             d="m 279.51369,332.80284 c -22.74809,30.91332 -31.07394,72.64329 -69.34109,91.91729 -43.90376,25.99959 -24.89373,-0.8484 -17.73843,-17.73843 31.24396,-49.11826 58.05336,-49.45648 87.07952,-74.17886 z"
             style="fill:#6c5353;stroke:#6c5353;stroke-width:1px;stroke-linecap:butt;stroke-linejoin:miter;stroke-opacity:1"
             inkscape:transform-center-x="63.492969"
             inkscape:transform-center-y="61.53431" />
          <path
             inkscape:transform-center-y="80.680105"
             inkscape:transform-center-x="36.258373"
             style="fill:#6c5353;stroke:#6c5353;stroke-width:1px;stroke-linecap:butt;stroke-linejoin:miter;stroke-opacity:1"
             d="m 284.53021,337.69788 c -9.18648,37.2655 -0.90919,79.00513 -28.88759,111.45619 -30.61217,40.82173 -23.32347,8.74259 -23.17637,-9.59997 10.06891,-57.3359 34.70813,-67.90789 52.06396,-101.85622 z"
             id="path3936"
             inkscape:connector-curvature="0"
             sodipodi:nodetypes="cccc" />
          <path
             sodipodi:nodetypes="cccc"
             inkscape:connector-curvature="0"
             id="path3938"
             d="m 291.03812,340.30056 c 5.77369,37.94435 29.39398,73.33916 15.96379,114.0269 -12.66016,49.42913 -18.20243,17.00261 -25.08593,0 -12.63903,-56.82467 6.07891,-76.02094 9.12214,-114.0269 z"
             style="fill:#6c5353;stroke:#6c5353;stroke-width:1px;stroke-linecap:butt;stroke-linejoin:miter;stroke-opacity:1"
             inkscape:transform-center-y="87.800694" />
          <path
             inkscape:transform-center-x="-33.755159"
             inkscape:transform-center-y="81.745761"
             style="fill:#6c5353;stroke:#6c5353;stroke-width:1px;stroke-linecap:butt;stroke-linejoin:miter;stroke-opacity:1"
             d="m 298.04665,340.21466 c 19.85487,32.84651 55.22218,56.50796 58.38483,99.23804 7.21924,50.5114 -10.31024,22.67413 -23.17638,9.59997 -33.4228,-47.6624 -23.47578,-72.56049 -35.20845,-108.83801 z"
             id="path3940"
             inkscape:connector-curvature="0"
             sodipodi:nodetypes="cccc" />
          <path
             sodipodi:nodetypes="cccc"
             inkscape:connector-curvature="0"
             id="path3942"
             d="m 304.48882,337.45325 c 30.91332,22.74809 72.6433,31.07393 91.9173,69.34109 25.99958,43.90376 -0.84841,24.89372 -17.73843,17.73843 -49.11826,-31.24396 -49.45649,-58.05336 -74.17887,-87.07952 z"
             style="fill:#6c5353;stroke:#6c5353;stroke-width:1px;stroke-linecap:butt;stroke-linejoin:miter;stroke-opacity:1"
             inkscape:transform-center-y="63.492973"
             inkscape:transform-center-x="-61.534309" />
          <path
             inkscape:transform-center-x="-80.680104"
             inkscape:transform-center-y="36.258377"
             style="fill:#6c5353;stroke:#6c5353;stroke-width:1px;stroke-linecap:butt;stroke-linejoin:miter;stroke-opacity:1"
             d="m 309.38386,332.43673 c 37.2655,9.18648 79.00514,0.90918 111.4562,28.88758 40.82172,30.61218 8.74258,23.32347 -9.59997,23.17638 -57.3359,-10.06891 -67.9079,-34.70813 -101.85623,-52.06396 z"
             id="path3944"
             inkscape:connector-curvature="0"
             sodipodi:nodetypes="cccc" />
          <path
             sodipodi:nodetypes="cccc"
             inkscape:connector-curvature="0"
             id="path3946"
             d="m 311.98655,325.92882 c 37.94434,-5.77369 73.33916,-29.39399 114.0269,-15.9638 49.42912,12.66017 17.00259,18.20244 0,25.08593 -56.82467,12.63904 -76.02095,-6.0789 -114.0269,-9.12213 z"
             style="fill:#6c5353;stroke:#6c5353;stroke-width:1px;stroke-linecap:butt;stroke-linejoin:miter;stroke-opacity:1"
             inkscape:transform-center-x="-87.800696" />
          <path
             inkscape:transform-center-y="-33.755155"
             inkscape:transform-center-x="-81.745764"
             style="fill:#6c5353;stroke:#6c5353;stroke-width:1px;stroke-linecap:butt;stroke-linejoin:miter;stroke-opacity:1"
             d="m 311.90065,318.92029 c 32.84651,-19.85487 56.50796,-55.22219 99.23804,-58.38484 50.51139,-7.21923 22.67412,10.31025 9.59997,23.17638 -47.6624,33.42281 -72.5605,23.47579 -108.83801,35.20846 z"
             id="path3948"
             inkscape:connector-curvature="0"
             sodipodi:nodetypes="cccc" />
          <path
             sodipodi:nodetypes="cccc"
             inkscape:connector-curvature="0"
             id="path3950"
             d="m 309.13924,312.47812 c 22.74809,-30.91332 31.07393,-72.64331 69.34109,-91.91731 43.90375,-25.99957 24.89371,0.84842 17.73843,17.73843 -31.24396,49.11826 -58.05337,49.4565 -87.07952,74.17888 z"
             style="fill:#6c5353;stroke:#6c5353;stroke-width:1px;stroke-linecap:butt;stroke-linejoin:miter;stroke-opacity:1"
             inkscape:transform-center-x="-63.492976"
             inkscape:transform-center-y="-61.534303" />
          <path
             inkscape:transform-center-y="-80.680098"
             inkscape:transform-center-x="-36.258383"
             style="fill:#6c5353;stroke:#6c5353;stroke-width:1px;stroke-linecap:butt;stroke-linejoin:miter;stroke-opacity:1"
             d="m 304.12272,307.58308 c 9.18648,-37.2655 0.90918,-79.00515 28.88758,-111.45621 30.61217,-40.82171 23.32347,-8.74257 23.17638,9.59997 -10.06891,57.3359 -34.70814,67.90791 -52.06396,101.85624 z"
             id="path3952"
             inkscape:connector-curvature="0"
             sodipodi:nodetypes="cccc" />
        </g>
        <g
           style="fill:#008000"
           id="g3954">
          <path
             style="fill:#008000;stroke:#000000;stroke-width:1px;stroke-linecap:butt;stroke-linejoin:miter;stroke-opacity:1"
             d="m 297.61478,304.98038 c -5.77367,-37.94433 -29.39395,-73.33914 -15.96377,-114.02688 12.66016,-49.42913 18.20244,-17.00262 25.08592,0 12.63904,56.82467 -6.07892,76.02094 -9.12215,114.02688 z"
             id="path3956"
             inkscape:connector-curvature="0"
             sodipodi:nodetypes="cccc"
             inkscape:transform-center-y="-87.800698" />
          <path
             inkscape:transform-center-y="-81.745761"
             sodipodi:nodetypes="cccc"
             inkscape:connector-curvature="0"
             id="path3958"
             d="m 290.60625,305.06629 c -19.85485,-32.8465 -55.22215,-56.50795 -58.3848,-99.23803 -7.21925,-50.5114 10.31024,-22.67415 23.17637,-9.59997 33.42281,47.6624 23.47576,72.56049 35.20843,108.838 z"
             style="fill:#008000;stroke:#000000;stroke-width:1px;stroke-linecap:butt;stroke-linejoin:miter;stroke-opacity:1"
             inkscape:transform-center-x="33.755164" />
          <path
             inkscape:transform-center-x="61.534315"
             style="fill:#008000;stroke:#000000;stroke-width:1px;stroke-linecap:butt;stroke-linejoin:miter;stroke-opacity:1"
             d="m 284.16408,307.82771 c -30.9133,-22.74809 -72.64327,-31.07394 -91.91727,-69.34109 -25.99959,-43.90376 0.8484,-24.89374 17.73843,-17.73843 49.11826,31.24396 49.45647,58.05337 74.17884,87.07952 z"
             id="path3960"
             inkscape:connector-curvature="0"
             sodipodi:nodetypes="cccc"
             inkscape:transform-center-y="-63.492969" />
          <path
             inkscape:transform-center-y="-36.258369"
             sodipodi:nodetypes="cccc"
             inkscape:connector-curvature="0"
             id="path3962"
             d="m 279.26905,312.84424 c -37.26549,-9.18649 -79.00512,-0.9092 -111.45618,-28.8876 -40.82173,-30.61217 -8.7426,-23.32348 9.59997,-23.17637 57.3359,10.06891 67.90789,34.70814 101.85621,52.06397 z"
             style="fill:#008000;stroke:#000000;stroke-width:1px;stroke-linecap:butt;stroke-linejoin:miter;stroke-opacity:1"
             inkscape:transform-center-x="80.680106" />
          <path
             inkscape:transform-center-x="87.800695"
             style="fill:#008000;stroke:#000000;stroke-width:1px;stroke-linecap:butt;stroke-linejoin:miter;stroke-opacity:1"
             d="m 276.66637,319.35215 c -37.94434,5.77368 -73.33915,29.39396 -114.02689,15.96378 -49.42913,-12.66016 -17.00262,-18.20244 0,-25.08593 56.82467,-12.63904 76.02094,6.07892 114.02689,9.12215 z"
             id="path3964"
             inkscape:connector-curvature="0"
             sodipodi:nodetypes="cccc" />
          <path
             sodipodi:nodetypes="cccc"
             inkscape:connector-curvature="0"
             id="path3966"
             d="m 276.75228,326.36068 c -32.84651,19.85486 -56.50796,55.22216 -99.23804,58.38481 -50.5114,7.21925 -22.67414,-10.31024 -9.59997,-23.17637 47.6624,-33.42281 72.56049,-23.47577 108.83801,-35.20844 z"
             style="fill:#008000;stroke:#000000;stroke-width:1px;stroke-linecap:butt;stroke-linejoin:miter;stroke-opacity:1"
             inkscape:transform-center-x="81.745757"
             inkscape:transform-center-y="33.755164" />
          <path
             inkscape:transform-center-y="61.53431"
             inkscape:transform-center-x="63.492969"
             style="fill:#008000;stroke:#000000;stroke-width:1px;stroke-linecap:butt;stroke-linejoin:miter;stroke-opacity:1"
             d="m 279.51369,332.80284 c -22.74809,30.91332 -31.07394,72.64329 -69.34109,91.91729 -43.90376,25.99959 -24.89373,-0.8484 -17.73843,-17.73843 31.24396,-49.11826 58.05336,-49.45648 87.07952,-74.17886 z"
             id="path3968"
             inkscape:connector-curvature="0"
             sodipodi:nodetypes="cccc" />
          <path
             sodipodi:nodetypes="cccc"
             inkscape:connector-curvature="0"
             id="path3970"
             d="m 284.53021,337.69788 c -9.18648,37.2655 -0.90919,79.00513 -28.88759,111.45619 -30.61217,40.82173 -23.32347,8.74259 -23.17637,-9.59997 10.06891,-57.3359 34.70813,-67.90789 52.06396,-101.85622 z"
             style="fill:#008000;stroke:#000000;stroke-width:1px;stroke-linecap:butt;stroke-linejoin:miter;stroke-opacity:1"
             inkscape:transform-center-x="36.258373"
             inkscape:transform-center-y="80.680105" />
          <path
             inkscape:transform-center-y="87.800694"
             style="fill:#008000;stroke:#000000;stroke-width:1px;stroke-linecap:butt;stroke-linejoin:miter;stroke-opacity:1"
             d="m 291.03812,340.30056 c 5.77369,37.94435 29.39398,73.33916 15.96379,114.0269 -12.66016,49.42913 -18.20243,17.00261 -25.08593,0 -12.63903,-56.82467 6.07891,-76.02094 9.12214,-114.0269 z"
             id="path3972"
             inkscape:connector-curvature="0"
             sodipodi:nodetypes="cccc" />
          <path
             sodipodi:nodetypes="cccc"
             inkscape:connector-curvature="0"
             id="path3974"
             d="m 298.04665,340.21466 c 19.85487,32.84651 55.22218,56.50796 58.38483,99.23804 7.21924,50.5114 -10.31024,22.67413 -23.17638,9.59997 -33.4228,-47.6624 -23.47578,-72.56049 -35.20845,-108.83801 z"
             style="fill:#008000;stroke:#000000;stroke-width:1px;stroke-linecap:butt;stroke-linejoin:miter;stroke-opacity:1"
             inkscape:transform-center-y="81.745761"
             inkscape:transform-center-x="-33.755159" />
          <path
             inkscape:transform-center-x="-61.534309"
             inkscape:transform-center-y="63.492973"
             style="fill:#008000;stroke:#000000;stroke-width:1px;stroke-linecap:butt;stroke-linejoin:miter;stroke-opacity:1"
             d="m 304.48882,337.45325 c 30.91332,22.74809 72.6433,31.07393 91.9173,69.34109 25.99958,43.90376 -0.84841,24.89372 -17.73843,17.73843 -49.11826,-31.24396 -49.45649,-58.05336 -74.17887,-87.07952 z"
             id="path3976"
             inkscape:connector-curvature="0"
             sodipodi:nodetypes="cccc" />
          <path
             sodipodi:nodetypes="cccc"
             inkscape:connector-curvature="0"
             id="path3978"
             d="m 309.38386,332.43673 c 37.2655,9.18648 79.00514,0.90918 111.4562,28.88758 40.82172,30.61218 8.74258,23.32347 -9.59997,23.17638 -57.3359,-10.06891 -67.9079,-34.70813 -101.85623,-52.06396 z"
             style="fill:#008000;stroke:#000000;stroke-width:1px;stroke-linecap:butt;stroke-linejoin:miter;stroke-opacity:1"
             inkscape:transform-center-y="36.258377"
             inkscape:transform-center-x="-80.680104" />
          <path
             inkscape:transform-center-x="-87.800696"
             style="fill:#008000;stroke:#000000;stroke-width:1px;stroke-linecap:butt;stroke-linejoin:miter;stroke-opacity:1"
             d="m 311.98655,325.92882 c 37.94434,-5.77369 73.33916,-29.39399 114.0269,-15.9638 49.42912,12.66017 17.00259,18.20244 0,25.08593 -56.82467,12.63904 -76.02095,-6.0789 -114.0269,-9.12213 z"
             id="path3980"
             inkscape:connector-curvature="0"
             sodipodi:nodetypes="cccc" />
          <path
             sodipodi:nodetypes="cccc"
             inkscape:connector-curvature="0"
             id="path3982"
             d="m 311.90065,318.92029 c 32.84651,-19.85487 56.50796,-55.22219 99.23804,-58.38484 50.51139,-7.21923 22.67412,10.31025 9.59997,23.17638 -47.6624,33.42281 -72.5605,23.47579 -108.83801,35.20846 z"
             style="fill:#008000;stroke:#000000;stroke-width:1px;stroke-linecap:butt;stroke-linejoin:miter;stroke-opacity:1"
             inkscape:transform-center-x="-81.745764"
             inkscape:transform-center-y="-33.755155" />
          <path
             inkscape:transform-center-y="-61.534303"
             inkscape:transform-center-x="-63.492976"
             style="fill:#008000;stroke:#000000;stroke-width:1px;stroke-linecap:butt;stroke-linejoin:miter;stroke-opacity:1"
             d="m 309.13924,312.47812 c 22.74809,-30.91332 31.07393,-72.64331 69.34109,-91.91731 43.90375,-25.99957 24.89371,0.84842 17.73843,17.73843 -31.24396,49.11826 -58.05337,49.4565 -87.07952,74.17888 z"
             id="path3984"
             inkscape:connector-curvature="0"
             sodipodi:nodetypes="cccc" />
          <path
             sodipodi:nodetypes="cccc"
             inkscape:connector-curvature="0"
             id="path3986"
             d="m 304.12272,307.58308 c 9.18648,-37.2655 0.90918,-79.00515 28.88758,-111.45621 30.61217,-40.82171 23.32347,-8.74257 23.17638,9.59997 -10.06891,57.3359 -34.70814,67.90791 -52.06396,101.85624 z"
             style="fill:#008000;stroke:#000000;stroke-width:1px;stroke-linecap:butt;stroke-linejoin:miter;stroke-opacity:1"
             inkscape:transform-center-x="-36.258383"
             inkscape:transform-center-y="-80.680098" />
        </g>
      </g>
      <path
         sodipodi:open="true"
         sodipodi:end="6.8657183"
         sodipodi:start="0.62809701"
         transform="translate(74.122085,128.01576)"
         d="m 253.50473,220.98299 c -12.95164,15.28689 -37.90889,18.6799 -55.7436,7.5785 -17.8347,-11.10141 -21.79321,-32.49334 -8.84157,-47.78023 12.95163,-15.28689 37.90889,-18.67989 55.74359,-7.57849 17.26277,10.74539 21.61321,31.22788 9.87622,46.49861"
         sodipodi:ry="34.208065"
         sodipodi:rx="39.909409"
         sodipodi:cy="200.88213"
         sodipodi:cx="221.21214"
         id="path3078"
         style="fill:#ff7f2a;fill-opacity:1;fill-rule:nonzero;stroke:#aa4400;stroke-width:7.08661413;stroke-linecap:round;stroke-linejoin:round;stroke-miterlimit:4;stroke-opacity:1;stroke-dasharray:14.17322826, 7.08661413, 3.54330707, 7.08661413;stroke-dashoffset:0"
         sodipodi:type="arc" />
    </g>
  </g>
</svg>
