<?xml version="1.0" encoding="UTF-8" standalone="no"?>
<!-- Created with Inkscape (http://www.inkscape.org/) -->

<svg
   xmlns:svg="http://www.w3.org/2000/svg"
   xmlns="http://www.w3.org/2000/svg"
   xmlns:xlink="http://www.w3.org/1999/xlink"
   version="1.1"
   width="600"
   height="500"
   id="svg1317">
  <defs
     id="defs1319">
    <linearGradient
       id="linearGradient2166">
      <stop
         id="stop2168"
         style="stop-color:#000000;stop-opacity:1"
         offset="0" />
      <stop
         id="stop2170"
         style="stop-color:#000000;stop-opacity:0"
         offset="1" />
    </linearGradient>
    <linearGradient
       id="linearGradient2067">
      <stop
         id="stop2069"
         style="stop-color:#ffffff;stop-opacity:1"
         offset="0" />
      <stop
         id="stop2071"
         style="stop-color:#ffffff;stop-opacity:0"
         offset="1" />
    </linearGradient>
    <linearGradient
       x1="534.5838"
       y1="434.31955"
       x2="820.76959"
       y2="434.31955"
       id="linearGradient2073"
       xlink:href="#linearGradient2067"
       gradientUnits="userSpaceOnUse"
       gradientTransform="scale(1.055075,0.9478)" />
    <linearGradient
       x1="455.26077"
       y1="298.3299"
       x2="541.13593"
       y2="375.35098"
       id="linearGradient2088"
       xlink:href="#linearGradient2067"
       gradientUnits="userSpaceOnUse"
       gradientTransform="matrix(1.022688,0,0,0.977815,-40,390)" />
    <linearGradient
       x1="303.496"
       y1="348.31894"
       x2="476.24338"
       y2="410.23431"
       id="linearGradient2098"
       xlink:href="#linearGradient2067"
       gradientUnits="userSpaceOnUse"
       gradientTransform="matrix(0.872677,0,0,1.1459,-40,390)" />
    <linearGradient
       x1="431.26331"
       y1="557.36859"
       x2="396.44626"
       y2="478.99435"
       id="linearGradient2110"
       xlink:href="#linearGradient2067"
       gradientUnits="userSpaceOnUse"
       gradientTransform="matrix(0.976533,0,0,1.024031,-40,390)"
       spreadMethod="pad" />
    <linearGradient
       x1="378.63187"
       y1="497.42447"
       x2="437.87491"
       y2="497.42447"
       id="linearGradient2120"
       xlink:href="#linearGradient2067"
       gradientUnits="userSpaceOnUse"
       gradientTransform="matrix(0.880056,0,0,1.136292,-40,390)" />
    <radialGradient
       cx="310.6694"
       cy="477.68759"
       r="495.33124"
       fx="310.6694"
       fy="477.68759"
       id="radialGradient2132"
       xlink:href="#linearGradient2067"
       gradientUnits="userSpaceOnUse"
       gradientTransform="matrix(1.078067,0,0,0.927586,-40,390)" />
    <radialGradient
       cx="531.42578"
       cy="506.33026"
       r="108.22702"
       fx="531.42578"
       fy="506.33026"
       id="radialGradient2144"
       xlink:href="#linearGradient2067"
       gradientUnits="userSpaceOnUse"
       gradientTransform="matrix(0.784721,0,0,1.274339,-40,390)" />
    <radialGradient
       cx="537.06683"
       cy="615.43976"
       r="80.316177"
       fx="537.06683"
       fy="615.43976"
       id="radialGradient2154"
       xlink:href="#linearGradient2067"
       gradientUnits="userSpaceOnUse"
       gradientTransform="matrix(0.971067,0,0,1.029795,-40,390)" />
    <linearGradient
       x1="209.57202"
       y1="593.78088"
       x2="691.31915"
       y2="593.78088"
       id="linearGradient2164"
       xlink:href="#linearGradient2067"
       gradientUnits="userSpaceOnUse"
       gradientTransform="matrix(1.168684,0,0,0.855663,-187.1429,-115.7143)" />
    <linearGradient
       x1="49.440758"
       y1="458.54742"
       x2="531.18787"
       y2="458.54742"
       id="linearGradient2172"
       xlink:href="#linearGradient2166"
       gradientUnits="userSpaceOnUse"
       gradientTransform="matrix(1.168684,0,0,0.855663,-40,390)" />
    <linearGradient
       x1="209.21616"
       y1="659.55231"
       x2="252.79126"
       y2="264.18741"
       id="linearGradient2180"
       xlink:href="#linearGradient2067"
       gradientUnits="userSpaceOnUse"
       gradientTransform="matrix(1.168684,0,0,0.855663,-40,390)" />
    <radialGradient
       cx="624.64709"
       cy="441.44403"
       r="27.868559"
       fx="624.64709"
       fy="441.44403"
       id="radialGradient2195"
       xlink:href="#linearGradient2067"
       gradientUnits="userSpaceOnUse"
       gradientTransform="matrix(0.779816,0,0,1.282354,-40.714286,390)" />
    <radialGradient
       cx="448.5665"
       cy="511.94312"
       r="13.25198"
       fx="448.5665"
       fy="511.94312"
       id="radialGradient2205"
       xlink:href="#linearGradient2067"
       gradientUnits="userSpaceOnUse"
       gradientTransform="matrix(0.905742,0,0,1.104067,-40,390)" />
    <radialGradient
       cx="542.81598"
       cy="837.59833"
       r="46.658321"
       fx="542.81598"
       fy="837.59833"
       id="radialGradient3665"
       xlink:href="#linearGradient2067"
       gradientUnits="userSpaceOnUse"
       gradientTransform="matrix(1.7715665,1.3520543e-7,-2.1294354e-7,2.7901524,-418.81845,-1502.1132)" />
    <radialGradient
       cx="448.5665"
       cy="511.94312"
       r="13.25198"
       fx="448.5665"
       fy="511.94312"
       id="radialGradient2205-9"
       xlink:href="#linearGradient2067-1"
       gradientUnits="userSpaceOnUse"
       gradientTransform="matrix(0.905742,0,0,1.104067,452.15659,1025.1543)" />
    <linearGradient
       id="linearGradient2067-1">
      <stop
         id="stop2069-2"
         style="stop-color:#ffffff;stop-opacity:1"
         offset="0" />
      <stop
         id="stop2071-3"
         style="stop-color:#ffffff;stop-opacity:0"
         offset="1" />
    </linearGradient>
    <radialGradient
       cx="624.64709"
       cy="441.44403"
       r="27.868559"
       fx="624.64709"
       fy="441.44403"
       id="radialGradient2195-1"
       xlink:href="#linearGradient2067-1"
       gradientUnits="userSpaceOnUse"
       gradientTransform="matrix(0.779816,0,0,1.282354,451.4423,1025.1543)" />
    <linearGradient
       id="linearGradient3684">
      <stop
         id="stop3686"
         style="stop-color:#ffffff;stop-opacity:1"
         offset="0" />
      <stop
         id="stop3688"
         style="stop-color:#ffffff;stop-opacity:0"
         offset="1" />
    </linearGradient>
    <radialGradient
       cx="537.06683"
       cy="615.43976"
       r="80.316177"
       fx="537.06683"
       fy="615.43976"
       id="radialGradient2154-8"
       xlink:href="#linearGradient2067-1"
       gradientUnits="userSpaceOnUse"
       gradientTransform="matrix(0.971067,0,0,1.029795,452.15659,1025.1543)" />
    <linearGradient
       id="linearGradient3691">
      <stop
         id="stop3693"
         style="stop-color:#ffffff;stop-opacity:1"
         offset="0" />
      <stop
         id="stop3695"
         style="stop-color:#ffffff;stop-opacity:0"
         offset="1" />
    </linearGradient>
    <radialGradient
       cx="531.42578"
       cy="506.33026"
       r="108.22702"
       fx="531.42578"
       fy="506.33026"
       id="radialGradient2144-1"
       xlink:href="#linearGradient2067-1"
       gradientUnits="userSpaceOnUse"
       gradientTransform="matrix(0.784721,0,0,1.274339,452.15659,1025.1543)" />
    <linearGradient
       id="linearGradient3698">
      <stop
         id="stop3700"
         style="stop-color:#ffffff;stop-opacity:1"
         offset="0" />
      <stop
         id="stop3702"
         style="stop-color:#ffffff;stop-opacity:0"
         offset="1" />
    </linearGradient>
    <radialGradient
       cx="310.6694"
       cy="477.68759"
       r="495.33124"
       fx="310.6694"
       fy="477.68759"
       id="radialGradient2132-3"
       xlink:href="#linearGradient2067-1"
       gradientUnits="userSpaceOnUse"
       gradientTransform="matrix(1.078067,0,0,0.927586,452.15659,1025.1543)" />
    <linearGradient
       id="linearGradient3705">
      <stop
         id="stop3707"
         style="stop-color:#ffffff;stop-opacity:1"
         offset="0" />
      <stop
         id="stop3709"
         style="stop-color:#ffffff;stop-opacity:0"
         offset="1" />
    </linearGradient>
    <linearGradient
       x1="396.44626"
       y1="601.31256"
       x2="349.63593"
       y2="502.43115"
       id="linearGradient2110-8"
       xlink:href="#linearGradient2067-1"
       gradientUnits="userSpaceOnUse"
       gradientTransform="matrix(0.976533,0,0,1.024031,452.15659,1025.1543)"
       spreadMethod="pad" />
    <linearGradient
       id="linearGradient3712">
      <stop
         id="stop3714"
         style="stop-color:#ffffff;stop-opacity:1"
         offset="0" />
      <stop
         id="stop3716"
         style="stop-color:#ffffff;stop-opacity:0"
         offset="1" />
    </linearGradient>
    <linearGradient
       x1="303.496"
       y1="348.31894"
       x2="476.24338"
       y2="410.23431"
       id="linearGradient2098-9"
       xlink:href="#linearGradient2067-1"
       gradientUnits="userSpaceOnUse"
       gradientTransform="matrix(0.872677,0,0,1.1459,452.15659,1025.1543)" />
    <linearGradient
       id="linearGradient3719">
      <stop
         id="stop3721"
         style="stop-color:#ffffff;stop-opacity:1"
         offset="0" />
      <stop
         id="stop3723"
         style="stop-color:#ffffff;stop-opacity:0"
         offset="1" />
    </linearGradient>
    <linearGradient
       x1="455.26077"
       y1="298.3299"
       x2="541.13593"
       y2="375.35098"
       id="linearGradient2088-2"
       xlink:href="#linearGradient2067-1"
       gradientUnits="userSpaceOnUse"
       gradientTransform="matrix(1.022688,0,0,0.977815,452.15659,1025.1543)" />
    <linearGradient
       id="linearGradient3726">
      <stop
         id="stop3728"
         style="stop-color:#ffffff;stop-opacity:1"
         offset="0" />
      <stop
         id="stop3730"
         style="stop-color:#ffffff;stop-opacity:0"
         offset="1" />
    </linearGradient>
    <radialGradient
       cx="542.81598"
       cy="839.03192"
       r="46.658321"
       fx="542.81598"
       fy="839.03192"
       id="radialGradient3665-4"
       xlink:href="#linearGradient2067-1"
       gradientUnits="userSpaceOnUse"
       gradientTransform="matrix(1.7715665,1.3520543e-7,-2.1294354e-7,2.7901524,73.338141,-866.9589)" />
    <linearGradient
       id="linearGradient3733">
      <stop
         id="stop3735"
         style="stop-color:#ffffff;stop-opacity:1"
         offset="0" />
      <stop
         id="stop3737"
         style="stop-color:#ffffff;stop-opacity:0"
         offset="1" />
    </linearGradient>
    <linearGradient
       x1="378.63187"
       y1="497.42447"
       x2="437.87491"
       y2="497.42447"
       id="linearGradient2120-5"
       xlink:href="#linearGradient2067-1"
       gradientUnits="userSpaceOnUse"
       gradientTransform="matrix(0.880056,0,0,1.136292,452.15659,1025.1543)" />
    <linearGradient
       id="linearGradient3740">
      <stop
         id="stop3742"
         style="stop-color:#ffffff;stop-opacity:1"
         offset="0" />
      <stop
         id="stop3744"
         style="stop-color:#ffffff;stop-opacity:0"
         offset="1" />
    </linearGradient>
    <linearGradient
       x1="209.21616"
       y1="659.55231"
       x2="252.79126"
       y2="264.18741"
       id="linearGradient2180-1"
       xlink:href="#linearGradient2067-1"
       gradientUnits="userSpaceOnUse"
       gradientTransform="matrix(1.168684,0,0,0.855663,452.15659,1025.1543)" />
    <linearGradient
       id="linearGradient3747">
      <stop
         id="stop3749"
         style="stop-color:#ffffff;stop-opacity:1"
         offset="0" />
      <stop
         id="stop3751"
         style="stop-color:#ffffff;stop-opacity:0"
         offset="1" />
    </linearGradient>
    <linearGradient
       x1="49.440758"
       y1="458.54742"
       x2="531.18787"
       y2="458.54742"
       id="linearGradient2172-0"
       xlink:href="#linearGradient2166-0"
       gradientUnits="userSpaceOnUse"
       gradientTransform="matrix(1.168684,0,0,0.855663,452.15659,1025.1543)" />
    <linearGradient
       id="linearGradient2166-0">
      <stop
         id="stop2168-1"
         style="stop-color:#000000;stop-opacity:1"
         offset="0" />
      <stop
         id="stop2170-3"
         style="stop-color:#000000;stop-opacity:0"
         offset="1" />
    </linearGradient>
    <radialGradient
       cx="313.39038"
       cy="155.02576"
       r="495.33124"
       fx="313.39038"
       fy="155.02576"
       id="radialGradient3926"
       xlink:href="#linearGradient2067"
       gradientUnits="userSpaceOnUse"
       gradientTransform="matrix(0.40674008,-0.04085434,0.06009651,0.59831232,154.1375,537.71589)" />
  </defs>
  <g
     transform="translate(0,-552.36218)"
     id="layer1">
    <path
       d="m 327.69553,833.2402 c 0,0 18.18274,-14.48876 33.33503,-25.25382 13.02042,-9.25045 33.8432,-22.05225 46.00654,-37.96738 13.24857,-17.3351 42.91662,-91.33214 93.22119,-92.16898 30.3674,-0.51994 30.4779,12.95867 30.4779,12.95867 l 36.36549,-7.07107 c 0,0 10.98613,-0.37039 5.27185,2.48675 -5.71429,2.85715 -37.85714,12.14286 -37.85714,12.14286 l 41.42857,-7.85714 c 0,0 8.57143,1.42857 2.85714,4.28571 -5.71429,2.85715 -43.57143,10 -44.28571,12.14286 -0.71429,2.14286 10,-3.57143 10,-3.57143 0,0 -17.85715,32.14286 -14.28572,49.28572 3.57143,17.14285 20.4054,48.66948 5.00001,82.85714 -21.29142,47.24994 -70.78819,82.43935 -94.0217,93.55102 -23.23351,11.11168 -76.97556,18.73692 -93.31041,11.25526 -17.01414,-7.79279 -13.01014,-35.27412 -20.08121,-22.14214 -7.07107,13.13199 -64.64977,70.71068 -64.64977,70.71068 0,0 17.48804,-26.78391 17.48804,-26.78391 l 5.95939,-34.45286 16.99929,-34.72772 c 0,0 -4.87673,-10.38217 -16.23823,-15.68783 -11.52581,-5.38239 -13.57857,0.35817 -19.20776,-12.67766 -1.49185,-3.45478 -9.81279,-9.24391 -12.6738,-11.89905 -6.68744,-6.20625 -16.90755,-13.75709 -15.3864,-20.07921 2.26149,-9.3991 -7.36693,-32.67151 -7.36693,-32.67151 L 30.710682,632.21984 c 0,0 -20.20306,-10.10152 -8.08122,-14.14213 12.12183,-4.04061 16.16244,0 16.16244,0 l 20.20305,-22.22336 c 0,0 -2.02031,-2.02031 6.060908,4.04061 8.08122,6.06091 18.18275,-22.22336 18.18275,-22.22336 l 159.6041,165.66502 c 0,0 -18.44887,-36.58957 -10.83683,-37.06927 4.50859,-0.28412 22.95866,47.1708 22.95866,47.1708 0,0 13.38498,14.66298 22.11132,21.51958 11.44524,8.99293 30.32932,30.22046 36.00835,36.97825 5.50511,6.55083 14.61132,21.30422 14.61132,21.30422 z"
       id="path1325"
       style="fill:#dfdfdf;fill-opacity:1;fill-rule:evenodd;stroke:#000000;stroke-width:1px;stroke-linecap:butt;stroke-linejoin:miter;stroke-opacity:1" />
    <path
       d="m 327.21994,832.32413 c 0,0 18.18274,-14.48876 33.33503,-25.25382 13.02042,-9.25045 33.8432,-22.05225 46.00654,-37.96738 13.24857,-17.3351 42.91662,-91.33214 93.22119,-92.16898 30.3674,-0.51994 30.4779,12.95867 30.4779,12.95867 l 36.36549,-7.07107 c 0,0 10.98613,-0.37039 5.27185,2.48675 -5.71429,2.85715 -37.85714,12.14286 -37.85714,12.14286 l 41.42857,-7.85714 c 0,0 8.57143,1.42857 2.85714,4.28571 -5.71429,2.85715 -43.57143,10 -44.28571,12.14286 -0.71429,2.14286 10,-3.57143 10,-3.57143 0,0 -17.85715,32.14286 -14.28572,49.28572 3.57143,17.14285 20.4054,48.66948 5.00001,82.85714 -21.29142,47.24994 -70.78819,82.43935 -94.0217,93.55102 -23.23351,11.11168 -76.97556,18.73692 -93.31041,11.25526 -17.01414,-7.79279 -13.01014,-35.27412 -20.08121,-22.14214 -7.07107,13.13199 -64.64977,70.71068 -64.64977,70.71068 0,0 17.48804,-26.78391 17.48804,-26.78391 l 5.95939,-34.45286 16.99929,-34.72772 c 0,0 -4.87673,-10.38217 -16.23823,-15.68783 -11.52581,-5.38239 -13.57857,0.35817 -19.20776,-12.67766 -1.49185,-3.45478 -9.81279,-9.24391 -12.6738,-11.89905 -6.68744,-6.20625 -16.90755,-13.75709 -15.3864,-20.07921 2.26149,-9.3991 -7.36693,-32.67151 -7.36693,-32.67151 L 30.235094,631.30377 c 0,0 -20.20306,-10.10152 -8.08122,-14.14213 12.12183,-4.04061 16.16244,0 16.16244,0 l 20.20305,-22.22336 c 0,0 -2.02031,-2.02031 6.060906,4.04061 8.08122,6.06091 18.18275,-22.22336 18.18275,-22.22336 l 159.6041,165.66502 c 0,0 -18.44887,-36.58957 -10.83683,-37.06927 4.50859,-0.28412 22.95866,47.1708 22.95866,47.1708 0,0 13.38498,14.66298 22.11132,21.51958 11.44524,8.99293 30.32932,30.22046 36.00835,36.97825 5.50511,6.55083 14.61132,21.30422 14.61132,21.30422 z"
       id="path2156"
       style="fill:url(#linearGradient2180);fill-opacity:1;fill-rule:evenodd;stroke:url(#linearGradient2172);stroke-width:1px;stroke-linecap:butt;stroke-linejoin:miter;stroke-opacity:1" />
    <path
       d="m 331.28853,923.71752 c 2.07038,-5.47368 -43.15925,62.18443 -36.93186,65.89451 3.1137,1.85503 20.85759,-20.69756 22.88952,-28.27532 2.03193,-7.57776 20.24966,-25.78293 27.65837,-24.02854 0,0 -15.58542,-8.38395 -13.61603,-13.59065 z"
       id="path2286"
       style="fill:#000000;fill-opacity:1;fill-rule:evenodd;stroke:#000000;stroke-width:1px;stroke-linecap:butt;stroke-linejoin:miter;stroke-opacity:1" />
    <path
       d="m 331.23826,922.3755 c 2.07038,-5.47368 -43.15925,62.18443 -36.93186,65.89451 3.1137,1.85503 20.85759,-20.69756 22.88952,-28.27532 2.03193,-7.57776 20.24966,-25.78293 27.65837,-24.02854 0,0 -15.58542,-8.38395 -13.61603,-13.59065 z"
       id="path2112"
       style="fill:url(#linearGradient2120);fill-opacity:1;fill-rule:evenodd;stroke:#000000;stroke-width:1px;stroke-linecap:butt;stroke-linejoin:miter;stroke-opacity:1" />
    <path
       d="m 331.23106,923.14377 c 2.07038,-5.47368 -44.3506,59.89756 -35.86042,67.68022 12.12184,11.11171 42.76127,-51.9961 57.5787,-48.48732 0,0 -23.68767,-13.9862 -21.71828,-19.1929 z"
       id="path2284"
       style="fill:none;stroke:#000000;stroke-width:1px;stroke-linecap:butt;stroke-linejoin:miter;stroke-opacity:1" />
    <path
       d="m 457.27557,920.83136 c 0,0 -6.84699,21.67368 -8.27557,27.38797 -1.42857,5.71428 6.25,4.46428 5,9.99999 -1.25,5.53571 -5.59173,12.70921 -12.02031,11.63778 -6.42857,-1.07142 -16.55112,-7.35206 -13.69398,-15.92349 2.85714,-8.57143 6.42857,-23.57143 6.42857,-23.57143 l 22.56129,-9.53082 z"
       id="path1347"
       style="fill:#dfdfdf;fill-opacity:1;fill-rule:evenodd;stroke:#000000;stroke-width:1px;stroke-linecap:butt;stroke-linejoin:miter;stroke-opacity:1" />
    <path
       d="m 377.56128,941.69865 c -0.5789,0 -2.09737,14.94925 -0.41842,22.0921 1.76031,7.489 -18.57143,10.57143 -21.42857,2.00001 -2.48465,-7.45395 -2.14286,-22.00001 -2.14286,-22.00001 l 23.98985,-2.0921 z"
       id="path1349"
       style="fill:#dfdfdf;fill-opacity:1;fill-rule:evenodd;stroke:#000000;stroke-width:1px;stroke-linecap:butt;stroke-linejoin:miter;stroke-opacity:1" />
    <path
       d="m 492.35039,996.37983 c 0,0 -2.83022,-1.10841 -4.54568,-2.0203 -1.71546,-0.91189 -1.01015,-0.78168 -2.31617,-1.62727 -1.30603,-0.84559 -1.59424,-1.14037 -2.90792,-1.75508 -1.31368,-0.61471 -1.90301,-2.93088 -3.06109,-4.00734 -1.15809,-1.07646 -3.12871,-2.59192 -4.42839,-2.97707 -1.29967,-0.38515 -3.09174,-3.29568 -3.09174,-3.29568 0,0 -0.12735,-0.49502 -2.40019,-1.75771 -2.27284,-1.26269 -1.46621,-0.13304 -4.45903,-1.59662 -2.99282,-1.46358 -5.11313,-3.50009 -7.51224,-4.25771 -2.39911,-0.75761 -4.6735,-2.96918 -4.6735,-2.96918 l -4.54568,-1.01016 6.56599,-10.10152 c 0,0 4.23187,0.63135 6.50471,2.52538 2.27284,1.89404 2.20413,2.76894 4.72951,4.1579 2.52539,1.38896 4.13997,2.67223 5.90773,3.80866 1.76777,1.13642 3.09328,3.40423 5.44906,5.37989 2.35578,1.97566 2.76632,1.07646 5.04551,3.32632 2.27918,2.24987 5.05339,5.85171 5.05339,5.85171 0,0 3.08013,1.62509 5.73178,3.89794 2.65165,2.27284 4.78553,4.56843 4.78553,4.56843 0,0 2.4118,2.32778 4.30584,4.22182 1.89404,1.89403 1.48459,1.83647 1.48459,1.83647 l 2.52013,3.35699 c 0,0 3.31028,5.4329 3.22698,9.9497 -0.14532,7.8799 -5.37413,12.3659 -5.57379,12.1949 -0.68017,-0.5829 2.63746,-4.29 2.62694,-10.4749 -0.0105,-6.1849 0.0938,-5.5664 -1.17299,-5.7261 -0.84022,-0.1059 -2.22656,5.3684 -2.00945,7.2313 0.52476,4.5029 -3.42816,8.7101 -4.32196,8.4033 -1.44854,0.2235 2.28507,-1.3039 2.2882,-8.7128 0.004,-6.6058 -0.0175,-8.08 -1.2474,-7.9293 -1.4859,0.182 -1.95146,6.4569 -2.27624,12.6158 -0.32477,6.159 -2.83019,3.3627 -3.75295,3.0812 -1.08477,-0.331 2.28549,2.7922 1.99838,-3.8232 -0.28711,-6.6154 -0.39232,-13.1481 -0.39232,-13.1481 0,0 -3.03046,-1.2627 -3.03046,-4.7982 0,-3.53558 -0.50508,-4.41947 -0.50508,-4.41947"
       id="path1351"
       style="fill:#828f85;fill-opacity:1;fill-rule:evenodd;stroke:#000000;stroke-width:1px;stroke-linecap:butt;stroke-linejoin:miter;stroke-opacity:1" />
    <path
       d="m 391.22435,1009.7356 c 0,0 -2.28045,-2.0095 -3.58057,-3.4531 -1.30012,-1.4437 -0.68189,-1.0801 -1.61992,-2.3214 -0.93806,-1.2412 -1.10807,-1.6168 -2.1323,-2.6438 -1.02419,-1.0269 -0.7858,-3.40496 -1.50588,-4.81258 -0.72006,-1.40764 -2.05353,-3.50571 -3.14311,-4.31212 -1.08955,-0.80646 -1.7781,-4.15438 -1.7781,-4.15438 0,0 0.0497,-0.50872 -1.65426,-2.47262 -1.70391,-1.96391 -1.33229,-0.6265 -3.64405,-3.0254 -2.31174,-2.39893 -3.60767,-5.03782 -5.60297,-6.57028 -1.9953,-1.53247 -3.37614,-4.38855 -3.37614,-4.38855 L 359.261,969.0774 c 0,0 8.74281,2.6512 14.15936,-1.22021 5.77385,-4.12678 1.83846,1.92723 3.73648,4.09616 1.89804,2.16893 2.97635,3.92702 4.24882,5.59952 1.27248,1.67249 1.74242,4.2569 3.28042,6.91913 1.53798,2.66224 2.2313,1.95768 3.60355,4.8514 1.37222,2.8937 2.74723,7.22716 2.74723,7.22716 0,0 2.33856,2.58056 4.05292,5.62324 1.71439,3.0427 2.93444,5.9297 2.93444,5.9297 0,0 1.47021,3.0122 2.60223,5.4399 1.13203,2.4276 0.76693,2.2335 0.76693,2.2335 l 1.22002,4.0164 c 0,0 1.25245,6.2375 -0.37064,10.4534 -2.83166,7.355 -8.56513,8.175 -8.69424,7.9459 -0.43983,-0.7803 3.23137,-1.5221 5.33683,-7.3376 2.1055,-5.8155 1.99195,-5.1985 0.8562,-5.7819 -0.75334,-0.3869 -3.92839,4.2831 -4.36153,6.108 -1.04698,4.4108 -6.20044,7.0122 -6.93541,6.4183 -1.4376,-0.2855 2.59321,-0.4437 5.13013,-7.4047 2.26284,-6.2063 2.74712,-7.5988 1.53986,-7.8778 -1.45857,-0.3372 -2.61361,2.5429 -5.02527,8.2193 -2.41168,5.6764 -5.2382,5.0491 -6.00902,4.4689 -0.90613,-0.6821 2.08551,1.7984 4.07832,-4.5163 1.99282,-6.3146 3.23541,-10.8822 3.23541,-10.8822 0,0 -2.41585,-2.223 -1.20659,-5.5453 1.20922,-3.3223 1.0369,-4.3257 1.0369,-4.3257"
       id="path1355"
       style="fill:#828f85;fill-opacity:1;fill-rule:evenodd;stroke:#000000;stroke-width:1px;stroke-linecap:butt;stroke-linejoin:miter;stroke-opacity:1" />
    <path
       d="m 334.39625,828.16912 c 13.02042,-9.25045 61.11732,-42.2553 73.28066,-58.17043 13.24857,-17.3351 42.91662,-91.33214 93.22119,-92.16898 30.3674,-0.51994 30.4779,12.95867 30.4779,12.95867 l 36.36549,-7.07107 c 0,0 10.98613,-0.37039 5.27185,2.48675 -5.71429,2.85715 -37.85714,12.14286 -37.85714,12.14286 l 41.42857,-7.85714 c 0,0 8.57143,1.42857 2.85714,4.28571 -5.71429,2.85715 -43.57143,10 -44.28571,12.14286 -0.71429,2.14286 10,-3.57143 10,-3.57143 0,0 -17.85715,32.14286 -14.28572,49.28572 3.57143,17.14285 20.4054,48.66948 5.00001,82.85714 -21.29142,47.24994 -67.75773,36.98248 -79.87956,12.73882 -11.51751,-23.03503 0.47533,-43.58142 12.75561,-75.61787 13.84515,-36.11887 -46.32225,16.85483 -54.4264,29.3757 -8.49964,13.1319 -54.40884,64.95176 -66.77305,60.40606 -14.15908,-5.20558 -67.08848,85.66934 -67.08848,85.66934 0,0 38.78535,-109.12765 53.93764,-119.89271 z"
       id="path1309"
       style="fill:#000000;fill-opacity:1;fill-rule:evenodd;stroke:#000000;stroke-width:1px;stroke-linecap:butt;stroke-linejoin:miter;stroke-opacity:1" />
    <path
       d="m 327.07709,832.65589 c 0,0 44.81392,-37.87276 33.33503,-23.25382 l -49.41625,62.93404 c 0,0 -2.94308,-8.9177 -14.30458,-14.22336 -11.52581,-5.38239 -22.65508,-1.1063 -28.28427,-14.14213 -4.97897,-11.5301 -22.37497,-17.23713 -20.20305,-26.26397 2.26149,-9.3991 -16.08122,-18.3858 -16.08122,-18.3858 L 38.09224,625.63553 c 0,0 -28.20306,-4.10152 -16.08122,-8.14213 12.12183,-4.04061 15.667877,-1.15065 21.876726,-3.57143 C 46.99217,612.71158 250.10371,777.20464 250.29629,776.28602 250.48886,775.36739 45.331185,609.07298 45.331185,609.07298 l 5.851706,-6.10425 8.622191,-7.69869 c 0,0 210.994918,195.20922 212.999998,195.46175 2.00507,0.25253 -213.665566,-207.53762 -203.79623,-192.84971 5.63387,8.38453 13.61132,-20.79479 13.61132,-20.79479 l 159.6041,165.66502 c 0,0 0.99657,1.54369 -10.33175,-35.80658 -1.31119,-4.32307 22.95866,47.1708 22.95866,47.1708 0,0 12.8799,13.40029 21.60624,20.25689 11.44524,8.99293 30.32932,30.22046 36.00835,36.97825 5.50511,6.55083 14.61132,21.30422 14.61132,21.30422 z"
       id="path2184"
       style="fill:#000000;fill-opacity:1;fill-rule:evenodd;stroke:#000000;stroke-width:1px;stroke-linecap:butt;stroke-linejoin:miter;stroke-opacity:1" />
    <path
       d="m 252.59246,1003.0203 c 0,0 57.80566,-93.65811 66.5504,-99.3724 6.76495,-4.42059 16.28571,-6.42857 27.71428,-9.28572 11.42857,-2.85714 50.76808,-43.01351 52.85714,-52.71428 1.88105,-8.73486 45,-40.14286 45,-40.14286 0,0 0,32.14286 -7.14285,43.57143 -6.9805,11.1688 -138.16922,118.40135 -146.42857,126.42857 -9.24982,8.98985 -25.6784,16.27628 -38.5504,31.51526 z"
       id="path2186"
       style="fill:#000000;fill-opacity:1;fill-rule:evenodd;stroke:#000000;stroke-width:1px;stroke-linecap:butt;stroke-linejoin:miter;stroke-opacity:1" />
    <path
       d="m 420.22345,297.77823 a 7.5761442,7.0710678 0 1 1 -15.15229,0 7.5761442,7.0710678 0 1 1 15.15229,0 z"
       transform="translate(95.3604,402.12183)"
       id="path3161"
       style="fill:#ffffff;fill-opacity:1" />
    <path
       d="m 530.65237,753.48496 c 4.9445,16.79834 20.4054,48.66948 5.00001,82.85714 -21.29142,47.24994 -67.16751,36.67828 -79.87956,12.73882 -12.2318,-23.03503 -3.63434,-30.55963 12.75561,-75.61787 16.8497,-46.32215 51.82807,-54.95707 62.12394,-19.97809 z"
       id="path1307"
       style="opacity:0.62765958;fill:url(#radialGradient3665);fill-opacity:1;fill-rule:evenodd;stroke:#000000;stroke-width:1px;stroke-linecap:butt;stroke-linejoin:miter;stroke-opacity:1" />
    <path
       d="m 405.31593,770.85101 c 13.24857,-17.3351 42.91662,-91.33214 93.22119,-92.16898 30.3674,-0.51994 30.4779,12.95867 30.4779,12.95867 0,0 3.7802,7.55854 3.7802,7.55854 0,0 0.71428,6.42857 0,8.57143 -0.71429,2.14286 -76.88636,13.83581 -120.83606,95.06808 -7.44361,13.75803 -18.80657,-16.07261 -6.64323,-31.98774 z"
       id="path2080"
       style="fill:url(#linearGradient2088);fill-opacity:1;fill-rule:evenodd;stroke:#000000;stroke-width:1px;stroke-linecap:butt;stroke-linejoin:miter;stroke-opacity:1" />
    <path
       d="m 333.46384,828.30715 c 13.02042,-9.25045 68.54368,-72.41552 66.85209,-52.45614 -2.46572,29.09347 4.03309,28.75258 13.0718,26.27345 15.08545,-4.13763 -54.40884,64.95176 -66.77305,60.40606 -14.15908,-5.20558 -67.08848,85.66934 -67.08848,85.66934 0,0 38.78535,-109.12765 53.93764,-119.89271 z"
       id="path2090"
       style="fill:url(#linearGradient2098);fill-opacity:1;fill-rule:evenodd;stroke:#000000;stroke-width:0;stroke-linecap:butt;stroke-linejoin:miter;stroke-miterlimit:4;stroke-opacity:1;stroke-dasharray:none" />
    <path
       d="m 251.08195,1005.2627 c 0,0 57.80566,-93.65811 66.5504,-99.3724 6.76495,-4.42059 16.28571,-6.42857 27.71428,-9.28572 11.42857,-2.85714 50.76808,-43.01351 52.85714,-52.71428 1.88105,-8.73486 45,-40.14286 45,-40.14286 0,0 0,32.14286 -7.14285,43.57143 -6.9805,11.1688 -138.16922,118.40135 -146.42857,126.42857 -9.24982,8.98985 -25.6784,16.27628 -38.5504,31.51526 z"
       id="path2100"
       style="fill:url(#linearGradient2110);fill-opacity:1;fill-rule:evenodd;stroke:#000000;stroke-width:1px;stroke-linecap:butt;stroke-linejoin:miter;stroke-opacity:1" />
    <path
       d="m 326.43843,831.73495 c 0,0 44.81392,-37.87276 33.33503,-23.25382 l -49.41625,62.93404 c 0,0 -2.94308,-8.9177 -14.30458,-14.22336 -11.52581,-5.38239 -22.65508,-1.1063 -28.28427,-14.14213 -4.97897,-11.5301 -22.37497,-17.23713 -20.20305,-26.26397 2.26149,-9.3991 -16.08122,-18.3858 -16.08122,-18.3858 L 37.453585,624.71459 c 0,0 -28.20306,-4.10152 -16.08122,-8.14213 12.12183,-4.04061 15.66787,-1.15065 21.87672,-3.57143 C 46.353515,611.79064 249.46505,776.2837 249.65763,775.36508 249.8502,774.44645 44.692525,608.15204 44.692525,608.15204 l 5.85171,-6.10425 8.622195,-7.69869 c 0,0 210.99491,195.20922 212.99999,195.46175 2.00507,0.25253 -213.66556,-207.53762 -203.79623,-192.84971 5.63387,8.38453 13.61132,-20.79479 13.61132,-20.79479 l 159.6041,165.66502 c 0,0 0.99657,1.54369 -10.33175,-35.80658 -1.31119,-4.32307 22.95866,47.1708 22.95866,47.1708 0,0 12.8799,13.40029 21.60624,20.25689 11.44524,8.99293 30.32932,30.22046 36.00835,36.97825 5.50511,6.55083 14.61132,21.30422 14.61132,21.30422 z"
       id="path2122"
       style="fill:url(#radialGradient3926);fill-opacity:1;fill-rule:evenodd;stroke:#000000;stroke-width:1px;stroke-linecap:butt;stroke-linejoin:miter;stroke-opacity:1" />
    <path
       d="m 390.77084,1009.7601 c 0,0 -2.28045,-2.0096 -3.58057,-3.4532 -1.30012,-1.4436 -0.68189,-1.08 -1.61992,-2.3213 -0.93806,-1.2413 -1.10807,-1.6168 -2.1323,-2.6438 -1.02419,-1.0269 -0.7858,-3.40497 -1.50588,-4.81259 -0.72006,-1.40764 -2.05353,-3.50571 -3.14311,-4.31212 -1.08955,-0.80646 -1.7781,-4.15438 -1.7781,-4.15438 0,0 0.0497,-0.50872 -1.65426,-2.47262 -1.70391,-1.96391 -1.33229,-0.6265 -3.64405,-3.0254 -2.31174,-2.39893 -3.60767,-5.03782 -5.60297,-6.57028 -1.9953,-1.53247 -3.37614,-4.38855 -3.37614,-4.38855 l -3.92605,-2.50397 c 0,0 8.74281,2.6512 14.15936,-1.22021 5.77385,-4.12678 1.83846,1.92723 3.73648,4.09616 1.89804,2.16893 2.97635,3.92702 4.24882,5.59952 1.27248,1.67249 1.74242,4.2569 3.28042,6.91913 1.53798,2.66224 2.2313,1.95768 3.60355,4.8514 1.37222,2.8937 2.74723,7.22716 2.74723,7.22716 0,0 2.33856,2.58056 4.05292,5.62325 1.71439,3.0427 2.93444,5.9297 2.93444,5.9297 0,0 1.47021,3.0122 2.60223,5.4399 1.13203,2.4276 0.76693,2.2335 0.76693,2.2335 l 1.22002,4.0164 c 0,0 1.25245,6.2375 -0.37064,10.4534 -2.83166,7.355 -8.56513,8.1749 -8.69424,7.9459 -0.43983,-0.7803 3.23137,-1.5221 5.33683,-7.3376 2.1055,-5.8155 1.99195,-5.1985 0.8562,-5.7819 -0.75334,-0.3869 -3.92839,4.2831 -4.36153,6.1079 -1.04698,4.4109 -6.20044,7.0123 -6.93541,6.4184 -1.4376,-0.2855 2.59321,-0.4437 5.13013,-7.4048 2.26284,-6.2062 2.74712,-7.5987 1.53986,-7.8778 -1.45857,-0.3371 -2.61361,2.543 -5.02527,8.2194 -2.41168,5.6764 -5.2382,5.049 -6.00902,4.4689 -0.90613,-0.6821 2.08551,1.7984 4.07832,-4.5163 1.99282,-6.3147 3.23541,-10.8822 3.23541,-10.8822 0,0 -2.41585,-2.223 -1.20659,-5.5453 1.20922,-3.3224 1.0369,-4.3257 1.0369,-4.3257"
       id="path2134"
       style="fill:url(#radialGradient2144);fill-opacity:1;fill-rule:evenodd;stroke:#000000;stroke-width:1px;stroke-linecap:butt;stroke-linejoin:miter;stroke-opacity:1" />
    <path
       d="m 491.85691,996.48315 c 0,0 -2.83022,-1.10841 -4.54568,-2.0203 -1.71546,-0.91189 -1.01015,-0.78168 -2.31617,-1.62727 -1.30603,-0.84559 -1.59424,-1.14037 -2.90792,-1.75508 -1.31368,-0.61471 -1.90301,-2.93088 -3.06109,-4.00734 -1.15809,-1.07646 -3.12871,-2.59192 -4.42839,-2.97707 -1.29967,-0.38515 -3.09174,-3.29568 -3.09174,-3.29568 0,0 -0.12735,-0.49502 -2.40019,-1.75771 -2.27284,-1.26269 -1.46621,-0.13304 -4.45903,-1.59662 -2.99282,-1.46358 -5.11313,-3.50009 -7.51224,-4.25771 -2.39911,-0.75761 -4.6735,-2.96918 -4.6735,-2.96918 l -4.54568,-1.01016 6.56599,-10.10152 c 0,0 4.23187,0.63135 6.50471,2.52538 2.27284,1.89404 2.20413,2.76894 4.72951,4.1579 2.52539,1.38896 4.13997,2.67223 5.90773,3.80866 1.76777,1.13642 3.09328,3.40423 5.44906,5.37989 2.35578,1.97566 2.76632,1.07646 5.04551,3.32632 2.27918,2.24987 5.05339,5.85171 5.05339,5.85171 0,0 3.08013,1.62509 5.73178,3.89794 2.65165,2.27284 4.78553,4.56843 4.78553,4.56843 0,0 2.4118,2.32778 4.30584,4.22182 1.89404,1.89403 1.48459,1.83647 1.48459,1.83647 l 2.52013,3.35697 c 0,0 3.31028,5.433 3.22698,9.9497 -0.14532,7.8799 -5.37413,12.366 -5.57379,12.1949 -0.68017,-0.5828 2.63746,-4.29 2.62694,-10.4749 -0.0105,-6.1849 0.0938,-5.5664 -1.17299,-5.7261 -0.84022,-0.1059 -2.22656,5.3684 -2.00945,7.2314 0.52476,4.5029 -3.42816,8.71 -4.32196,8.4032 -1.44854,0.2235 2.28507,-1.3038 2.2882,-8.7127 0.004,-6.6059 -0.0175,-8.0801 -1.2474,-7.9294 -1.4859,0.1821 -1.95146,6.4569 -2.27624,12.6158 -0.32477,6.159 -2.83019,3.3627 -3.75295,3.0812 -1.08477,-0.331 2.28549,2.7922 1.99838,-3.8232 -0.28711,-6.6154 -0.39232,-13.1481 -0.39232,-13.1481 0,0 -3.03046,-1.2627 -3.03046,-4.7982 0,-3.53556 -0.50508,-4.41945 -0.50508,-4.41945"
       id="path2146"
       style="fill:url(#radialGradient2154);fill-opacity:1;fill-rule:evenodd;stroke:#000000;stroke-width:1px;stroke-linecap:butt;stroke-linejoin:miter;stroke-opacity:1" />
    <path
       d="m 456.17184,919.93851 c 0,0 -6.84699,21.67368 -8.27557,27.38797 -1.42857,5.71428 6.25,4.46428 5,9.99999 -1.25,5.53571 -5.59173,12.70921 -12.02031,11.63778 -6.42857,-1.07142 -16.55112,-7.35206 -13.69398,-15.92349 2.85714,-8.57143 6.42857,-23.57143 6.42857,-23.57143 l 22.56129,-9.53082 z"
       id="path2183"
       style="fill:url(#radialGradient2195);fill-opacity:1;fill-rule:evenodd;stroke:none" />
    <path
       d="m 378.28859,940.58826 c -0.5789,0 -2.09737,14.94925 -0.41842,22.0921 1.76031,7.489 -18.57143,10.57143 -21.42857,2.00001 -2.48465,-7.45395 -2.14286,-22.00001 -2.14286,-22.00001 l 23.98985,-2.0921 z"
       id="path2185"
       style="fill:url(#radialGradient2205);fill-opacity:1;fill-rule:evenodd;stroke:none" />
  </g>
</svg>
