<?xml version="1.0" encoding="UTF-8" standalone="no"?>
<!-- Created with Inkscape (http://www.inkscape.org/) -->
<svg
   xmlns:dc="http://purl.org/dc/elements/1.1/"
   xmlns:cc="http://web.resource.org/cc/"
   xmlns:rdf="http://www.w3.org/1999/02/22-rdf-syntax-ns#"
   xmlns:svg="http://www.w3.org/2000/svg"
   xmlns="http://www.w3.org/2000/svg"
   xmlns:xlink="http://www.w3.org/1999/xlink"
   xmlns:sodipodi="http://sodipodi.sourceforge.net/DTD/sodipodi-0.dtd"
   xmlns:inkscape="http://www.inkscape.org/namespaces/inkscape"
   width="792.89996"
   height="517.02081"
   id="svg2114"
   sodipodi:version="0.32"
   inkscape:version="0.44"
   version="1.0"
   sodipodi:docbase="C:\Documents and Settings\salvor\Desktop\inkscape-okt06"
   sodipodi:docname="tree-with-apples.svg">
  <defs
     id="defs2116">
    <linearGradient
       inkscape:collect="always"
       id="linearGradient4514">
      <stop
         style="stop-color:#87cefa;stop-opacity:1;"
         offset="0"
         id="stop4516" />
      <stop
         style="stop-color:#87cefa;stop-opacity:0;"
         offset="1"
         id="stop4518" />
    </linearGradient>
    <linearGradient
       inkscape:collect="always"
       xlink:href="#linearGradient4514"
       id="linearGradient4520"
       x1="457.03748"
       y1="1112.4117"
       x2="245.96338"
       y2="195.0649"
       gradientUnits="userSpaceOnUse" />
  </defs>
  <sodipodi:namedview
     id="base"
     pagecolor="#ffffff"
     bordercolor="#666666"
     borderopacity="1.0"
     inkscape:pageopacity="0.0"
     inkscape:pageshadow="2"
     inkscape:zoom="0.6"
     inkscape:cx="400"
     inkscape:cy="291.72449"
     inkscape:current-layer="layer1"
     inkscape:document-units="px"
     showguides="true"
     inkscape:guide-bbox="true"
     inkscape:window-width="853"
     inkscape:window-height="573"
     inkscape:window-x="85"
     inkscape:window-y="-18" />
  <metadata
     id="metadata2119">
    <rdf:RDF>
      <cc:Work
         rdf:about="">
        <dc:format>image/svg+xml</dc:format>
        <dc:type
           rdf:resource="http://purl.org/dc/dcmitype/StillImage" />
      </cc:Work>
    </rdf:RDF>
  </metadata>
  <g
     id="layer1"
     inkscape:label="Layer 1"
     inkscape:groupmode="layer"
     transform="translate(-5.194812,-71.66666)">
    <path
       sodipodi:type="arc"
       style="opacity:1;color:black;fill:url(#linearGradient4520);fill-opacity:1;fill-rule:evenodd;stroke:none;stroke-width:1;stroke-linecap:butt;stroke-linejoin:round;marker:none;marker-start:none;marker-mid:none;marker-end:none;stroke-miterlimit:4;stroke-dasharray:none;stroke-dashoffset:0;stroke-opacity:1;visibility:visible;display:inline;overflow:visible"
       id="path3627"
       sodipodi:cx="384.16666"
       sodipodi:cy="319.16666"
       sodipodi:rx="327.5"
       sodipodi:ry="269.16666"
       d="M 711.66666 319.16666 A 327.5 269.16666 0 1 1  56.666656,319.16666 A 327.5 269.16666 0 1 1  711.66666 319.16666 z"
       transform="matrix(0.994911,0,0,0.95356,15.28838,23.98866)" />
    <path
       style="opacity:1;color:black;fill:gray;fill-opacity:1;fill-rule:evenodd;stroke:black;stroke-width:1;stroke-linecap:butt;stroke-linejoin:round;marker:none;marker-start:none;marker-mid:none;marker-end:none;stroke-miterlimit:4;stroke-dasharray:none;stroke-dashoffset:0;stroke-opacity:1;visibility:visible;display:inline;overflow:visible"
       d="M 172.8125,124.8125 C 162.71749,125.11193 135.34375,133.34375 135.34375,133.34375 L 148.65625,148.34375 C 148.65625,148.34375 165.34375,133.32291 170.34375,141.65625 C 175.34375,149.98958 210.32292,188.32291 213.65625,201.65625 C 216.98959,214.98958 213.65625,246.65625 213.65625,246.65625 L 118.65625,256.65625 L 135.34375,273.34375 C 135.34375,273.34374 166.98958,253.34375 178.65625,258.34375 C 190.32291,263.34374 207,278.34375 207,278.34375 L 212,333.34375 L 225.34375,283.34375 L 253.65625,280 L 240.34375,431.65625 L 158.65625,343.34375 L 150.34375,313.34375 L 143.65625,340 L 112,348.34375 L 127,365 L 150.34375,355 L 217,441.65625 L 238.65625,471.65625 L 252,531.65625 L 233.53125,560.6875 C 165.41523,563.56283 122.15625,567.78544 122.15625,572.5 C 122.15625,581.15582 267.30042,588.18753 446.15625,588.1875 C 625.01208,588.1875 770.18748,581.1558 770.1875,572.5 C 770.1875,563.84418 625.01207,556.81248 446.15625,556.8125 C 394.81174,556.8125 346.43481,557.40725 303.28125,558.4375 L 302,555 C 295.33333,548.33333 260.32292,468.34375 253.65625,448.34375 C 246.98959,428.34374 287,258.34375 287,258.34375 L 353.65625,223.34375 L 345.34375,208.34375 L 282,248.34375 C 282,248.34375 265.32292,246.67709 268.65625,213.34375 C 271.98959,180.01042 295.34375,126.65625 295.34375,126.65625 L 268.65625,156.65625 L 247,228.34375 C 247,228.34375 233.65625,191.65625 233.65625,181.65625 C 233.65625,171.65625 182.01042,126.66667 175.34375,125 C 174.71875,124.84375 173.85681,124.78152 172.8125,124.8125 z "
       id="path3297" />
    <path
       style="opacity:1;fill:#f08080;fill-opacity:1;fill-rule:evenodd;stroke:#62150c;stroke-width:0;stroke-linecap:butt;stroke-linejoin:round;stroke-miterlimit:4;stroke-dasharray:none;stroke-dashoffset:0;stroke-opacity:0"
       d="M 620.33332,412.14552 C 604.13371,400.71828 610.9546,404.52736 589.63931,409.60614 C 568.32402,414.6849 540.18784,437.53939 518.01993,421.03337 C 495.85203,404.52736 465.25882,424.66553 463.55359,429.7443 C 461.84837,434.82307 506.93599,429.92122 512.90428,431.19093 C 518.87255,432.46062 571.73446,435 571.73446,435 L 595.60759,419.76368 L 618.62811,424.84246 L 620.33332,412.14552 z "
       id="path3291"
       sodipodi:nodetypes="csssscccc" />
    <path
       style="opacity:1;fill:#ffd700;fill-opacity:1;fill-rule:evenodd;stroke:#62150c;stroke-width:0;stroke-linecap:butt;stroke-linejoin:round;stroke-miterlimit:4;stroke-dasharray:none;stroke-dashoffset:0;stroke-opacity:0"
       d="M 437,392.15623 C 442.97036,408.7647 471.32963,435.86273 469.83703,408.7647 C 468.34444,381.66667 468.34444,382.5408 468.34444,382.5408 C 468.34444,382.5408 483.27036,419.25426 501.18147,408.7647 C 519.09258,398.27514 517.6,381.66667 517.6,381.66667 C 517.6,381.66667 534.01851,429.74382 542.97407,414.88361 C 551.92962,400.0234 551.92962,385.16319 551.92962,385.16319 C 551.92962,385.16319 577.30369,422.75078 583.27407,413.13535 C 589.24444,403.51992 598.2,385.16319 592.22962,385.16319 C 586.25925,385.16319 468.34444,382.5408 468.34444,382.5408 L 437,392.15623 z "
       id="path3268" />
    <path
       id="path3270"
       d="M 450.33333,464.47241 C 456.49359,450.01512 485.75488,426.42689 484.2148,450.01512 C 482.67474,473.60334 482.67474,472.84243 482.67474,472.84243 C 482.67474,472.84243 498.07541,440.88419 516.55622,450.01512 C 535.03703,459.14604 533.49697,473.60334 533.49697,473.60334 C 533.49697,473.60334 550.4377,431.75326 559.67811,444.68874 C 568.91851,457.62422 568.91851,470.5597 568.91851,470.5597 C 568.91851,470.5597 595.09965,437.84055 601.25992,446.21056 C 607.4202,454.58058 616.6606,470.5597 610.50033,470.5597 C 604.34006,470.5597 482.67474,472.84243 482.67474,472.84243 L 450.33333,464.47241 z "
       style="opacity:1;fill:#ffd700;fill-opacity:1;fill-rule:evenodd;stroke:#62150c;stroke-width:0;stroke-linecap:butt;stroke-linejoin:round;stroke-miterlimit:4;stroke-dasharray:none;stroke-dashoffset:0;stroke-opacity:0" />
    <path
       style="opacity:1;fill:#a9a9a9;fill-opacity:1;fill-rule:evenodd;stroke:#120e0d;stroke-width:0.5;stroke-linecap:butt;stroke-linejoin:round;stroke-miterlimit:4;stroke-dasharray:none;stroke-dashoffset:0;stroke-opacity:0.94736843"
       d="M 506.17708,293.26042 C 491.87344,293.26042 480.23958,307.8393 480.23958,325.82292 C 480.23958,328.81737 480.60576,331.72434 481.20833,334.47917 C 462.39334,338.24557 441.67398,342.80366 418.67708,348.32292 C 418.67708,349.98958 403.65625,376.65626 411.98958,413.32292 C 420.32291,449.98958 457,398.34375 475.33333,390.01042 C 493.66666,381.67709 600.34374,381.66667 608.67708,386.66667 C 617.01042,391.66667 633.66666,445 605.33333,456.66667 C 577,468.33334 460.33333,450.01041 460.33333,450.01042 C 460.33333,450.01042 456.09627,454.69606 450.52083,461.63542 C 369.10676,425.5622 358.67232,420.63037 374.77083,397.85417 C 391.64456,373.98121 397.2141,357.01637 377.27083,377.97917 C 357.32757,398.94199 355.99839,395.38798 342.89583,392.16667 C 329.79329,388.94537 339.00204,397.6636 338.20833,411.47917 C 337.41462,425.29475 287.64275,419.52918 315.14583,424.13542 C 342.64891,428.74165 367.90852,422.02636 352.30208,438.66667 C 336.69564,455.30696 357.17708,451.72917 357.17708,451.72917 L 439.27083,476.60417 C 431.89503,487.24693 425.09136,499.13015 423.67708,508.32292 C 422.88617,513.46387 435.14396,515.9874 454.42708,516.54167 C 443.94434,573.61499 450.84381,593.84679 465.33333,575.01042 C 477.32902,559.41604 482.392,530.94183 484.30208,516.16667 C 494.23171,515.72755 504.87975,515.01576 515.83333,514.07292 C 503.34732,576.82307 510.22916,599.64584 525.33333,580.01042 C 542,558.34378 545.33333,511.66667 545.33333,511.66667 L 544.58333,511.13542 C 552.28044,510.23745 559.96166,509.2617 567.48958,508.19792 C 572.59442,571.99803 585.46989,592.05649 594.64583,569.04167 C 602.64643,548.97481 598.38262,516.48549 596.23958,503.60417 C 605.52723,501.93719 614.26426,500.15787 622.05208,498.32292 C 640.95839,562.99935 658.4313,581.23486 662.64583,556.26042 C 666.47273,533.58298 653.7454,500.0328 649.58333,489.85417 C 654.46851,487.67892 657.68084,485.48144 658.67708,483.32292 C 663.48204,472.91217 664.01731,444.80954 662.02083,415.82292 C 675.50883,414.09991 690.25657,411.25967 698.67708,406.66667 C 717.01042,396.66667 732.01041,394.98959 738.67708,383.32292 C 745.34375,371.65625 757.01041,399.98959 788.67708,393.32292 C 820.34375,386.65625 760.34374,390 753.67708,371.66667 C 747.01042,353.33334 765.33333,368.33334 780.33333,356.66667 C 795.33333,345 745.34374,358.32293 758.67708,338.32292 C 772.01042,318.32292 760.33333,310.01041 740.33333,330.01042 C 720.33333,350.01042 720.33333,331.66667 710.33333,306.66667 C 700.33333,281.66667 696.98959,318.32293 711.98958,353.32292 C 726.18418,386.44365 689.65918,389.73023 660.27083,395.63542 C 657.6387,371.48273 653.43106,349.51838 648.67708,340.01042 C 643.53071,329.71767 630.5779,322.35445 603.42708,320.76042 C 601.48318,305.18944 590.76112,293.26042 577.83333,293.26042 C 564.3055,293.26042 553.18701,306.31849 552.02083,322.94792 C 545.76095,323.65239 539.10897,324.55128 532.08333,325.57292 C 531.97457,307.70613 520.41327,293.26042 506.17708,293.26042 z "
       id="path3260" />
    <path
       sodipodi:type="arc"
       style="opacity:1;color:black;fill:#fff5ee;fill-opacity:1;fill-rule:evenodd;stroke:black;stroke-width:1;stroke-linecap:butt;stroke-linejoin:round;marker:none;marker-start:none;marker-mid:none;marker-end:none;stroke-miterlimit:4;stroke-dasharray:none;stroke-dashoffset:0;stroke-opacity:1;visibility:visible;display:inline;overflow:visible"
       id="path3283"
       sodipodi:cx="195"
       sodipodi:cy="313.33334"
       sodipodi:rx="15"
       sodipodi:ry="23.333334"
       d="M 210 313.33334 A 15 23.333334 0 1 1  180,313.33334 A 15 23.333334 0 1 1  210 313.33334 z"
       transform="translate(305.3333,21.66667)" />
    <path
       d="M 210 313.33334 A 15 23.333334 0 1 1  180,313.33334 A 15 23.333334 0 1 1  210 313.33334 z"
       sodipodi:ry="23.333334"
       sodipodi:rx="15"
       sodipodi:cy="313.33334"
       sodipodi:cx="195"
       id="path3285"
       style="opacity:1;color:black;fill:#fff5ee;fill-opacity:1;fill-rule:evenodd;stroke:black;stroke-width:1;stroke-linecap:butt;stroke-linejoin:round;marker:none;marker-start:none;marker-mid:none;marker-end:none;stroke-miterlimit:4;stroke-dasharray:none;stroke-dashoffset:0;stroke-opacity:1;visibility:visible;display:inline;overflow:visible"
       sodipodi:type="arc"
       transform="translate(378.6667,16.66667)" />
    <path
       sodipodi:type="arc"
       style="opacity:1;color:black;fill:white;fill-opacity:1;fill-rule:evenodd;stroke:black;stroke-width:1;stroke-linecap:butt;stroke-linejoin:round;marker:none;marker-start:none;marker-mid:none;marker-end:none;stroke-miterlimit:4;stroke-dasharray:none;stroke-dashoffset:0;stroke-opacity:1;visibility:visible;display:inline;overflow:visible"
       id="path3287"
       sodipodi:cx="116.66666"
       sodipodi:cy="366.66666"
       sodipodi:rx="10"
       sodipodi:ry="8.333333"
       d="M 126.66666 366.66666 A 10 8.333333 0 1 1  106.66666,366.66666 A 10 8.333333 0 1 1  126.66666 366.66666 z"
       transform="matrix(0.842029,0,0,0.810435,322.0966,89.50712)" />
    <path
       d="M 126.66666 366.66666 A 10 8.333333 0 1 1  106.66666,366.66666 A 10 8.333333 0 1 1  126.66666 366.66666 z"
       sodipodi:ry="8.333333"
       sodipodi:rx="10"
       sodipodi:cy="366.66666"
       sodipodi:cx="116.66666"
       id="path3289"
       style="opacity:1;color:black;fill:white;fill-opacity:1;fill-rule:evenodd;stroke:black;stroke-width:1;stroke-linecap:butt;stroke-linejoin:round;marker:none;marker-start:none;marker-mid:none;marker-end:none;stroke-miterlimit:4;stroke-dasharray:none;stroke-dashoffset:0;stroke-opacity:1;visibility:visible;display:inline;overflow:visible"
       sodipodi:type="arc"
       transform="matrix(0.596385,0,0,0.915661,378.2551,43.42415)" />
    <path
       sodipodi:type="arc"
       style="opacity:1;color:black;fill:black;fill-opacity:1;fill-rule:evenodd;stroke:black;stroke-width:1;stroke-linecap:butt;stroke-linejoin:round;marker:none;marker-start:none;marker-mid:none;marker-end:none;stroke-miterlimit:4;stroke-dasharray:none;stroke-dashoffset:0;stroke-opacity:1;visibility:visible;display:inline;overflow:visible"
       id="path3293"
       sodipodi:cx="198.33333"
       sodipodi:cy="326.66666"
       sodipodi:rx="8.333333"
       sodipodi:ry="10"
       d="M 206.66666 326.66666 A 8.333333 10 0 1 1  190,326.66666 A 8.333333 10 0 1 1  206.66666 326.66666 z"
       transform="translate(305.3333,21.66667)" />
    <path
       d="M 206.66666 326.66666 A 8.333333 10 0 1 1  190,326.66666 A 8.333333 10 0 1 1  206.66666 326.66666 z"
       sodipodi:ry="10"
       sodipodi:rx="8.333333"
       sodipodi:cy="326.66666"
       sodipodi:cx="198.33333"
       id="path3295"
       style="opacity:1;color:black;fill:black;fill-opacity:1;fill-rule:evenodd;stroke:black;stroke-width:1;stroke-linecap:butt;stroke-linejoin:round;marker:none;marker-start:none;marker-mid:none;marker-end:none;stroke-miterlimit:4;stroke-dasharray:none;stroke-dashoffset:0;stroke-opacity:1;visibility:visible;display:inline;overflow:visible"
       sodipodi:type="arc"
       transform="translate(370.3333,15)" />
    <path
       style="opacity:1;fill:#9acd32;fill-opacity:1;fill-rule:evenodd;stroke:#120e0d;stroke-width:0.5;stroke-linecap:butt;stroke-linejoin:round;stroke-miterlimit:4;stroke-dasharray:none;stroke-dashoffset:0;stroke-opacity:0.94736843"
       d="M 323.33333,156.66667 C 293.33333,178.33333 291.66667,206.66667 308.33333,206.66667 C 325,206.66667 276.66667,235 306.66667,250 C 336.66667,265 395,231.66667 400,220 C 405,208.33333 380,270 428.33333,250 C 476.66667,230 466.66667,128.33333 433.33333,146.66667 C 400,165 408.33333,106.66667 373.33333,111.66667 C 338.33333,116.66667 323.33333,153.33333 323.33333,156.66667 z "
       id="path3596" />
    <path
       style="opacity:1;fill:#9acd32;fill-opacity:1;fill-rule:evenodd;stroke:#120e0d;stroke-width:0.5;stroke-linecap:butt;stroke-linejoin:round;stroke-miterlimit:4;stroke-dasharray:none;stroke-dashoffset:0;stroke-opacity:0.94736843"
       d="M 71.666667,311.66667 C 98.333333,298.33333 98.333333,351.66667 98.333333,351.66667 C 98.333333,351.66667 93.333333,315 118.33333,346.66667 C 143.33333,378.33333 103.33333,411.66667 93.333333,413.33333 C 83.333333,415 -30,381.66667 16.666667,366.66667 C 63.333333,351.66667 6.6666667,321.66667 23.333333,308.33333 C 40,295 60,311.66667 71.666667,311.66667 z "
       id="path3598" />
    <path
       style="opacity:1;fill:#9acd32;fill-opacity:1;fill-rule:evenodd;stroke:#120e0d;stroke-width:0.5;stroke-linecap:butt;stroke-linejoin:round;stroke-miterlimit:4;stroke-dasharray:none;stroke-dashoffset:0;stroke-opacity:0.94736843"
       d="M 111.66667,101.66667 C 150,101.66667 166.66667,146.66667 155,155 C 143.33333,163.33333 215,105 190,163.33333 C 165,221.66667 65,230 68.333333,208.33333 C 71.666667,186.66667 -8.3333333,191.66667 18.333333,148.33333 C 45,105 100,118.33333 98.333333,125 C 96.666667,131.66667 108.33333,98.333333 111.66667,101.66667 z "
       id="path3600" />
    <path
       style="opacity:1;fill:#9acd32;fill-opacity:1;fill-rule:evenodd;stroke:#120e0d;stroke-width:0.5;stroke-linecap:butt;stroke-linejoin:round;stroke-miterlimit:4;stroke-dasharray:none;stroke-dashoffset:0;stroke-opacity:0.94736843"
       d="M 261.66667,75 C 303.33333,81.666667 336.66667,103.33333 318.33333,120 C 300,136.66667 323.33333,123.33333 295,145 C 266.66667,166.66667 195,128.33333 210,115 C 225,101.66667 161.66667,126.66667 166.66667,98.333333 C 171.66667,70 256.66667,76.666667 261.66667,75 z "
       id="path3602" />
    <path
       style="opacity:1;fill:#9acd32;fill-opacity:1;fill-rule:evenodd;stroke:#120e0d;stroke-width:0.5;stroke-linecap:butt;stroke-linejoin:round;stroke-miterlimit:4;stroke-dasharray:none;stroke-dashoffset:0;stroke-opacity:0.94736843"
       d="M 60,241.66667 C 85,233.33333 143.33333,215 148.33333,246.66667 C 153.33333,278.33333 146.66667,290 118.33333,290 C 90,290 105,275 76.666667,293.33333 C 48.333333,311.66667 -6.6666667,326.66667 10,276.66667 C 26.666667,226.66667 65,236.66667 60,241.66667 z "
       id="path3604" />
    <path
       style="opacity:1;fill:#9acd32;fill-opacity:1;fill-rule:evenodd;stroke:#120e0d;stroke-width:0.5;stroke-linecap:butt;stroke-linejoin:round;stroke-miterlimit:4;stroke-dasharray:none;stroke-dashoffset:0;stroke-opacity:0.94736843"
       d="M 190,315 C 223.33333,301.66667 276.66667,318.33333 265,331.66667 C 253.33333,345 290,280 298.33333,321.66667 C 306.66667,363.33333 233.33333,360 233.33333,360 C 233.33333,360 223.33333,375 195,355 C 166.66667,335 176.66667,318.33333 190,315 z "
       id="path3606" />
    <path
       sodipodi:type="arc"
       style="opacity:1;color:black;fill:#f08080;fill-opacity:1;fill-rule:evenodd;stroke:black;stroke-width:1;stroke-linecap:butt;stroke-linejoin:round;marker:none;marker-start:none;marker-mid:none;marker-end:none;stroke-miterlimit:4;stroke-dasharray:none;stroke-dashoffset:0;stroke-opacity:1;visibility:visible;display:inline;overflow:visible"
       id="path3608"
       sodipodi:cx="348.33334"
       sodipodi:cy="192.5"
       sodipodi:rx="21.666666"
       sodipodi:ry="22.5"
       d="M 370.00001 192.5 A 21.666666 22.5 0 1 1  326.66668,192.5 A 21.666666 22.5 0 1 1  370.00001 192.5 z"
       transform="matrix(0.849149,0,0,0.891773,49.21302,18.33363)" />
    <path
       transform="matrix(0.849149,0,0,0.891773,130.8797,35.0003)"
       d="M 370.00001 192.5 A 21.666666 22.5 0 1 1  326.66668,192.5 A 21.666666 22.5 0 1 1  370.00001 192.5 z"
       sodipodi:ry="22.5"
       sodipodi:rx="21.666666"
       sodipodi:cy="192.5"
       sodipodi:cx="348.33334"
       id="path3610"
       style="opacity:1;color:black;fill:#f08080;fill-opacity:1;fill-rule:evenodd;stroke:black;stroke-width:1;stroke-linecap:butt;stroke-linejoin:round;marker:none;marker-start:none;marker-mid:none;marker-end:none;stroke-miterlimit:4;stroke-dasharray:none;stroke-dashoffset:0;stroke-opacity:1;visibility:visible;display:inline;overflow:visible"
       sodipodi:type="arc" />
    <path
       sodipodi:type="arc"
       style="opacity:1;color:black;fill:#f08080;fill-opacity:1;fill-rule:evenodd;stroke:black;stroke-width:1;stroke-linecap:butt;stroke-linejoin:round;marker:none;marker-start:none;marker-mid:none;marker-end:none;stroke-miterlimit:4;stroke-dasharray:none;stroke-dashoffset:0;stroke-opacity:1;visibility:visible;display:inline;overflow:visible"
       id="path3612"
       sodipodi:cx="348.33334"
       sodipodi:cy="192.5"
       sodipodi:rx="21.666666"
       sodipodi:ry="22.5"
       d="M 370.00001 192.5 A 21.666666 22.5 0 1 1  326.66668,192.5 A 21.666666 22.5 0 1 1  370.00001 192.5 z"
       transform="matrix(0.849149,0,0,0.891773,-50.78697,-63.33303)" />
    <path
       transform="matrix(0.849149,0,0,0.891773,-202.4536,6.66697)"
       d="M 370.00001 192.5 A 21.666666 22.5 0 1 1  326.66668,192.5 A 21.666666 22.5 0 1 1  370.00001 192.5 z"
       sodipodi:ry="22.5"
       sodipodi:rx="21.666666"
       sodipodi:cy="192.5"
       sodipodi:cx="348.33334"
       id="path3614"
       style="opacity:1;color:black;fill:#f08080;fill-opacity:1;fill-rule:evenodd;stroke:black;stroke-width:1;stroke-linecap:butt;stroke-linejoin:round;marker:none;marker-start:none;marker-mid:none;marker-end:none;stroke-miterlimit:4;stroke-dasharray:none;stroke-dashoffset:0;stroke-opacity:1;visibility:visible;display:inline;overflow:visible"
       sodipodi:type="arc" />
    <path
       sodipodi:type="arc"
       style="opacity:1;color:black;fill:#f08080;fill-opacity:1;fill-rule:evenodd;stroke:black;stroke-width:1;stroke-linecap:butt;stroke-linejoin:round;marker:none;marker-start:none;marker-mid:none;marker-end:none;stroke-miterlimit:4;stroke-dasharray:none;stroke-dashoffset:0;stroke-opacity:1;visibility:visible;display:inline;overflow:visible"
       id="path3616"
       sodipodi:cx="348.33334"
       sodipodi:cy="192.5"
       sodipodi:rx="21.666666"
       sodipodi:ry="22.5"
       d="M 370.00001 192.5 A 21.666666 22.5 0 1 1  326.66668,192.5 A 21.666666 22.5 0 1 1  370.00001 192.5 z"
       transform="matrix(0.849149,0,0,0.891773,-249.1203,98.33364)" />
    <path
       transform="matrix(0.849149,0,0,0.891773,-177.4536,86.66697)"
       d="M 370.00001 192.5 A 21.666666 22.5 0 1 1  326.66668,192.5 A 21.666666 22.5 0 1 1  370.00001 192.5 z"
       sodipodi:ry="22.5"
       sodipodi:rx="21.666666"
       sodipodi:cy="192.5"
       sodipodi:cx="348.33334"
       id="path3618"
       style="opacity:1;color:black;fill:#f08080;fill-opacity:1;fill-rule:evenodd;stroke:black;stroke-width:1;stroke-linecap:butt;stroke-linejoin:round;marker:none;marker-start:none;marker-mid:none;marker-end:none;stroke-miterlimit:4;stroke-dasharray:none;stroke-dashoffset:0;stroke-opacity:1;visibility:visible;display:inline;overflow:visible"
       sodipodi:type="arc" />
    <path
       sodipodi:type="arc"
       style="opacity:1;color:black;fill:#f08080;fill-opacity:1;fill-rule:evenodd;stroke:black;stroke-width:1;stroke-linecap:butt;stroke-linejoin:round;marker:none;marker-start:none;marker-mid:none;marker-end:none;stroke-miterlimit:4;stroke-dasharray:none;stroke-dashoffset:0;stroke-opacity:1;visibility:visible;display:inline;overflow:visible"
       id="path3620"
       sodipodi:cx="348.33334"
       sodipodi:cy="192.5"
       sodipodi:rx="21.666666"
       sodipodi:ry="22.5"
       d="M 370.00001 192.5 A 21.666666 22.5 0 1 1  326.66668,192.5 A 21.666666 22.5 0 1 1  370.00001 192.5 z"
       transform="matrix(0.849149,0,0,0.891773,-224.1203,196.667)" />
    <path
       transform="matrix(0.849149,0,0,0.891773,-75.78697,163.3337)"
       d="M 370.00001 192.5 A 21.666666 22.5 0 1 1  326.66668,192.5 A 21.666666 22.5 0 1 1  370.00001 192.5 z"
       sodipodi:ry="22.5"
       sodipodi:rx="21.666666"
       sodipodi:cy="192.5"
       sodipodi:cx="348.33334"
       id="path3622"
       style="opacity:1;color:black;fill:#f08080;fill-opacity:1;fill-rule:evenodd;stroke:black;stroke-width:1;stroke-linecap:butt;stroke-linejoin:round;marker:none;marker-start:none;marker-mid:none;marker-end:none;stroke-miterlimit:4;stroke-dasharray:none;stroke-dashoffset:0;stroke-opacity:1;visibility:visible;display:inline;overflow:visible"
       sodipodi:type="arc" />
    <path
       transform="matrix(0.849149,0,0,0.891773,55.87967,201.667)"
       d="M 370.00001 192.5 A 21.666666 22.5 0 1 1  326.66668,192.5 A 21.666666 22.5 0 1 1  370.00001 192.5 z"
       sodipodi:ry="22.5"
       sodipodi:rx="21.666666"
       sodipodi:cy="192.5"
       sodipodi:cx="348.33334"
       id="path4522"
       style="opacity:1;color:black;fill:#f08080;fill-opacity:1;fill-rule:evenodd;stroke:black;stroke-width:1;stroke-linecap:butt;stroke-linejoin:round;marker:none;marker-start:none;marker-mid:none;marker-end:none;stroke-miterlimit:4;stroke-dasharray:none;stroke-dashoffset:0;stroke-opacity:1;visibility:visible;display:inline;overflow:visible"
       sodipodi:type="arc" />
  </g>
</svg>
