<?xml version="1.0" encoding="UTF-8" standalone="no"?>
<!-- Created with Inkscape (http://www.inkscape.org/) -->
<svg
   xmlns:dc="http://purl.org/dc/elements/1.1/"
   xmlns:cc="http://web.resource.org/cc/"
   xmlns:rdf="http://www.w3.org/1999/02/22-rdf-syntax-ns#"
   xmlns:svg="http://www.w3.org/2000/svg"
   xmlns="http://www.w3.org/2000/svg"
   xmlns:xlink="http://www.w3.org/1999/xlink"
   xmlns:sodipodi="http://sodipodi.sourceforge.net/DTD/sodipodi-0.dtd"
   xmlns:inkscape="http://www.inkscape.org/namespaces/inkscape"
   id="svg2"
   sodipodi:version="0.32"
   inkscape:version="0.44+devel"
   width="788"
   height="496"
   version="1.0"
   sodipodi:docbase="C:\Documents and Settings\James\デスクトップ"
   sodipodi:docname="MACHOV~1.PNG.svg"
   inkscape:output_extension="org.inkscape.output.svg.inkscape"
   sodipodi:modified="true">
  <sodipodi:namedview
     inkscape:window-height="841"
     inkscape:window-width="1152"
     inkscape:pageshadow="2"
     inkscape:pageopacity="0.0"
     guidetolerance="10.0"
     gridtolerance="10.0"
     objecttolerance="10.0"
     borderopacity="1.0"
     bordercolor="#666666"
     pagecolor="#ffffff"
     id="base"
     inkscape:zoom="0.61153895"
     inkscape:cx="-62.449691"
     inkscape:cy="171.30686"
     inkscape:window-x="-4"
     inkscape:window-y="-4"
     inkscape:current-layer="svg2"
     showguides="true"
     inkscape:guide-bbox="true" />
  <metadata
     id="metadata7">
    <rdf:RDF>
      <cc:Work
         rdf:about="">
        <dc:format>image/svg+xml</dc:format>
        <dc:type
           rdf:resource="http://purl.org/dc/dcmitype/StillImage" />
      </cc:Work>
    </rdf:RDF>
  </metadata>
  <defs
     id="defs5">
    <marker
       refY="0.0"
       refX="0.0"
       style="overflow:visible"
       id="Dot_m"
       orient="auto"
       inkscape:stockid="Dot_m">
      <path
         style="fill-rule:evenodd;stroke:#000000;stroke-width:1.0pt;marker-start:none;marker-end:none"
         d="M -2.5,-1.0 C -2.5,1.7600000 -4.7400000,4.0 -7.5,4.0 C -10.260000,4.0 -12.5,1.7600000 -12.5,-1.0 C -12.5,-3.7600000 -10.260000,-6.0 -7.5,-6.0 C -4.7400000,-6.0 -2.5,-3.7600000 -2.5,-1.0 z "
         id="path6291"
         transform="scale(0.4) translate(7.4, 1)" />
    </marker>
  </defs>
  <g
     transform="matrix(-1,0,0,-1,665.45037,664.45915)"
     id="g7016"
     inkscape:transform-center-x="57.066311"
     inkscape:transform-center-y="3.6711886">
    <path
       style="opacity:1;fill:#333333;fill-opacity:1;fill-rule:evenodd;stroke:none;stroke-width:1.5;stroke-linecap:butt;stroke-miterlimit:4;stroke-dasharray:none;stroke-dashoffset:0;stroke-opacity:1"
       d="M 399.03125,316.59375 C 373.95524,316.60836 345.02519,318.7745 341.65625,318.9375 C 335.40357,319.24001 330.80757,321.36799 331.875,329.5625 C 333.22633,339.93641 341.64846,338.00054 344.03125,337.90625 C 346.30932,337.81612 439.1542,333.86307 436.6875,322.4375 C 435.70131,317.86955 418.53481,316.58239 399.03125,316.59375 z M 340,322.4375 C 343.31883,322.43751 346.03125,325.14993 346.03125,328.46875 C 346.03124,331.78758 343.31883,334.50001 340,334.5 C 336.68117,334.49999 333.96875,331.78759 333.96875,328.46875 C 333.96876,325.14992 336.68117,322.43751 340,322.4375 z M 340,323.9375 C 337.49276,323.9375 335.46876,325.96152 335.46875,328.46875 C 335.46875,330.97599 337.49276,333 340,333 C 342.50724,333 344.53124,330.976 344.53125,328.46875 C 344.53125,325.96151 342.50724,323.93752 340,323.9375 z "
       id="path7018" />
    <path
       id="path7020"
       style="fill:#1a1a1a;fill-opacity:1;fill-rule:evenodd;stroke:none;stroke-width:1.5;stroke-linecap:butt;stroke-miterlimit:4;stroke-dashoffset:0;stroke-opacity:1"
       d="M 393.49763,324.92977 L 412.24658,311.91673 L 461.92967,323.54488 L 443.48391,336.83653 L 393.49763,324.92977 z M 399.23376,323.44654 L 413.27089,313.15412 C 413.27089,313.15412 422.85842,319.91467 419.96577,322.73361 C 417.07313,325.55256 399.03709,323.80711 399.23376,323.44654 z M 457.09641,324.52428 L 443.05928,334.8167 C 443.05928,334.8167 433.47175,328.05615 436.3644,325.23721 C 439.25704,322.41826 457.29308,324.16371 457.09641,324.52428 z M 434.16679,323.70459 C 434.16679,326.65155 431.77506,329.04329 428.82809,329.04329 C 425.88113,329.04329 423.4894,326.65155 423.4894,323.70459 C 423.4894,320.75763 425.88113,318.36589 428.82809,318.36589 C 431.77506,318.36589 434.16679,320.75763 434.16679,323.70459 z "
       transform="translate(0.3277789,0.4507036)" />
  </g>
  <rect
     transform="matrix(0.2712286,0.962515,-0.962515,0.2712286,524.42464,-192.10145)"
     y="39.80542"
     x="207.17838"
     height="16.416708"
     style="opacity:1;fill:#6b7300;fill-opacity:1;fill-rule:evenodd;stroke:none;stroke-width:1;stroke-linecap:round;stroke-miterlimit:4;stroke-dasharray:none;stroke-dashoffset:0;stroke-opacity:1"
     id="rect2471"
     width="195.64612" />
  <g
     id="g4142"
     transform="translate(712.1556,112.8117)">
    <path
       style="opacity:1;fill:#1a1a1a;fill-opacity:1;fill-rule:evenodd;stroke:none;stroke-width:1;stroke-linecap:round;stroke-miterlimit:4;stroke-dasharray:none;stroke-dashoffset:0;stroke-opacity:1"
       id="path2183"
       sodipodi:nodetypes="ccccccccccsccc"
       transform="translate(-712.4077,-114.51386)"
       d="M 282.72519,171.03516 L 280.3109,137.06393 L 263.0697,104.99531 L 265.58897,103.32889 C 266.12487,100.41787 265.86097,99.722383 262.79416,98.946354 L 259.42202,100.31098 L 249.92231,82.374065 L 240.06832,85.654407 L 249.29249,105.06091 L 243.36173,108.11819 C 243.36173,108.11819 243.05994,109.75836 243.716,111.03114 C 244.37206,112.30391 246.26151,113.28801 246.26151,113.28801 L 251.37876,110.76871 L 282.72519,171.03516 z " />
    <path
       transform="matrix(0.793608,0,0,0.793608,-661.03513,-92.338891)"
       sodipodi:cy="110.2701"
       sodipodi:type="arc"
       sodipodi:cx="245.69733"
       style="opacity:1;fill:none;fill-opacity:1;fill-rule:evenodd;stroke:#b3b3b3;stroke-width:1.26006782;stroke-linecap:round;stroke-miterlimit:4;stroke-dasharray:none;stroke-dashoffset:0;stroke-opacity:1"
       id="path2186"
       sodipodi:rx="2.2568755"
       d="M 247.9542 110.2701 A 2.2568755 2.2568755 0 1 1  243.44045,110.2701 A 2.2568755 2.2568755 0 1 1  247.9542 110.2701 z"
       sodipodi:ry="2.2568755" />
    <path
       style="fill:#333333;fill-opacity:1;fill-rule:evenodd;stroke:none;stroke-width:1;stroke-linecap:round;stroke-miterlimit:4;stroke-dashoffset:0;stroke-opacity:1"
       d="M 243.0625,85.75 C 245.73506,84.863208 249.33127,83.577931 251.3125,83.0625 C 261.65196,80.372621 283.16958,76.660051 290.28125,76.84375 C 297.3929,77.027451 299.45348,81.523649 302.8125,81.15625 C 306.17151,80.788851 307.77054,76.682461 307.46875,74.28125 C 307.16697,71.880043 303.99457,62.456829 291.28125,62.3125 C 270.62697,62.078023 253.41139,73.655737 234.6875,74.0625 C 233.89662,74.079681 233.51361,73.997968 232.78125,74 C 237.0208,78.820705 241.71234,84.182387 243.0625,85.75 z M 199.59375,94.125 C 201.51375,94.570764 203.58707,94.918178 206.03125,94.9375 C 216.22639,95.018097 230.15935,90.065399 241.3125,86.3125 C 239.88097,85.86671 239.08064,85.567641 236.25,84.84375 C 233.99562,84.26723 231.50907,83.695188 229.09375,83.28125 C 226.67843,82.867312 224.33834,82.607045 222.40625,82.65625 C 220.47416,82.705455 218.42591,82.957253 216.34375,83.40625 C 214.26159,83.855247 212.1555,84.499235 210.125,85.40625 C 208.0945,86.313265 206.12085,87.482991 204.34375,88.90625 C 203.4552,89.617879 202.63112,90.398392 201.84375,91.25 C 201.05638,92.101608 200.31723,93.001136 199.65625,94 C 199.62663,94.044761 199.62112,94.0807 199.59375,94.125 z "
       transform="translate(-711.25304,-112.15201)"
       id="path2197" />
    <path
       style="opacity:1;fill:#999999;fill-opacity:1;fill-rule:evenodd;stroke:none;stroke-width:1;stroke-linecap:round;stroke-miterlimit:4;stroke-dasharray:none;stroke-dashoffset:0;stroke-opacity:1"
       transform="translate(-711.25304,-112.15201)"
       id="path2190"
       d="M 199.59375,94.125 C 199.62112,94.0807 199.62663,94.044761 199.65625,94 C 200.31723,93.001136 201.05638,92.101608 201.84375,91.25 C 202.63112,90.398392 203.4552,89.617879 204.34375,88.90625 C 206.12085,87.482991 208.0945,86.313265 210.125,85.40625 C 212.1555,84.499235 214.26159,83.855247 216.34375,83.40625 C 218.42591,82.957253 220.47416,82.705455 222.40625,82.65625 C 224.33834,82.607045 226.67843,82.867312 229.09375,83.28125 C 231.50907,83.695188 233.99562,84.26723 236.25,84.84375 C 239.08064,85.567641 239.88097,85.86671 241.3125,86.3125 C 241.90219,86.114076 242.49631,85.937868 243.0625,85.75 C 241.71234,84.182387 237.0208,78.820705 232.78125,74 C 216.17497,74.046069 213.70015,70.43172 201.9375,70.34375 C 189.6561,70.251902 186.67387,76.512161 187.09375,82.0625 C 187.43634,86.591195 191.08286,92.149038 199.59375,94.125 z " />
  </g>
  <g
     id="g5181"
     transform="translate(55.155725,26.11052)">
    <g
       id="g5163">
      <path
         style="opacity:1;fill:#1a1a1a;fill-opacity:1;fill-rule:evenodd;stroke:none;stroke-width:3;stroke-linecap:butt;stroke-miterlimit:4;stroke-dasharray:none;stroke-dashoffset:0;stroke-opacity:1"
         d="M 361.92348,155.39416 C 360.63871,159.84753 381.98502,179.23228 383.85141,178.70273 C 385.7178,178.17319 393.53928,150.08137 392.56702,149.61259 C 391.59476,149.14382 364.11975,150.99288 361.92348,155.39416 z "
         id="path5155"
         transform="translate(-58.248771,-25.348614)" />
      <path
         transform="translate(-57.719237,-25.331252)"
         sodipodi:cy="157.5731"
         sodipodi:type="arc"
         sodipodi:cx="368.2345"
         style="opacity:1;fill:none;fill-opacity:1;fill-rule:evenodd;stroke:#ffffff;stroke-width:1.5;stroke-linecap:butt;stroke-miterlimit:4;stroke-dasharray:none;stroke-dashoffset:0;stroke-opacity:1"
         id="path5157"
         sodipodi:rx="2.8299701"
         d="M 371.06447 157.5731 A 2.8299701 2.8299701 0 1 1  365.40453,157.5731 A 2.8299701 2.8299701 0 1 1  371.06447 157.5731 z"
         sodipodi:ry="2.8299701" />
      <use
         transform="translate(18.195145,-3.0730857)"
         y="0"
         x="0"
         height="496"
         id="use5159"
         xlink:href="#path5157"
         width="788" />
      <use
         transform="translate(12.769589,13.559772)"
         y="0"
         x="0"
         height="496"
         id="use5161"
         xlink:href="#path5157"
         width="788" />
    </g>
    <path
       style="opacity:1;fill:#7b7723;fill-opacity:1;fill-rule:evenodd;stroke:none;stroke-width:1.5;stroke-linecap:butt;stroke-miterlimit:4;stroke-dasharray:none;stroke-dashoffset:0;stroke-opacity:1"
       transform="translate(-59.932864,-26.893838)"
       id="path5171"
       d="M 356.04652,172.12251 L 361.02067,166.40171 L 373.51247,177.24432 L 367.56606,183.69433 L 356.04652,172.12251 z " />
    <path
       style="opacity:1;fill:#1a1a1a;fill-opacity:1;fill-rule:evenodd;stroke:none;stroke-width:1.5;stroke-linecap:butt;stroke-miterlimit:4;stroke-dasharray:none;stroke-dashoffset:0;stroke-opacity:1"
       transform="translate(-59.932864,-26.893838)"
       id="path5169"
       d="M 336.73154,189.02448 L 339.83062,187.27959 L 339.82194,183.62488 L 343.25089,183.45994 L 346.15899,180.36081 L 345.95064,176.29809 L 350.00462,176.60192 L 352.95612,173.69378 L 352.66097,169.77863 L 355.93367,170.21268 L 370.99501,185.92535 L 366.94972,185.56075 L 365.43056,187.65288 L 365.14409,191.55934 L 359.52756,192.47085 L 358.1907,194.5977 L 359.68381,197.93122 L 355.75137,199.1292 L 343.70229,195.41372 L 336.73154,189.02448 z " />
    <path
       style="opacity:1;fill:#1a1a1a;fill-opacity:1;fill-rule:evenodd;stroke:none;stroke-width:1.5;stroke-linecap:butt;stroke-miterlimit:4;stroke-dasharray:none;stroke-dashoffset:0;stroke-opacity:1"
       transform="translate(-59.932864,-26.893838)"
       id="path5173"
       d="M 359.54492,163.01611 C 359.22372,163.63246 359.22372,165.13428 359.22372,165.13428 L 376.04729,179.32777 L 377.74874,178.59856 L 377.28866,176.54984 L 361.48944,163.42412 L 359.54492,163.01611 z " />
    <path
       style="opacity:1;fill:#1a1a1a;fill-opacity:1;fill-rule:evenodd;stroke:#4d4d4d;stroke-width:1;stroke-linecap:butt;stroke-miterlimit:4;stroke-dasharray:none;stroke-dashoffset:0;stroke-opacity:1"
       transform="translate(-59.932864,-26.893838)"
       id="path5175"
       d="M 367.34036,167.02674 L 361.6891,161.61846 L 353.67664,161.69659 L 350.72513,163.13764 L 348.17295,159.17909 L 361.38527,158.82317 L 368.70326,165.78536 L 367.34036,167.02674 z " />
    <path
       style="opacity:1;fill:#1a1a1a;fill-opacity:1;fill-rule:evenodd;stroke:none;stroke-width:1;stroke-linecap:butt;stroke-miterlimit:4;stroke-dasharray:none;stroke-dashoffset:0;stroke-opacity:1"
       transform="translate(-59.932864,-26.893838)"
       id="path5177"
       d="M 372.93953,168.65878 L 369.73628,172.19196 L 364.48434,167.99902 L 369.16334,163.48488 L 373.60796,168.30286 L 372.93953,168.65878 z " />
    <rect
       transform="matrix(0.7329169,-0.6803181,0.6803181,0.7329169,-72.258116,240.19357)"
       y="165.75931"
       x="324.12689"
       height="8.4266987"
       style="opacity:1;fill:#484850;fill-opacity:1;fill-rule:evenodd;stroke:none;stroke-width:1;stroke-linecap:butt;stroke-miterlimit:4;stroke-dasharray:none;stroke-dashoffset:0;stroke-opacity:1"
       id="rect5179"
       width="15.195337" />
  </g>
  <g
     id="g5146"
     transform="translate(18.153145,7.6224567)">
    <rect
       transform="matrix(0.7225837,-0.7506065,0.4193798,0.3949704,7.5692335,350.75685)"
       y="188.17395"
       x="252.67744"
       height="12.002612"
       style="opacity:1;fill:#a09b05;fill-opacity:1;fill-rule:evenodd;stroke:none;stroke-width:1;stroke-linecap:round;stroke-miterlimit:4;stroke-dasharray:none;stroke-dashoffset:0;stroke-opacity:1"
       id="rect4148"
       width="59.146912" />
    <use
       transform="translate(-19.27046,-12.26693)"
       y="0"
       x="0"
       height="496"
       id="use5132"
       xlink:href="#path4150"
       width="788" />
    <use
       transform="translate(32.380356,-33.713658)"
       y="0"
       x="0"
       height="496"
       id="use5134"
       xlink:href="#use5132"
       width="788" />
    <path
       style="fill:none;fill-opacity:1;fill-rule:evenodd;stroke:#1a1a1a;stroke-width:3;stroke-linecap:butt;stroke-miterlimit:4;stroke-dasharray:none;stroke-dashoffset:0;stroke-opacity:1"
       id="use5136"
       sodipodi:nodetypes="cssc"
       transform="translate(0.1087961,-32.802478)"
       d="M 297.01174,238.86004 C 295.63371,237.95896 292.56791,232.35932 293.61187,231.72019 C 294.50729,231.172 309.86798,246.73464 311.60398,246.24467 C 314.02385,245.56168 308.66077,238.46818 307.29295,237.39127" />
    <use
       transform="translate(-6.5141499,6.8270499)"
       y="0"
       x="0"
       height="496"
       id="use5138"
       xlink:href="#use5136"
       width="788" />
    <use
       transform="translate(-6.2829584,6.582255)"
       y="0"
       x="0"
       height="496"
       id="use5140"
       xlink:href="#use5138"
       width="788" />
    <use
       transform="translate(-6.3781554,7.4934348)"
       y="0"
       x="0"
       height="496"
       id="use5142"
       xlink:href="#use5140"
       width="788" />
  </g>
  <path
     style="opacity:1;fill:#1a1a1a;fill-opacity:1;fill-rule:evenodd;stroke:none;stroke-width:1.5;stroke-linecap:butt;stroke-miterlimit:4;stroke-dasharray:none;stroke-dashoffset:0;stroke-opacity:1"
     d="M 512.74554,29.397022 L 534.52597,91.312121 L 547.33697,87.211497 L 548.8218,90.647388 L 566.95058,85.087806 L 563.12627,73.053555 L 542.99462,79.238895 L 534.96624,42.432688 L 552.55978,36.79541 L 549.01172,25.12374 L 532.0829,31.106334 L 525.13353,25.633081 L 512.74554,29.397022 z "
     id="path6963"
     transform="translate(-2.1523852,-0.6782233)"
     sodipodi:nodetypes="ccccccccccccc" />
  <path
     style="fill:#60554c;fill-opacity:1;fill-rule:evenodd;stroke:none;stroke-width:1;stroke-linecap:round;stroke-miterlimit:4;stroke-dashoffset:0;stroke-opacity:1"
     d="M 733.1172,385.0675 L 711.01748,364.51998 L 713.93146,360.93118 C 713.93146,360.93118 700.50205,350.55292 705.40447,343.92468 C 710.30689,337.29645 721.7837,341.84664 721.7837,341.84664 L 737.76883,291.56289 C 737.76883,291.56289 700.20547,278.84841 685.08618,268.31489 C 669.96689,257.78137 643.46037,232.32947 643.46037,232.32947 L 643.49619,221.80192 C 643.49619,221.80192 633.98991,209.9129 635.59619,207.34521 C 637.20246,204.77751 640.3135,205.03428 643.20957,205.0104 C 646.10564,204.98651 696.31814,204.92083 702.19388,205.01637 C 708.06962,205.11191 755.55596,202.12902 763.62316,198.46259 C 767.29914,191.08044 770.73218,178.90809 781.82085,169.60468 C 792.90952,160.30127 860.68359,123.06378 860.68359,123.06378 C 860.68359,123.06378 869.45265,116.75774 874.53422,115.09769 C 879.61578,113.43765 893.40944,109.51445 893.40944,109.51445 L 898.27007,113.34808 L 901.55427,112.80468 L 910.48134,148.26872 L 897.51172,151.76082 L 893.67815,151.81456 L 733.1172,385.0675 z M 854.66784,162.93642 L 732.65924,341.72991 C 732.65924,341.72991 753.66958,301.3975 762.85738,277.81959 C 772.04519,254.24169 777.08868,220.75989 791.23148,198.23572 C 803.61669,178.51072 835.42415,161.30186 854.66784,162.93642 z M 654.4616,221.57717 C 690.57511,223.42426 724.66428,220.50093 757.65547,214.99022 L 742.04972,278.08983 C 709.03745,265.36745 678.69594,248.36541 654.4616,221.57717 z "
     transform="translate(-367.49483,-70.294703)"
     id="path2461" />
  <g
     id="g2537"
     transform="translate(365.91355,68.936562)">
    <path
       style="fill:#000000;fill-opacity:1;fill-rule:evenodd;stroke:none;stroke-width:1;stroke-linecap:round;stroke-miterlimit:4;stroke-dasharray:none;stroke-dashoffset:0;stroke-opacity:1"
       transform="translate(-365.67007,-70.258174)"
       id="path2161"
       d="M 151.28125,198.3125 C 71.021161,198.3125 5.90625,263.45866 5.90625,343.71875 C 5.90625,423.97884 71.021161,489.125 151.28125,489.125 C 231.54134,489.125 296.68752,423.97884 296.6875,343.71875 C 296.6875,263.45866 231.54134,198.3125 151.28125,198.3125 z M 151.28125,219.1875 C 220.24161,219.1875 275.8125,274.75839 275.8125,343.71875 C 275.81252,412.67911 220.24161,468.25 151.28125,468.25 C 82.320889,468.25 26.78125,412.68453 26.78125,343.71875 C 26.78125,274.75297 82.320889,219.1875 151.28125,219.1875 z " />
    <path
       style="fill:#a9a300;fill-opacity:1;fill-rule:evenodd;stroke:none;stroke-width:1;stroke-linecap:round;stroke-miterlimit:4;stroke-dasharray:none;stroke-dashoffset:0;stroke-opacity:1"
       transform="translate(-365.67007,-70.258174)"
       id="path2165"
       d="M 151.28125,211.25 C 78.022215,211.25 18.84375,270.45636 18.84375,343.71875 C 18.84375,416.98114 78.022215,476.1875 151.28125,476.1875 C 224.54029,476.1875 283.75002,416.97778 283.75,343.71875 C 283.75,270.45971 224.54029,211.25 151.28125,211.25 z M 151.28125,219.1875 C 220.24161,219.1875 275.8125,274.75839 275.8125,343.71875 C 275.81252,412.67911 220.24161,468.25 151.28125,468.25 C 82.320889,468.25 26.78125,412.68453 26.78125,343.71875 C 26.78125,274.75297 82.320889,219.1875 151.28125,219.1875 z " />
    <path
       style="fill:#000000;fill-opacity:1;fill-rule:evenodd;stroke:none;stroke-width:1;stroke-linecap:round;stroke-miterlimit:4;stroke-dasharray:none;stroke-dashoffset:0;stroke-opacity:1"
       d="M 151.28125,198.3125 C 71.021161,198.3125 5.90625,263.45866 5.90625,343.71875 C 5.90625,423.97884 71.021161,489.125 151.28125,489.125 C 231.54134,489.125 296.68752,423.97884 296.6875,343.71875 C 296.6875,263.45866 231.54134,198.3125 151.28125,198.3125 z M 151.28125,219.1875 C 220.24161,219.1875 275.8125,274.75839 275.8125,343.71875 C 275.81252,412.67911 220.24161,468.25 151.28125,468.25 C 82.320889,468.25 26.78125,412.68453 26.78125,343.71875 C 26.78125,274.75297 82.320889,219.1875 151.28125,219.1875 z "
       id="path2185"
       transform="matrix(0.1105496,0,0,0.1105496,-231.099,235.46261)" />
    <g
       transform="translate(-365.48532,-70.179872)"
       inkscape:tile-h="66.121287"
       inkscape:tile-cy="272.96662"
       inkscape:tile-cx="-214.38581"
       id="g2455"
       inkscape:tile-w="247.05935">
      <g
         inkscape:tile-cx="-214.57056"
         inkscape:tile-w="247.05935"
         inkscape:tile-h="31.997596"
         id="g2191"
         inkscape:tile-cy="273.30301">
        <path
           style="opacity:1;fill:none;fill-opacity:1;fill-rule:evenodd;stroke:#000000;stroke-width:1;stroke-linecap:round;stroke-miterlimit:4;stroke-dasharray:none;stroke-dashoffset:0;stroke-opacity:1"
           d="M -213.8858,257.80421 L -91.540889,257.80421"
           id="path2187"
           transform="translate(365.67007,70.258174)" />
        <path
           style="opacity:1;fill:none;fill-opacity:1;fill-rule:evenodd;stroke:#000000;stroke-width:1;stroke-linecap:round;stroke-miterlimit:4;stroke-dasharray:none;stroke-dashoffset:0;stroke-opacity:1"
           transform="translate(241.95563,101.25577)"
           id="path2189"
           d="M -213.8858,257.80421 L -91.540889,257.80421" />
      </g>
      <use
         transform="matrix(0.9245236,-0.3811247,-0.3811247,-0.9245236,143.17793,718.36467)"
         y="0"
         x="0"
         height="496"
         id="use2453"
         xlink:href="#g2191"
         width="788" />
    </g>
    <use
       transform="matrix(0.809017,0.5877853,-0.5877853,0.809017,119.50171,178.14481)"
       y="0"
       x="0"
       inkscape:tiled-clone-of="#g2455"
       height="496"
       style="fill:#c95151;stroke:#c95151"
       id="use2504"
       xlink:href="#g2455"
       width="788" />
    <use
       transform="matrix(0.309017,0.9510565,-0.9510565,0.309017,111.46973,392.50832)"
       y="0"
       x="0"
       inkscape:tiled-clone-of="#g2455"
       height="496"
       style="fill:#c95151;stroke:#c95151"
       id="use2506"
       xlink:href="#g2455"
       width="788" />
    <use
       transform="matrix(-0.309017,0.9510565,-0.9510565,-0.309017,-21.027989,561.21097)"
       y="0"
       x="0"
       inkscape:tiled-clone-of="#g2455"
       height="496"
       style="fill:#c95151;stroke:#c95151"
       id="use2508"
       xlink:href="#g2455"
       width="788" />
    <use
       transform="matrix(-0.809017,0.5877853,-0.5877853,-0.809017,-227.38183,619.81408)"
       y="0"
       x="0"
       inkscape:tiled-clone-of="#g2455"
       height="496"
       style="fill:#c95151;stroke:#c95151"
       id="use2510"
       xlink:href="#g2455"
       width="788" />
    <g
       transform="matrix(0.9433928,0.3316777,-0.3316777,0.9433928,78.664183,86.603777)"
       id="g2530">
      <use
         y="0"
         x="0"
         height="496"
         id="use2520"
         xlink:href="#g2455"
         width="788" />
      <use
         y="0"
         x="0"
         height="496"
         id="use2522"
         xlink:href="#use2504"
         width="788" />
      <use
         y="0"
         x="0"
         height="496"
         id="use2524"
         xlink:href="#use2506"
         width="788" />
      <use
         y="0"
         x="0"
         height="496"
         id="use2526"
         xlink:href="#use2508"
         width="788" />
      <use
         y="0"
         x="0"
         height="496"
         id="use2528"
         xlink:href="#use2510"
         width="788" />
    </g>
  </g>
  <use
     transform="matrix(0.8612486,-0.5081839,0.5081839,0.8612486,335.68259,124.64054)"
     y="0"
     x="0"
     height="496"
     id="use2557"
     xlink:href="#g2537"
     width="788" />
  <path
     sodipodi:type="arc"
     style="opacity:1;fill:#333333;fill-opacity:1;fill-rule:evenodd;stroke:none;stroke-width:1.5;stroke-linecap:butt;stroke-miterlimit:4;stroke-dasharray:none;stroke-dashoffset:0;stroke-opacity:1"
     id="path6967"
     sodipodi:cx="-78.008408"
     sodipodi:cy="220.83656"
     sodipodi:rx="15.88426"
     sodipodi:ry="15.88426"
     d="M -62.124147 220.83656 A 15.88426 15.88426 0 1 1  -93.892668,220.83656 A 15.88426 15.88426 0 1 1  -62.124147 220.83656 z"
     transform="translate(717.54036,120.71025)" />
  <path
     style="opacity:1;fill:#000000;fill-opacity:1;fill-rule:evenodd;stroke:none;stroke-width:1;stroke-linecap:round;stroke-miterlimit:4;stroke-dasharray:none;stroke-dashoffset:0;stroke-opacity:1"
     id="path2559"
     sodipodi:nodetypes="ccccscscsc"
     transform="translate(-4.6317652,-3.8177933)"
     d="M 615.52449,344.21777 L 626.35899,351.60108 L 649.79735,353.69811 L 653.51078,339.10624 C 653.51078,339.10624 644.70775,339.78341 642.02097,337.46793 C 639.33418,335.15246 599.75329,197.40345 599.75329,197.40345 C 599.75329,197.40345 595.97536,174.28476 593.44044,175.07876 C 591.11211,175.80806 596.54226,197.46898 596.54226,197.46898 C 596.54226,197.46898 576.62075,202.40575 575.85622,204.15328 C 575.09169,205.90081 615.67739,344.32699 615.52449,344.21777 z " />
  <path
     sodipodi:arg2="0.74959203"
     transform="matrix(0.5795975,0,0,0.5795975,369.18287,88.841406)"
     sodipodi:cy="432.9408"
     sodipodi:arg1="0.5750591"
     sodipodi:type="star"
     sodipodi:cx="-370.11087"
     sodipodi:r2="65.759712"
     sodipodi:sides="18"
     inkscape:randomized="0"
     style="opacity:1;fill:#000000;fill-opacity:1;fill-rule:evenodd;stroke:none;stroke-width:1;stroke-linecap:round;stroke-miterlimit:4;stroke-dasharray:none;stroke-dashoffset:0;stroke-opacity:1"
     id="path2563"
     inkscape:rounded="0.3"
     sodipodi:r1="55.895756"
     inkscape:flatsided="false"
     d="M -323.20538,463.34162 C -325.56413,466.98094 -319.02206,474.57109 -321.97694,477.74553 C -324.93181,480.91997 -332.9706,474.93775 -336.43182,477.55085 C -339.89304,480.16395 -336.34149,489.53388 -340.20389,491.50625 C -344.06629,493.47862 -349.57424,485.10775 -353.72046,486.37945 C -357.86667,487.65116 -357.73401,497.67071 -362.03807,498.20311 C -366.34212,498.73551 -368.6549,488.98564 -372.98601,488.76256 C -377.31713,488.53948 -380.61936,498.00015 -384.84594,497.02837 C -389.07252,496.05659 -387.91117,486.10369 -391.90479,484.41274 C -395.89841,482.72178 -402.23723,490.48248 -405.87655,488.12373 C -409.51587,485.76498 -405.02046,476.80951 -408.1949,473.85464 C -411.36933,470.89976 -419.98019,476.02443 -422.59329,472.56321 C -425.20639,469.10199 -417.91914,462.22413 -419.89151,458.36173 C -421.86387,454.49933 -431.70817,456.36985 -432.97988,452.22364 C -434.25158,448.07742 -425.05144,444.10673 -425.58384,439.80268 C -426.11624,435.49862 -436.00661,433.88939 -435.78353,429.55827 C -435.56045,425.22716 -425.55709,424.64257 -424.58531,420.41598 C -423.61353,416.1894 -432.35705,411.29451 -430.66609,407.30089 C -428.97514,403.30727 -419.37511,406.17929 -417.01636,402.53997 C -414.65761,398.90065 -421.19968,391.3105 -418.2448,388.13606 C -415.28993,384.96162 -407.25114,390.94384 -403.78992,388.33074 C -400.3287,385.71764 -403.88025,376.34771 -400.01785,374.37534 C -396.15545,372.40297 -390.6475,380.77385 -386.50129,379.50214 C -382.35507,378.23044 -382.48773,368.21088 -378.18367,367.67848 C -373.87962,367.14608 -371.56684,376.89596 -367.23573,377.11903 C -362.90461,377.34211 -359.60238,367.88144 -355.3758,368.85322 C -351.14922,369.825 -352.31057,379.7779 -348.31695,381.46886 C -344.32333,383.15981 -337.98451,375.39912 -334.34519,377.75787 C -330.70587,380.11662 -335.20128,389.07208 -332.02685,392.02695 C -328.85241,394.98183 -320.24155,389.85717 -317.62845,393.31839 C -315.01535,396.77961 -322.3026,403.65747 -320.33023,407.51986 C -318.35787,411.38226 -308.51357,409.51174 -307.24187,413.65796 C -305.97016,417.80417 -315.17031,421.77486 -314.6379,426.07891 C -314.1055,430.38297 -304.21513,431.9922 -304.43821,436.32332 C -304.66129,440.65444 -314.66465,441.23903 -315.63643,445.46561 C -316.60821,449.69219 -307.86469,454.58708 -309.55565,458.5807 C -311.2466,462.57432 -320.84663,459.70231 -323.20538,463.34162 z " />
  <rect
     style="opacity:1;fill:#1a1a1a;fill-opacity:1;fill-rule:evenodd;stroke:none;stroke-width:1.5;stroke-linecap:butt;stroke-miterlimit:4;stroke-dasharray:none;stroke-dashoffset:0;stroke-opacity:1"
     id="rect6982"
     width="159.19958"
     height="14.122902"
     x="128.19528"
     y="331.72186"
     transform="matrix(0.9995495,-3.0016966e-2,3.0016966e-2,0.9995495,19.118865,4.3530967)"
     inkscape:transform-center-x="-87.265712"
     inkscape:transform-center-y="-1.1464893" />
  <path
     sodipodi:arg2="0.86399214"
     transform="matrix(0.4580751,0,0,0.4580751,494.2247,136.03246)"
     sodipodi:cy="432.9408"
     sodipodi:arg1="0.74316165"
     sodipodi:type="star"
     sodipodi:cx="-370.11087"
     sodipodi:r2="106.79615"
     sodipodi:sides="26"
     inkscape:randomized="0"
     style="opacity:1;fill:#000000;fill-opacity:1;fill-rule:evenodd;stroke:none;stroke-width:1;stroke-linecap:round;stroke-miterlimit:4;stroke-dasharray:none;stroke-dashoffset:0;stroke-opacity:1"
     id="path2561"
     inkscape:rounded="0.3"
     sodipodi:r1="96.116531"
     inkscape:flatsided="false"
     d="M -299.3371,497.9751 C -302.6336,501.56252 -297.05184,510.98906 -300.75672,514.15298 C -304.4616,517.3169 -312.89814,510.32831 -316.95738,513.02259 C -321.01662,515.71687 -317.85297,526.20529 -322.20737,528.39064 C -326.56177,530.57598 -333.08069,521.77148 -337.66675,523.41602 C -342.25282,525.06057 -341.69115,536.00133 -346.442,537.0811 C -351.19286,538.16087 -355.41529,528.05212 -360.26166,528.55136 C -365.10803,529.05061 -367.18097,539.80786 -372.05218,539.7193 C -376.92339,539.63074 -378.60395,528.80524 -383.42897,528.13016 C -388.25398,527.45509 -392.84107,537.40367 -397.54954,536.15192 C -402.25801,534.90018 -401.29902,523.98707 -405.82227,522.17691 C -410.34553,520.36674 -417.18018,528.92848 -421.45226,526.58629 C -425.72435,524.24411 -422.18154,513.87762 -426.14016,511.03757 C -430.09878,508.19752 -438.78378,514.87483 -442.37121,511.57833 C -445.95863,508.28183 -440.03791,499.06441 -443.20183,495.35953 C -446.36575,491.65465 -456.39637,496.05947 -459.09065,492.00023 C -461.78493,487.941 -453.83038,480.40834 -456.01573,476.05394 C -458.20107,471.69954 -468.99436,473.57588 -470.63891,468.98982 C -472.28345,464.40375 -462.75737,458.99363 -463.83714,454.24278 C -464.91691,449.49192 -475.8456,448.73073 -476.34484,443.88436 C -476.84408,439.038 -466.30008,436.06483 -466.21152,431.19362 C -466.12296,426.32241 -476.55192,422.96793 -475.87684,418.14291 C -475.20176,413.31789 -464.25263,412.95446 -463.00088,408.24599 C -461.74914,403.53753 -471.07227,397.78471 -469.26211,393.26146 C -467.45195,388.7382 -456.734,391.00563 -454.39181,386.73355 C -452.04963,382.46146 -459.72511,374.64464 -456.88507,370.68602 C -454.04502,366.72741 -444.18114,371.49392 -440.88465,367.90649 C -437.58815,364.31907 -443.1699,354.89253 -439.46502,351.72861 C -435.76014,348.56469 -427.3236,355.55328 -423.26436,352.859 C -419.20512,350.16472 -422.36877,339.6763 -418.01437,337.49095 C -413.65997,335.30561 -407.14105,344.11012 -402.55499,342.46557 C -397.96892,340.82102 -398.53059,329.88026 -393.77974,328.80049 C -389.02888,327.72073 -384.80645,337.82947 -379.96008,337.33023 C -375.11371,336.83099 -373.04077,326.07373 -368.16956,326.16229 C -363.29835,326.25085 -361.61779,337.07635 -356.79278,337.75143 C -351.96776,338.4265 -347.38067,328.47792 -342.6722,329.72967 C -337.96373,330.98141 -338.92272,341.89452 -334.39947,343.70469 C -329.87621,345.51485 -323.04156,336.95312 -318.76948,339.2953 C -314.49739,341.63748 -318.0402,352.00397 -314.08158,354.84402 C -310.12296,357.68407 -301.43796,351.00677 -297.85053,354.30327 C -294.26311,357.59977 -300.18383,366.81718 -297.01991,370.52206 C -293.85599,374.22694 -283.82537,369.82212 -281.13109,373.88136 C -278.43682,377.9406 -286.39136,385.47325 -284.20602,389.82765 C -282.02067,394.18205 -271.22738,392.30571 -269.58284,396.89177 C -267.93829,401.47784 -277.46437,406.88796 -276.3846,411.63882 C -275.30483,416.38967 -264.37615,417.15086 -263.8769,421.99723 C -263.37766,426.8436 -273.92166,429.81677 -274.01022,434.68798 C -274.09878,439.55919 -263.66982,442.91366 -264.3449,447.73868 C -265.01998,452.5637 -275.96911,452.92713 -277.22086,457.6356 C -278.4726,462.34406 -269.14947,468.09688 -270.95963,472.62013 C -272.7698,477.14339 -283.48774,474.87596 -285.82993,479.14805 C -288.17211,483.42013 -280.49663,491.23695 -283.33667,495.19557 C -286.17672,499.15419 -296.0406,494.38767 -299.3371,497.9751 z " />
  <path
     style="opacity:1;fill:#1a1a1a;fill-opacity:1;fill-rule:evenodd;stroke:none;stroke-width:1;stroke-linecap:round;stroke-miterlimit:4;stroke-dasharray:none;stroke-dashoffset:0;stroke-opacity:1"
     id="path2567"
     sodipodi:nodetypes="ccccsssscccc"
     transform="translate(-0.3507852,-2.6475233)"
     d="M 245.18414,230.57688 L 147.76097,334.90439 L 164.88648,343.90416 L 257.94089,239.66403 C 257.94089,239.66403 296.1222,283.2796 308.26892,286.41044 C 318.3156,288.99999 330.70062,287.36576 340.34834,287.60088 C 346.42838,287.74906 349.1166,281.65698 348.81093,278.63394 C 348.51164,275.67402 345.03065,271.03949 340.32046,271.14063 C 330.92285,271.34241 316.65692,270.85743 316.65692,270.85743 L 263.44552,221.05284 L 248.24227,221.2276 L 245.18414,230.57688 z " />
  <path
     sodipodi:cy="112.52697"
     sodipodi:type="arc"
     sodipodi:cx="248.72829"
     style="opacity:1;fill:#1a1a1a;fill-opacity:1;fill-rule:evenodd;stroke:#808080;stroke-width:1;stroke-linecap:round;stroke-miterlimit:4;stroke-dasharray:none;stroke-dashoffset:0;stroke-opacity:1"
     id="path2188"
     sodipodi:rx="0"
     d="M 248.72829 112.52697 A 0 0 0 1 1  248.72829,112.52697 A 0 0 0 1 1  248.72829 112.52697 z"
     sodipodi:ry="0" />
  <path
     style="opacity:1;fill:none;fill-opacity:1;fill-rule:evenodd;stroke:#1a1a1a;stroke-width:3;stroke-linecap:butt;stroke-miterlimit:4;stroke-dasharray:none;stroke-dashoffset:0;stroke-opacity:1"
     id="path4150"
     sodipodi:nodetypes="cssc"
     transform="translate(-6.2285608,6.7454515)"
     d="M 297.01174,238.86004 C 297.01174,238.86004 292.77859,232.33843 293.61187,231.72019 C 294.45504,231.09461 310.13524,247.29185 311.60398,246.24467 C 313.07273,245.1975 307.29295,237.39127 307.29295,237.39127" />
  <path
     style="opacity:1;fill:none;fill-opacity:1;fill-rule:evenodd;stroke:#484850;stroke-width:1.5;stroke-linecap:butt;marker-mid:url(#Dot_m);stroke-miterlimit:4;stroke-dasharray:none;stroke-dashoffset:0;stroke-opacity:1"
     id="path5194"
     sodipodi:nodetypes="cssscssss"
     d="M -396.82699,166.06595 C -396.82699,166.06595 -399.99212,166.37255 -405.46562,166.90274 C -407.91039,167.13956 -410.81569,167.42099 -414.10516,167.73963 C -416.75,167.99582 -419.64319,168.27608 -422.74505,168.57654 C -425.47256,168.84075 -428.3614,169.12058 -431.38461,169.41343 C -434.15834,169.68211 -437.04517,169.96175 -440.02426,170.25032 C -442.82777,170.52189 -445.71299,170.80137 -448.66255,171.08708 C -451.48859,171.36083 -454.37371,171.6403 -457.30262,171.92401 C -460.14567,172.19941 -463.02999,172.47881 -465.94161,172.76084 C -468.79938,173.03767 -471.68346,173.31704 -474.58061,173.59767 C -477.45197,173.87581 -480.33619,174.1552 -483.2204,174.43458 C -486.10469,174.71397 -488.98897,174.99336 -491.86039,175.27151 C -494.75747,175.55214 -497.64145,175.8315 -500.49914,176.10831 C -503.41057,176.39033 -506.2947,176.66971 -509.13756,176.94509 C -512.06596,177.22875 -514.95056,177.50817 -517.77612,177.78187 C -520.72591,178.06761 -523.61135,178.34711 -526.41505,178.6187 C -529.39397,178.90725 -532.28062,179.18687 -535.05418,179.45554 C -538.07716,179.74837 -540.96579,180.02818 -543.6931,180.29236 C -546.79464,180.5928 -549.68755,180.87302 -552.33217,181.1292 C -555.62146,181.44782 -558.52665,181.72924 -560.9714,181.96605 C -566.44575,182.49633 -569.61142,182.80298 -569.61142,182.80298 C -572.26118,183.05965 -574.83427,183.62395 -577.29889,184.45772 C -579.79728,185.30291 -582.18422,186.425 -584.4266,187.78425 C -586.67153,189.14504 -588.77158,190.74353 -590.69352,192.53982 C -592.60875,194.32985 -594.34712,196.3163 -595.87577,198.45972 C -597.39722,200.59307 -598.71091,202.8819 -599.78443,205.28731 C -600.85064,207.67635 -601.67995,210.18039 -602.24058,212.76131 C -602.79334,215.30594 -603.08493,217.92529 -603.08493,220.58284 C -603.08493,223.29066 -602.70103,225.92198 -601.99009,228.44585 C -601.26974,231.00311 -600.21364,233.45005 -598.88092,235.75448 C -597.56094,238.03687 -595.96961,240.17947 -594.16439,242.15097 C -592.38193,244.09761 -590.39094,245.87744 -588.24674,247.46036 C -586.11174,249.03648 -583.82483,250.41737 -581.44062,251.5733 C -579.03762,252.73834 -576.53578,253.67486 -573.991,254.35243 C -571.39855,255.04268 -568.76154,255.46418 -566.13907,255.58476 C -563.08567,255.72515 -560.76145,256.46269 -559.00738,257.5922 C -556.72756,259.06027 -555.41091,261.19052 -554.70828,263.53245 C -553.98355,265.94801 -553.91206,268.58877 -554.11067,270.96041 C -554.4508,275.02204 -555.5831,278.29434 -555.5831,278.29434 C -555.5831,278.29434 -556.2869,281.23692 -556.12416,284.32583 C -556.01438,286.40949 -555.51029,288.55974 -554.12988,289.91826 C -552.95877,291.0708 -551.15693,291.6535 -548.43005,291.14227 C -548.43005,291.14227 -545.23549,290.54336 -539.73479,289.51211 C -537.27204,289.0504 -534.34704,288.50203 -531.0395,287.88194 C -528.37516,287.38244 -525.4626,286.8364 -522.34349,286.25164 C -519.5957,285.7365 -516.68761,285.1913 -513.64772,284.62139 C -510.85307,284.09746 -507.94702,283.55264 -504.95172,282.99109 C -502.12615,282.46136 -499.22115,281.91674 -496.25531,281.36071 C -493.40748,280.82681 -490.50356,280.28239 -487.55999,279.73054 C -484.69399,279.19323 -481.79041,278.64888 -478.86443,278.10033 C -475.98283,277.56009 -473.07951,277.01579 -470.16897,276.47013 C -467.2728,275.92717 -464.36949,275.38286 -461.47333,274.8399 C -458.56285,274.29425 -455.65958,273.74996 -452.77804,273.20973 C -449.85193,272.66116 -446.94823,272.11678 -444.08211,271.57945 C -441.13825,271.02754 -438.23405,270.48307 -435.38597,269.94912 C -432.42058,269.39318 -429.51603,268.84864 -426.69089,268.319 C -423.69574,267.75748 -420.78985,267.21269 -417.99535,266.68879 C -414.95551,266.11888 -412.04748,265.5737 -409.29975,265.05856 C -406.18139,264.47394 -403.26951,263.92803 -400.60574,263.42863 C -397.29813,262.80854 -394.37308,262.26016 -391.91032,261.79844 C -386.4098,260.76723 -383.21535,260.16834 -383.21535,260.16834 C -380.30984,259.62362 -377.54279,258.78099 -374.92504,257.68209 C -372.23279,256.55193 -369.69847,255.15072 -367.33386,253.5238 C -364.94722,251.88171 -362.73348,250.00969 -360.70475,247.95434 C -358.67557,245.89852 -356.8315,243.6593 -355.18467,241.2833 C -353.53702,238.90612 -352.08681,236.39204 -350.84619,233.78776 C -349.59766,231.16688 -348.5614,228.45466 -347.74981,225.6987 C -346.92587,222.90086 -346.33348,220.05795 -345.98559,217.21977 C -345.62923,214.31253 -345.52941,211.41026 -345.70007,208.5665 C -345.8758,205.63819 -346.33832,202.77192 -347.10285,200.02615 C -347.85558,197.32277 -348.80566,194.75893 -349.93214,192.34224 C -351.11052,189.8142 -352.48193,187.44718 -354.02238,185.2499 C -355.61247,182.98181 -357.38267,180.89457 -359.30658,178.99777 C -361.26578,177.06618 -363.38439,175.33207 -365.63455,173.80556 C -367.89828,172.26983 -370.29516,170.94423 -372.79679,169.83905 C -375.28618,168.73927 -377.8793,167.85776 -380.5482,167.20468 C -383.18033,166.56059 -385.88616,166.13867 -388.63887,165.94866 C -391.33175,165.76278 -394.06949,165.79884 -396.82699,166.06595 C -396.82699,166.06595 -396.82699,166.06595 -396.82699,166.06595"
     transform="translate(719.33597,120.71025)" />
  <rect
     style="opacity:1;fill:#333333;fill-opacity:1;fill-rule:evenodd;stroke:none;stroke-width:1.5;stroke-linecap:butt;stroke-miterlimit:4;stroke-dasharray:none;stroke-dashoffset:0;stroke-opacity:1"
     id="rect6961"
     width="49.005329"
     height="15.955418"
     x="451.46521"
     y="7.5962405"
     ry="6.8095298"
     transform="matrix(0.9518746,-0.3064876,0.3064876,0.9518746,64.177335,147.55175)" />
  <rect
     transform="matrix(0.9518746,-0.3064876,0.3064876,0.9518746,64.177335,147.55175)"
     ry="6.8095298"
     y="7.5962405"
     x="451.46521"
     height="15.466896"
     width="26.61487"
     id="rect6965"
     style="opacity:1;fill:#000000;fill-opacity:1;fill-rule:evenodd;stroke:none;stroke-width:1.5;stroke-linecap:butt;stroke-miterlimit:4;stroke-dasharray:none;stroke-dashoffset:0;stroke-opacity:1" />
  <path
     style="opacity:1;fill:#333333;fill-opacity:1;fill-rule:evenodd;stroke:none;stroke-width:1.5;stroke-linecap:butt;stroke-miterlimit:4;stroke-dasharray:none;stroke-dashoffset:0;stroke-opacity:1"
     d="M -557.0915,238.70722 C -559.23242,288.70892 -558.5418,293.95772 -558.5418,293.95772 L -551.15217,286.29171 L -551.01405,238.3619 L -557.0915,238.70722 z "
     id="path6969"
     transform="translate(719.33597,120.71025)" />
  <path
     style="opacity:1;fill:#999999;fill-opacity:1;fill-rule:evenodd;stroke:none;stroke-width:1.5;stroke-linecap:butt;stroke-miterlimit:4;stroke-dasharray:none;stroke-dashoffset:0;stroke-opacity:1"
     d="M 183.77284,349.64597 C 189.94253,357.75457 157.37035,372.32115 157.28494,372.22189 C 157.28494,372.22189 156.87939,368.13453 155.83769,366.15446 C 154.79598,364.1744 151.49593,361.78083 151.49593,361.78083 C 151.49593,361.78083 177.60315,341.53737 183.77284,349.64597 z "
     id="path6971"
     sodipodi:nodetypes="ccscz"
     transform="translate(-10.939575,6.7452667)" />
  <path
     sodipodi:type="arc"
     style="opacity:1;fill:#1a1a1a;fill-opacity:1;fill-rule:evenodd;stroke:#4d4d4d;stroke-width:1.5;stroke-linecap:butt;stroke-miterlimit:4;stroke-dasharray:none;stroke-dashoffset:0;stroke-opacity:1"
     id="path6973"
     sodipodi:cx="-566.5401"
     sodipodi:cy="215.89751"
     sodipodi:rx="4.4533129"
     sodipodi:ry="4.4533129"
     d="M -562.08679 215.89751 A 4.4533129 4.4533129 0 1 1  -570.99341,215.89751 A 4.4533129 4.4533129 0 1 1  -562.08679 215.89751 z"
     transform="translate(718.57126,123.09438)" />
  <path
     style="fill:#666666;fill-opacity:1;fill-rule:evenodd;stroke:none;stroke-width:1.5;stroke-linecap:butt;stroke-miterlimit:4;stroke-dashoffset:0;stroke-opacity:1"
     d="M 334.08204,354.22239 C 334.08204,359.80936 317.44727,362.09454 311.86029,362.09454 C 306.27332,362.09454 301.73896,357.56018 301.73896,351.97321 C 301.73896,346.38623 306.27332,341.85187 311.86029,341.85187 C 317.44727,341.85187 334.08204,348.63541 334.08204,354.22239 z "
     id="path6977"
     sodipodi:nodetypes="csssc"
     transform="translate(-2.2941152,25.119892)" />
  <path
     sodipodi:type="arc"
     style="opacity:1;fill:#1a1a1a;fill-opacity:1;fill-rule:evenodd;stroke:none;stroke-width:1.5;stroke-linecap:butt;stroke-miterlimit:4;stroke-dasharray:none;stroke-dashoffset:0;stroke-opacity:1"
     id="path6980"
     sodipodi:cx="-393.41846"
     sodipodi:cy="293.06705"
     sodipodi:rx="2.8564646"
     sodipodi:ry="2.8564646"
     d="M -390.56199 293.06705 A 2.8564646 2.8564646 0 1 1  -396.27492,293.06705 A 2.8564646 2.8564646 0 1 1  -390.56199 293.06705 z"
     transform="translate(701.88259,84.183486)" />
  <g
     id="g7012"
     transform="translate(-14.395035,6.6413067)">
    <path
       id="path6997"
       d="M 399.03125,316.59375 C 373.95524,316.60836 345.02519,318.7745 341.65625,318.9375 C 335.40357,319.24001 330.80757,321.36799 331.875,329.5625 C 333.22633,339.93641 341.64846,338.00054 344.03125,337.90625 C 346.30932,337.81612 439.1542,333.86307 436.6875,322.4375 C 435.70131,317.86955 418.53481,316.58239 399.03125,316.59375 z M 340,322.4375 C 343.31883,322.43751 346.03125,325.14993 346.03125,328.46875 C 346.03124,331.78758 343.31883,334.50001 340,334.5 C 336.68117,334.49999 333.96875,331.78759 333.96875,328.46875 C 333.96876,325.14992 336.68117,322.43751 340,322.4375 z M 340,323.9375 C 337.49276,323.9375 335.46876,325.96152 335.46875,328.46875 C 335.46875,330.97599 337.49276,333 340,333 C 342.50724,333 344.53124,330.976 344.53125,328.46875 C 344.53125,325.96151 342.50724,323.93752 340,323.9375 z "
       style="opacity:1;fill:#333333;fill-opacity:1;fill-rule:evenodd;stroke:none;stroke-width:1.5;stroke-linecap:butt;stroke-miterlimit:4;stroke-dasharray:none;stroke-dashoffset:0;stroke-opacity:1" />
    <path
       transform="translate(0.3277789,0.4507036)"
       d="M 393.49763,324.92977 L 412.24658,311.91673 L 461.92967,323.54488 L 443.48391,336.83653 L 393.49763,324.92977 z M 399.23376,323.44654 L 413.27089,313.15412 C 413.27089,313.15412 422.85842,319.91467 419.96577,322.73361 C 417.07313,325.55256 399.03709,323.80711 399.23376,323.44654 z M 457.09641,324.52428 L 443.05928,334.8167 C 443.05928,334.8167 433.47175,328.05615 436.3644,325.23721 C 439.25704,322.41826 457.29308,324.16371 457.09641,324.52428 z M 434.16679,323.70459 C 434.16679,326.65155 431.77506,329.04329 428.82809,329.04329 C 425.88113,329.04329 423.4894,326.65155 423.4894,323.70459 C 423.4894,320.75763 425.88113,318.36589 428.82809,318.36589 C 431.77506,318.36589 434.16679,320.75763 434.16679,323.70459 z "
       style="fill:#1a1a1a;fill-opacity:1;fill-rule:evenodd;stroke:none;stroke-width:1.5;stroke-linecap:butt;stroke-miterlimit:4;stroke-dashoffset:0;stroke-opacity:1"
       id="path6984" />
  </g>
</svg>
